<?xml version="1.0" standalone="no"?><!DOCTYPE svg PUBLIC "-//W3C//DTD SVG 1.1//EN" "http://www.w3.org/Graphics/SVG/1.1/DTD/svg11.dtd"><svg viewBoxSize="575" data-root-id="0858991648550" id="Layer_1" dataName="Layer 1" viewBox="0 0 392.41 392.41" height="141.60281396509106" width="141.60281396509106" y="216.69859301745447" x="90" preserveAspectRatio="xMinYMin" zoom="1" editorType="buyer" data-layer-role="icon" style="block-size:141.603px;display:block;height:141.603px;inline-size:141.603px;inset-block-start:216.699px;inset-inline-start:90px;left:90px;perspective-origin:0px 0px;pointer-events:bounding-box;top:216.699px;transform:matrix(1, 0, 0, 1, 0, 0);transform-origin:0px 0px;width:141.603px;x:90px;y:216.699px;" version="1.1" xmlns="http://www.w3.org/2000/svg" xmlns:xlink="http://www.w3.org/1999/xlink"><path class="cls-1" d="M256,402.84a145.9,145.9,0,0,1-103.83-43A4.11,4.11,0,1,1,158,354a138.62,138.62,0,0,0,196,0,4.11,4.11,0,0,1,5.82,5.81A145.89,145.89,0,0,1,256,402.84Z" transform="translate(-59.79 -59.79)" name="Layer %{number}" zoom="1" data-layer-id="2405354848550" style="block-size:auto;d:path(&quot;M 256 402.84 A 145.9 145.9 0 0 1 152.17 359.84 A 4.11 4.11 0 1 1 158 354 A 138.62 138.62 0 0 0 354 354 A 4.11 4.11 0 0 1 359.82 359.81 A 145.89 145.89 0 0 1 256 402.84 Z&quot;);fill:rgb(69, 69, 70);height:auto;inline-size:auto;overflow-clip-margin:0px;overflow-x:visible;overflow-y:visible;perspective-origin:0px 0px;pointer-events:bounding-box;transform:matrix(1, 0, 0, 1, -59.79, -59.79);transform-origin:0px 0px;width:auto;"/><path class="cls-1" d="M144.33,349a4.1,4.1,0,0,1-3.22-1.55,145.24,145.24,0,0,1-32-91.46c0-81,65.88-146.85,146.85-146.85S402.85,175,402.85,256a145.26,145.26,0,0,1-32,91.46,4.11,4.11,0,0,1-6.43-5.13A137.14,137.14,0,0,0,394.62,256c0-76.44-62.19-138.62-138.62-138.62S117.38,179.56,117.38,256a137.19,137.19,0,0,0,30.16,86.34,4.11,4.11,0,0,1-3.21,6.67Z" transform="translate(-59.79 -59.79)" name="Layer %{number}" zoom="1" data-layer-id="6434185648550" style="block-size:auto;d:path(&quot;M 144.33 349 A 4.1 4.1 0 0 1 141.11 347.45 A 145.24 145.24 0 0 1 109.11 255.99 C 109.11 174.99 174.99 109.14 255.96 109.14 S 402.85 175 402.85 256 A 145.26 145.26 0 0 1 370.85 347.46 A 4.11 4.11 0 0 1 364.42 342.33 A 137.14 137.14 0 0 0 394.62 256 C 394.62 179.56 332.43 117.38 256 117.38 S 117.38 179.56 117.38 256 A 137.19 137.19 0 0 0 147.54 342.34 A 4.11 4.11 0 0 1 144.33 349.01 Z&quot;);fill:rgb(69, 69, 70);height:auto;inline-size:auto;overflow-clip-margin:0px;overflow-x:visible;overflow-y:visible;perspective-origin:0px 0px;pointer-events:bounding-box;transform:matrix(1, 0, 0, 1, -59.79, -59.79);transform-origin:0px 0px;width:auto;"/><path class="cls-1" d="M265.6,117.38a4.11,4.11,0,0,1-4.12-4.11V73.5a5.49,5.49,0,0,0-11,0v39.77a4.11,4.11,0,1,1-8.22,0V73.5a13.71,13.71,0,1,1,27.42,0v39.77A4.11,4.11,0,0,1,265.6,117.38Z" transform="translate(-59.79 -59.79)" name="Layer %{number}" zoom="1" data-layer-id="1894251748550" style="block-size:auto;d:path(&quot;M 265.6 117.38 A 4.11 4.11 0 0 1 261.48 113.27 V 73.5 A 5.49 5.49 0 0 0 250.48 73.5 V 113.27 A 4.11 4.11 0 1 1 242.26 113.27 V 73.5 A 13.71 13.71 0 1 1 269.68 73.5 V 113.27 A 4.11 4.11 0 0 1 265.6 117.38 Z&quot;);fill:rgb(69, 69, 70);height:auto;inline-size:auto;overflow-clip-margin:0px;overflow-x:visible;overflow-y:visible;perspective-origin:0px 0px;pointer-events:bounding-box;transform:matrix(1, 0, 0, 1, -59.79, -59.79);transform-origin:0px 0px;width:auto;"/><path class="cls-1" d="M256,452.21a13.73,13.73,0,0,1-13.71-13.71V398.73a4.11,4.11,0,1,1,8.22,0V438.5a5.49,5.49,0,0,0,11,0V398.73a4.12,4.12,0,0,1,8.23,0V438.5A13.73,13.73,0,0,1,256,452.21Z" transform="translate(-59.79 -59.79)" name="Layer %{number}" zoom="1" data-layer-id="7953341848550" style="block-size:auto;d:path(&quot;M 256 452.21 A 13.73 13.73 0 0 1 242.29 438.5 V 398.73 A 4.11 4.11 0 1 1 250.51 398.73 V 438.5 A 5.49 5.49 0 0 0 261.51 438.5 V 398.73 A 4.12 4.12 0 0 1 269.74 398.73 V 438.5 A 13.73 13.73 0 0 1 256 452.21 Z&quot;);fill:rgb(69, 69, 70);height:auto;inline-size:auto;overflow-clip-margin:0px;overflow-x:visible;overflow-y:visible;perspective-origin:0px 0px;pointer-events:bounding-box;transform:matrix(1, 0, 0, 1, -59.79, -59.79);transform-origin:0px 0px;width:auto;"/><path class="cls-1" d="M113.27,269.71H73.5a13.71,13.71,0,0,1,0-27.42h39.77a4.11,4.11,0,1,1,0,8.22H73.5a5.49,5.49,0,0,0,0,11h39.77a4.12,4.12,0,0,1,0,8.23Z" transform="translate(-59.79 -59.79)" name="Layer %{number}" zoom="1" data-layer-id="1551799448550" style="block-size:auto;d:path(&quot;M 113.27 269.71 H 73.5 A 13.71 13.71 0 0 1 73.5 242.29 H 113.27 A 4.11 4.11 0 1 1 113.27 250.51 H 73.5 A 5.49 5.49 0 0 0 73.5 261.51 H 113.27 A 4.12 4.12 0 0 1 113.27 269.74 Z&quot;);fill:rgb(69, 69, 70);height:auto;inline-size:auto;overflow-clip-margin:0px;overflow-x:visible;overflow-y:visible;perspective-origin:0px 0px;pointer-events:bounding-box;transform:matrix(1, 0, 0, 1, -59.79, -59.79);transform-origin:0px 0px;width:auto;"/><path class="cls-1" d="M438.5,269.71H398.73a4.12,4.12,0,0,1,0-8.23H438.5a5.49,5.49,0,0,0,0-11H398.73a4.11,4.11,0,0,1,0-8.22H438.5a13.71,13.71,0,0,1,0,27.42Z" transform="translate(-59.79 -59.79)" name="Layer %{number}" zoom="1" data-layer-id="1072260848550" style="block-size:auto;d:path(&quot;M 438.5 269.71 H 398.73 A 4.12 4.12 0 0 1 398.73 261.48 H 438.5 A 5.49 5.49 0 0 0 438.5 250.48 H 398.73 A 4.11 4.11 0 0 1 398.73 242.26 H 438.5 A 13.71 13.71 0 0 1 438.5 269.68 Z&quot;);fill:rgb(69, 69, 70);height:auto;inline-size:auto;overflow-clip-margin:0px;overflow-x:visible;overflow-y:visible;perspective-origin:0px 0px;pointer-events:bounding-box;transform:matrix(1, 0, 0, 1, -59.79, -59.79);transform-origin:0px 0px;width:auto;"/><path class="cls-1" d="M256,402.84a4.11,4.11,0,0,1-4.11-4.11V118.84a4.11,4.11,0,0,1,8.22,0V398.73A4.11,4.11,0,0,1,256,402.84Z" transform="translate(-59.79 -59.79)" name="Layer %{number}" zoom="1" data-layer-id="2179862448550" style="block-size:auto;d:path(&quot;M 256 402.84 A 4.11 4.11 0 0 1 251.89 398.73 V 118.84 A 4.11 4.11 0 0 1 260.11 118.84 V 398.73 A 4.11 4.11 0 0 1 256 402.84 Z&quot;);fill:rgb(69, 69, 70);height:auto;inline-size:auto;overflow-clip-margin:0px;overflow-x:visible;overflow-y:visible;perspective-origin:0px 0px;pointer-events:bounding-box;transform:matrix(1, 0, 0, 1, -59.79, -59.79);transform-origin:0px 0px;width:auto;"/><path class="cls-1" d="M396.68,260.11H113.27a4.11,4.11,0,1,1,0-8.22H396.68a4.11,4.11,0,1,1,0,8.22Z" transform="translate(-59.79 -59.79)" name="Layer %{number}" zoom="1" data-layer-id="2958586548550" style="block-size:auto;d:path(&quot;M 396.68 260.11 H 113.27 A 4.11 4.11 0 1 1 113.27 251.89 H 396.68 A 4.11 4.11 0 1 1 396.68 260.11 Z&quot;);fill:rgb(69, 69, 70);height:auto;inline-size:auto;overflow-clip-margin:0px;overflow-x:visible;overflow-y:visible;perspective-origin:0px 0px;pointer-events:bounding-box;transform:matrix(1, 0, 0, 1, -59.79, -59.79);transform-origin:0px 0px;width:auto;"/><path class="cls-1" d="M386.94,391.05a4.07,4.07,0,0,1-2.91-1.21l-128-128-128,128a4.11,4.11,0,0,1-6.61-4.69l83.87-174.1L152.17,158a4.11,4.11,0,0,1,5.81-5.82l51,51,43.28-89.84a4.12,4.12,0,0,1,7.42,0L303,203.2l51-51a4.12,4.12,0,0,1,5.82,5.82l-53.07,53.07,83.87,174.1a4.12,4.12,0,0,1-3.7,5.9ZM211.39,217.21,139.28,366.9,250.18,256ZM261.82,256l110.9,110.9L300.6,217.21Zm-46.64-46.64L256,250.18l40.82-40.82L256,124.62Z" transform="translate(-59.79 -59.79)" name="Layer %{number}" zoom="1" data-layer-id="0496702548550" style="block-size:auto;d:path(&quot;M 386.94 391.05 A 4.07 4.07 0 0 1 384.03 389.84 L 256.03 261.84 L 128.03 389.84 A 4.11 4.11 0 0 1 121.42 385.15 L 205.29 211.05 L 152.17 158 A 4.11 4.11 0 0 1 157.98 152.18 L 208.98 203.18 L 252.26 113.34 A 4.12 4.12 0 0 1 259.68 113.34 L 303 203.2 L 354 152.2 A 4.12 4.12 0 0 1 359.82 158.02 L 306.75 211.09 L 390.62 385.19 A 4.12 4.12 0 0 1 386.92 391.09 Z M 211.39 217.21 L 139.28 366.9 L 250.18 256 Z M 261.82 256 L 372.72 366.9 L 300.6 217.21 Z M 215.18 209.36 L 256 250.18 L 296.82 209.36 L 256 124.62 Z&quot;);fill:rgb(69, 69, 70);height:auto;inline-size:auto;overflow-clip-margin:0px;overflow-x:visible;overflow-y:visible;perspective-origin:0px 0px;pointer-events:bounding-box;transform:matrix(1, 0, 0, 1, -59.79, -59.79);transform-origin:0px 0px;width:auto;"/><path class="cls-1" d="M256,366.26a110.27,110.27,0,0,1-18.08-219,4.11,4.11,0,1,1,1.34,8.12,102,102,0,1,0,33.48,0,4.11,4.11,0,1,1,1.34-8.12A110.27,110.27,0,0,1,256,366.26Z" transform="translate(-59.79 -59.79)" name="Layer %{number}" zoom="1" data-layer-id="7855226448550" style="block-size:auto;d:path(&quot;M 256 366.26 A 110.27 110.27 0 0 1 237.92 147.26 A 4.11 4.11 0 1 1 239.26 155.38 A 102 102 0 1 0 272.74 155.38 A 4.11 4.11 0 1 1 274.08 147.26 A 110.27 110.27 0 0 1 256 366.26 Z&quot;);fill:rgb(69, 69, 70);height:auto;inline-size:auto;overflow-clip-margin:0px;overflow-x:visible;overflow-y:visible;perspective-origin:0px 0px;pointer-events:bounding-box;transform:matrix(1, 0, 0, 1, -59.79, -59.79);transform-origin:0px 0px;width:auto;"/><circle class="cls-1" cx="196.21" cy="196.21" r="27.03" name="Layer %{number}" zoom="1" data-layer-id="7162683548550" style="block-size:auto;cx:196.21px;cy:196.21px;fill:rgb(69, 69, 70);height:auto;inline-size:auto;overflow-clip-margin:0px;overflow-x:visible;overflow-y:visible;perspective-origin:0px 0px;pointer-events:bounding-box;r:27.03px;transform-origin:0px 0px;width:auto;"/><path class="cls-1" d="M148.51,166.19a4.09,4.09,0,0,1-2.91-1.2l-28.34-28.34a13.71,13.71,0,0,1,19.39-19.39L165,145.6a4.12,4.12,0,0,1-5.82,5.82l-28.34-28.34a5.48,5.48,0,0,0-7.75,0,5.47,5.47,0,0,0,0,7.75l28.33,28.34a4.11,4.11,0,0,1-2.9,7Z" transform="translate(-59.79 -59.79)" name="Layer %{number}" zoom="1" data-layer-id="6415507548550" style="block-size:auto;d:path(&quot;M 148.51 166.19 A 4.09 4.09 0 0 1 145.6 164.99 L 117.26 136.65 A 13.71 13.71 0 0 1 136.65 117.26 L 165 145.6 A 4.12 4.12 0 0 1 159.18 151.42 L 130.84 123.08 A 5.48 5.48 0 0 0 123.09 123.08 A 5.47 5.47 0 0 0 123.09 130.83 L 151.42 159.17 A 4.11 4.11 0 0 1 148.52 166.17 Z&quot;);fill:rgb(69, 69, 70);height:auto;inline-size:auto;overflow-clip-margin:0px;overflow-x:visible;overflow-y:visible;perspective-origin:0px 0px;pointer-events:bounding-box;transform:matrix(1, 0, 0, 1, -59.79, -59.79);transform-origin:0px 0px;width:auto;"/><path class="cls-1" d="M363.49,166.2a4.11,4.11,0,0,1-2.91-7l28.34-28.35a5.48,5.48,0,0,0-7.75-7.75l-28.35,28.34a4.11,4.11,0,1,1-5.82-5.81l28.35-28.35a13.71,13.71,0,0,1,19.39,19.39L366.39,165A4.09,4.09,0,0,1,363.49,166.2Z" transform="translate(-59.79 -59.79)" name="Layer %{number}" zoom="1" data-layer-id="6244531848550" style="block-size:auto;d:path(&quot;M 363.49 166.2 A 4.11 4.11 0 0 1 360.58 159.2 L 388.92 130.85 A 5.48 5.48 0 0 0 381.17 123.1 L 352.82 151.44 A 4.11 4.11 0 1 1 347 145.63 L 375.35 117.28 A 13.71 13.71 0 0 1 394.74 136.67 L 366.39 165 A 4.09 4.09 0 0 1 363.49 166.2 Z&quot;);fill:rgb(69, 69, 70);height:auto;inline-size:auto;overflow-clip-margin:0px;overflow-x:visible;overflow-y:visible;perspective-origin:0px 0px;pointer-events:bounding-box;transform:matrix(1, 0, 0, 1, -59.79, -59.79);transform-origin:0px 0px;width:auto;"/></svg>