<?xml version="1.0" standalone="no"?><!DOCTYPE svg PUBLIC "-//W3C//DTD SVG 1.1//EN" "http://www.w3.org/Graphics/SVG/1.1/DTD/svg11.dtd"><svg viewBox="0 0 575 575" class="roots-wrapper" version="1.1" xmlns="http://www.w3.org/2000/svg" xmlns:xlink="http://www.w3.org/1999/xlink" style="block-size:432.2px;height:432.2px;inline-size:432.2px;perspective-origin:216.1px 216.1px;pointer-events:bounding-box;transform-origin:216.1px 216.1px;width:432.2px;"><g transform="rotate(0 145.60419638746365 287.5)" style="block-size:auto;height:auto;inline-size:auto;overflow-clip-margin:0px;overflow-x:visible;overflow-y:visible;perspective-origin:0px 0px;pointer-events:bounding-box;transform:matrix(1, 0, 0, 1, 0, 0);transform-origin:0px 0px;width:auto;"><svg viewBoxSize="575" data-root-id="5380655244541" xmlns="http://www.w3.org/2000/svg" id="Layer_1" dataName="Layer 1" viewBox="0 0 392.41 392.41" height="111.20839277492725" width="111.20839277492725" y="231.89580361253638" x="90.00000000000003" preserveAspectRatio="xMinYMin" zoom="1" editorType="buyer" data-layer-role="icon" style="block-size:111.208px;display:block;height:111.208px;inline-size:111.208px;inset-block-start:231.896px;inset-inline-start:90px;left:90px;perspective-origin:0px 0px;pointer-events:bounding-box;top:231.896px;transform:matrix(1, 0, 0, 1, 0, 0);transform-origin:0px 0px;width:111.208px;x:90px;y:231.896px;"><path class="cls-1" d="M256,402.84a145.9,145.9,0,0,1-103.83-43A4.11,4.11,0,1,1,158,354a138.62,138.62,0,0,0,196,0,4.11,4.11,0,0,1,5.82,5.81A145.89,145.89,0,0,1,256,402.84Z" transform="translate(-59.79 -59.79)" name="Layer %{number}" zoom="1" data-layer-id="3552659444541" style="block-size:auto;d:path(&quot;M 256 402.84 A 145.9 145.9 0 0 1 152.17 359.84 A 4.11 4.11 0 1 1 158 354 A 138.62 138.62 0 0 0 354 354 A 4.11 4.11 0 0 1 359.82 359.81 A 145.89 145.89 0 0 1 256 402.84 Z&quot;);fill:rgb(69, 69, 70);height:auto;inline-size:auto;overflow-clip-margin:0px;overflow-x:visible;overflow-y:visible;perspective-origin:0px 0px;pointer-events:bounding-box;transform:matrix(1, 0, 0, 1, -59.79, -59.79);transform-origin:0px 0px;width:auto;"/><path class="cls-1" d="M144.33,349a4.1,4.1,0,0,1-3.22-1.55,145.24,145.24,0,0,1-32-91.46c0-81,65.88-146.85,146.85-146.85S402.85,175,402.85,256a145.26,145.26,0,0,1-32,91.46,4.11,4.11,0,0,1-6.43-5.13A137.14,137.14,0,0,0,394.62,256c0-76.44-62.19-138.62-138.62-138.62S117.38,179.56,117.38,256a137.19,137.19,0,0,0,30.16,86.34,4.11,4.11,0,0,1-3.21,6.67Z" transform="translate(-59.79 -59.79)" name="Layer %{number}" zoom="1" data-layer-id="9070006844541" style="block-size:auto;d:path(&quot;M 144.33 349 A 4.1 4.1 0 0 1 141.11 347.45 A 145.24 145.24 0 0 1 109.11 255.99 C 109.11 174.99 174.99 109.14 255.96 109.14 S 402.85 175 402.85 256 A 145.26 145.26 0 0 1 370.85 347.46 A 4.11 4.11 0 0 1 364.42 342.33 A 137.14 137.14 0 0 0 394.62 256 C 394.62 179.56 332.43 117.38 256 117.38 S 117.38 179.56 117.38 256 A 137.19 137.19 0 0 0 147.54 342.34 A 4.11 4.11 0 0 1 144.33 349.01 Z&quot;);fill:rgb(69, 69, 70);height:auto;inline-size:auto;overflow-clip-margin:0px;overflow-x:visible;overflow-y:visible;perspective-origin:0px 0px;pointer-events:bounding-box;transform:matrix(1, 0, 0, 1, -59.79, -59.79);transform-origin:0px 0px;width:auto;"/><path class="cls-1" d="M265.6,117.38a4.11,4.11,0,0,1-4.12-4.11V73.5a5.49,5.49,0,0,0-11,0v39.77a4.11,4.11,0,1,1-8.22,0V73.5a13.71,13.71,0,1,1,27.42,0v39.77A4.11,4.11,0,0,1,265.6,117.38Z" transform="translate(-59.79 -59.79)" name="Layer %{number}" zoom="1" data-layer-id="4876292644541" style="block-size:auto;d:path(&quot;M 265.6 117.38 A 4.11 4.11 0 0 1 261.48 113.27 V 73.5 A 5.49 5.49 0 0 0 250.48 73.5 V 113.27 A 4.11 4.11 0 1 1 242.26 113.27 V 73.5 A 13.71 13.71 0 1 1 269.68 73.5 V 113.27 A 4.11 4.11 0 0 1 265.6 117.38 Z&quot;);fill:rgb(69, 69, 70);height:auto;inline-size:auto;overflow-clip-margin:0px;overflow-x:visible;overflow-y:visible;perspective-origin:0px 0px;pointer-events:bounding-box;transform:matrix(1, 0, 0, 1, -59.79, -59.79);transform-origin:0px 0px;width:auto;"/><path class="cls-1" d="M256,452.21a13.73,13.73,0,0,1-13.71-13.71V398.73a4.11,4.11,0,1,1,8.22,0V438.5a5.49,5.49,0,0,0,11,0V398.73a4.12,4.12,0,0,1,8.23,0V438.5A13.73,13.73,0,0,1,256,452.21Z" transform="translate(-59.79 -59.79)" name="Layer %{number}" zoom="1" data-layer-id="8341556744541" style="block-size:auto;d:path(&quot;M 256 452.21 A 13.73 13.73 0 0 1 242.29 438.5 V 398.73 A 4.11 4.11 0 1 1 250.51 398.73 V 438.5 A 5.49 5.49 0 0 0 261.51 438.5 V 398.73 A 4.12 4.12 0 0 1 269.74 398.73 V 438.5 A 13.73 13.73 0 0 1 256 452.21 Z&quot;);fill:rgb(69, 69, 70);height:auto;inline-size:auto;overflow-clip-margin:0px;overflow-x:visible;overflow-y:visible;perspective-origin:0px 0px;pointer-events:bounding-box;transform:matrix(1, 0, 0, 1, -59.79, -59.79);transform-origin:0px 0px;width:auto;"/><path class="cls-1" d="M113.27,269.71H73.5a13.71,13.71,0,0,1,0-27.42h39.77a4.11,4.11,0,1,1,0,8.22H73.5a5.49,5.49,0,0,0,0,11h39.77a4.12,4.12,0,0,1,0,8.23Z" transform="translate(-59.79 -59.79)" name="Layer %{number}" zoom="1" data-layer-id="3877874744541" style="block-size:auto;d:path(&quot;M 113.27 269.71 H 73.5 A 13.71 13.71 0 0 1 73.5 242.29 H 113.27 A 4.11 4.11 0 1 1 113.27 250.51 H 73.5 A 5.49 5.49 0 0 0 73.5 261.51 H 113.27 A 4.12 4.12 0 0 1 113.27 269.74 Z&quot;);fill:rgb(69, 69, 70);height:auto;inline-size:auto;overflow-clip-margin:0px;overflow-x:visible;overflow-y:visible;perspective-origin:0px 0px;pointer-events:bounding-box;transform:matrix(1, 0, 0, 1, -59.79, -59.79);transform-origin:0px 0px;width:auto;"/><path class="cls-1" d="M438.5,269.71H398.73a4.12,4.12,0,0,1,0-8.23H438.5a5.49,5.49,0,0,0,0-11H398.73a4.11,4.11,0,0,1,0-8.22H438.5a13.71,13.71,0,0,1,0,27.42Z" transform="translate(-59.79 -59.79)" name="Layer %{number}" zoom="1" data-layer-id="6696208144541" style="block-size:auto;d:path(&quot;M 438.5 269.71 H 398.73 A 4.12 4.12 0 0 1 398.73 261.48 H 438.5 A 5.49 5.49 0 0 0 438.5 250.48 H 398.73 A 4.11 4.11 0 0 1 398.73 242.26 H 438.5 A 13.71 13.71 0 0 1 438.5 269.68 Z&quot;);fill:rgb(69, 69, 70);height:auto;inline-size:auto;overflow-clip-margin:0px;overflow-x:visible;overflow-y:visible;perspective-origin:0px 0px;pointer-events:bounding-box;transform:matrix(1, 0, 0, 1, -59.79, -59.79);transform-origin:0px 0px;width:auto;"/><path class="cls-1" d="M256,402.84a4.11,4.11,0,0,1-4.11-4.11V118.84a4.11,4.11,0,0,1,8.22,0V398.73A4.11,4.11,0,0,1,256,402.84Z" transform="translate(-59.79 -59.79)" name="Layer %{number}" zoom="1" data-layer-id="3530043344541" style="block-size:auto;d:path(&quot;M 256 402.84 A 4.11 4.11 0 0 1 251.89 398.73 V 118.84 A 4.11 4.11 0 0 1 260.11 118.84 V 398.73 A 4.11 4.11 0 0 1 256 402.84 Z&quot;);fill:rgb(69, 69, 70);height:auto;inline-size:auto;overflow-clip-margin:0px;overflow-x:visible;overflow-y:visible;perspective-origin:0px 0px;pointer-events:bounding-box;transform:matrix(1, 0, 0, 1, -59.79, -59.79);transform-origin:0px 0px;width:auto;"/><path class="cls-1" d="M396.68,260.11H113.27a4.11,4.11,0,1,1,0-8.22H396.68a4.11,4.11,0,1,1,0,8.22Z" transform="translate(-59.79 -59.79)" name="Layer %{number}" zoom="1" data-layer-id="8102708844541" style="block-size:auto;d:path(&quot;M 396.68 260.11 H 113.27 A 4.11 4.11 0 1 1 113.27 251.89 H 396.68 A 4.11 4.11 0 1 1 396.68 260.11 Z&quot;);fill:rgb(69, 69, 70);height:auto;inline-size:auto;overflow-clip-margin:0px;overflow-x:visible;overflow-y:visible;perspective-origin:0px 0px;pointer-events:bounding-box;transform:matrix(1, 0, 0, 1, -59.79, -59.79);transform-origin:0px 0px;width:auto;"/><path class="cls-1" d="M386.94,391.05a4.07,4.07,0,0,1-2.91-1.21l-128-128-128,128a4.11,4.11,0,0,1-6.61-4.69l83.87-174.1L152.17,158a4.11,4.11,0,0,1,5.81-5.82l51,51,43.28-89.84a4.12,4.12,0,0,1,7.42,0L303,203.2l51-51a4.12,4.12,0,0,1,5.82,5.82l-53.07,53.07,83.87,174.1a4.12,4.12,0,0,1-3.7,5.9ZM211.39,217.21,139.28,366.9,250.18,256ZM261.82,256l110.9,110.9L300.6,217.21Zm-46.64-46.64L256,250.18l40.82-40.82L256,124.62Z" transform="translate(-59.79 -59.79)" name="Layer %{number}" zoom="1" data-layer-id="1233040644541" style="block-size:auto;d:path(&quot;M 386.94 391.05 A 4.07 4.07 0 0 1 384.03 389.84 L 256.03 261.84 L 128.03 389.84 A 4.11 4.11 0 0 1 121.42 385.15 L 205.29 211.05 L 152.17 158 A 4.11 4.11 0 0 1 157.98 152.18 L 208.98 203.18 L 252.26 113.34 A 4.12 4.12 0 0 1 259.68 113.34 L 303 203.2 L 354 152.2 A 4.12 4.12 0 0 1 359.82 158.02 L 306.75 211.09 L 390.62 385.19 A 4.12 4.12 0 0 1 386.92 391.09 Z M 211.39 217.21 L 139.28 366.9 L 250.18 256 Z M 261.82 256 L 372.72 366.9 L 300.6 217.21 Z M 215.18 209.36 L 256 250.18 L 296.82 209.36 L 256 124.62 Z&quot;);fill:rgb(69, 69, 70);height:auto;inline-size:auto;overflow-clip-margin:0px;overflow-x:visible;overflow-y:visible;perspective-origin:0px 0px;pointer-events:bounding-box;transform:matrix(1, 0, 0, 1, -59.79, -59.79);transform-origin:0px 0px;width:auto;"/><path class="cls-1" d="M256,366.26a110.27,110.27,0,0,1-18.08-219,4.11,4.11,0,1,1,1.34,8.12,102,102,0,1,0,33.48,0,4.11,4.11,0,1,1,1.34-8.12A110.27,110.27,0,0,1,256,366.26Z" transform="translate(-59.79 -59.79)" name="Layer %{number}" zoom="1" data-layer-id="5062024744541" style="block-size:auto;d:path(&quot;M 256 366.26 A 110.27 110.27 0 0 1 237.92 147.26 A 4.11 4.11 0 1 1 239.26 155.38 A 102 102 0 1 0 272.74 155.38 A 4.11 4.11 0 1 1 274.08 147.26 A 110.27 110.27 0 0 1 256 366.26 Z&quot;);fill:rgb(69, 69, 70);height:auto;inline-size:auto;overflow-clip-margin:0px;overflow-x:visible;overflow-y:visible;perspective-origin:0px 0px;pointer-events:bounding-box;transform:matrix(1, 0, 0, 1, -59.79, -59.79);transform-origin:0px 0px;width:auto;"/><circle class="cls-1" cx="196.21" cy="196.21" r="27.03" name="Layer %{number}" zoom="1" data-layer-id="1436112244541" style="block-size:auto;cx:196.21px;cy:196.21px;fill:rgb(69, 69, 70);height:auto;inline-size:auto;overflow-clip-margin:0px;overflow-x:visible;overflow-y:visible;perspective-origin:0px 0px;pointer-events:bounding-box;r:27.03px;transform-origin:0px 0px;width:auto;"/><path class="cls-1" d="M148.51,166.19a4.09,4.09,0,0,1-2.91-1.2l-28.34-28.34a13.71,13.71,0,0,1,19.39-19.39L165,145.6a4.12,4.12,0,0,1-5.82,5.82l-28.34-28.34a5.48,5.48,0,0,0-7.75,0,5.47,5.47,0,0,0,0,7.75l28.33,28.34a4.11,4.11,0,0,1-2.9,7Z" transform="translate(-59.79 -59.79)" name="Layer %{number}" zoom="1" data-layer-id="2456663144541" style="block-size:auto;d:path(&quot;M 148.51 166.19 A 4.09 4.09 0 0 1 145.6 164.99 L 117.26 136.65 A 13.71 13.71 0 0 1 136.65 117.26 L 165 145.6 A 4.12 4.12 0 0 1 159.18 151.42 L 130.84 123.08 A 5.48 5.48 0 0 0 123.09 123.08 A 5.47 5.47 0 0 0 123.09 130.83 L 151.42 159.17 A 4.11 4.11 0 0 1 148.52 166.17 Z&quot;);fill:rgb(69, 69, 70);height:auto;inline-size:auto;overflow-clip-margin:0px;overflow-x:visible;overflow-y:visible;perspective-origin:0px 0px;pointer-events:bounding-box;transform:matrix(1, 0, 0, 1, -59.79, -59.79);transform-origin:0px 0px;width:auto;"/><path class="cls-1" d="M363.49,166.2a4.11,4.11,0,0,1-2.91-7l28.34-28.35a5.48,5.48,0,0,0-7.75-7.75l-28.35,28.34a4.11,4.11,0,1,1-5.82-5.81l28.35-28.35a13.71,13.71,0,0,1,19.39,19.39L366.39,165A4.09,4.09,0,0,1,363.49,166.2Z" transform="translate(-59.79 -59.79)" name="Layer %{number}" zoom="1" data-layer-id="1606198744541" style="block-size:auto;d:path(&quot;M 363.49 166.2 A 4.11 4.11 0 0 1 360.58 159.2 L 388.92 130.85 A 5.48 5.48 0 0 0 381.17 123.1 L 352.82 151.44 A 4.11 4.11 0 1 1 347 145.63 L 375.35 117.28 A 13.71 13.71 0 0 1 394.74 136.67 L 366.39 165 A 4.09 4.09 0 0 1 363.49 166.2 Z&quot;);fill:rgb(69, 69, 70);height:auto;inline-size:auto;overflow-clip-margin:0px;overflow-x:visible;overflow-y:visible;perspective-origin:0px 0px;pointer-events:bounding-box;transform:matrix(1, 0, 0, 1, -59.79, -59.79);transform-origin:0px 0px;width:auto;"/></svg></g><g transform="rotate(0 353.3635 312.116)" style="block-size:auto;height:auto;inline-size:auto;overflow-clip-margin:0px;overflow-x:visible;overflow-y:visible;perspective-origin:0px 0px;pointer-events:bounding-box;transform:matrix(1, 0, 0, 1, 0, 0);transform-origin:0px 0px;width:auto;"><svg viewBoxSize="575" data-root-id="1992544547213" xmlns="http://www.w3.org/2000/svg" y="298.1760057063931" viewBox="1.0626516342163086 5.869999885559082 259.8269348144531 27.880001068115234" x="223.45007132991276" height="27.880001068115234" width="259.8269348144531" fontUrl="https://fonts.gstatic.com/s/courgette/v17/wEO_EBrAnc9BLjLQAUkFUfAL3EsHiA.ttf" zoom="1" editorType="buyer" data-layer-role="slogan" style="block-size:27.88px;display:block;height:27.88px;inline-size:259.827px;inset-block-start:298.176px;inset-inline-start:223.45px;left:223.45px;perspective-origin:0px 0px;pointer-events:bounding-box;top:298.176px;transform:matrix(1, 0, 0, 1, 0, 0);transform-origin:0px 0px;width:259.827px;x:223.45px;y:298.176px;"><g data-horizontal-grow="left" zoom="1" root="[object Object]" style="block-size:auto;height:auto;inline-size:auto;overflow-clip-margin:0px;overflow-x:visible;overflow-y:visible;perspective-origin:0px 0px;pointer-events:bounding-box;transform-origin:0px 0px;width:auto;"><path d="M1.09 23.26L1.09 23.26Q1.21 22.40 1.60 20.89Q1.99 19.38 2.60 17.67L2.60 17.67Q3.98 13.74 5.88 10.67L5.88 10.67Q6.14 10.24 6.55 10.18L6.55 10.18Q7.13 10.10 7.57 10.10Q8.02 10.10 8.36 10.20Q8.71 10.30 8.91 10.45L8.91 10.45Q9.31 10.78 9.04 11.15L9.04 11.15Q6.66 14.75 4.88 19.93L4.88 19.93Q4.21 21.91 4.07 22.68Q3.94 23.45 3.88 23.74Q3.82 24.02 3.82 24.23L3.82 24.23Q3.82 24.67 4.38 24.67Q4.93 24.67 5.62 24.41Q6.30 24.15 7.09 23.68Q7.88 23.22 8.73 22.54Q9.58 21.87 10.40 21.03Q11.22 20.20 11.94 19.22Q12.67 18.25 13.21 17.17L13.21 17.17Q14.41 14.79 14.41 12.48L14.41 12.48Q14.41 9.32 11.84 8.28L11.84 8.28Q10.94 7.92 9.97 7.92Q9.00 7.92 8.33 8.05Q7.66 8.17 7.04 8.40L7.04 8.40Q5.79 8.85 4.93 9.60L4.93 9.60Q4.71 9.73 4.39 9.73Q4.07 9.73 3.71 9.54Q3.35 9.36 3.06 9.08L3.06 9.08Q2.40 8.44 2.53 7.84L2.53 7.84Q2.68 7.00 5.06 6.38L5.06 6.38Q7.07 5.87 9.10 5.87Q11.13 5.87 12.76 6.42Q14.38 6.97 15.40 7.91L15.40 7.91Q17.30 9.68 17.30 12.64L17.30 12.64Q17.30 16.57 14.58 20.22L14.58 20.22Q12.09 23.61 8.65 25.37L8.65 25.37Q6.42 26.50 4.55 26.50L4.55 26.50Q3.08 26.50 2.03 25.64L2.03 25.64Q0.90 24.73 1.09 23.26ZM25.09 9.63Q24.80 9.94 24.43 10.13Q24.06 10.32 23.65 10.37Q23.24 10.42 22.88 10.24Q22.52 10.07 22.25 9.76L22.25 9.76Q21.69 9.10 21.69 8.42Q21.69 7.75 21.90 7.42Q22.12 7.08 22.45 6.87L22.45 6.87Q23.08 6.46 23.64 6.46Q24.21 6.46 24.51 6.54Q24.82 6.62 25.09 6.80L25.09 6.80Q25.73 7.24 25.73 7.86Q25.73 8.49 25.56 8.91Q25.38 9.32 25.09 9.63ZM22.39 23.90L22.39 23.90Q22.73 23.90 22.73 24.35L22.73 24.35Q22.73 24.94 22.19 25.58L22.19 25.58Q21.40 26.50 20.07 26.50L20.07 26.50Q18.54 26.50 17.97 25.26L17.97 25.26Q17.76 24.82 17.76 24.21Q17.76 23.59 17.98 22.83Q18.19 22.07 18.52 21.23Q18.84 20.40 19.22 19.54L19.22 19.54L19.92 17.88Q20.69 16.02 20.69 15.42Q20.69 14.83 20.56 14.64Q20.43 14.45 20.29 14.34L20.29 14.34L20.03 14.16Q19.89 14.07 19.89 13.84Q19.89 13.61 20.07 13.39Q20.25 13.18 20.54 13.03L20.54 13.03Q21.13 12.72 21.92 12.72L21.92 12.72Q23.86 12.72 23.86 13.74L23.86 13.74Q23.86 14.92 23.24 16.45Q22.62 17.97 22.19 18.91L22.19 18.91L21.40 20.72Q20.53 22.73 20.53 23.61L20.53 23.61Q20.53 24.19 21.11 24.19L21.11 24.19Q21.67 24.19 21.96 24.05Q22.25 23.90 22.39 23.90ZM25.06 24.05L25.06 24.05Q25.06 23.64 25.24 23.29Q25.42 22.94 25.68 22.70L25.68 22.70Q26.24 22.19 26.84 22.19L26.84 22.19Q27.37 22.19 27.37 22.73L27.37 22.73Q27.37 24.10 28.28 24.64L28.28 24.64Q28.61 24.84 28.96 24.84Q29.32 24.84 29.57 24.76Q29.82 24.68 30.03 24.51L30.03 24.51Q30.51 24.13 30.51 23.60Q30.51 23.07 30.27 22.63Q30.03 22.19 29.68 21.70L29.68 21.70L28.92 20.65Q27.34 18.54 27.34 16.76L27.34 16.76Q27.34 15.28 28.60 14.08L28.60 14.08Q30.02 12.72 32.25 12.72L32.25 12.72Q34.20 12.72 35.29 13.68L35.29 13.68Q36.19 14.46 36.19 15.46L36.19 15.46Q36.19 16.51 35.40 17.13L35.40 17.13Q34.69 17.68 33.97 17.53L33.97 17.53Q33.66 17.47 33.49 17.21Q33.31 16.95 33.42 16.62Q33.53 16.29 33.53 15.94Q33.53 15.58 33.39 15.28Q33.26 14.98 33.04 14.77L33.04 14.77Q32.58 14.33 32.07 14.33Q31.56 14.33 31.23 14.44Q30.90 14.55 30.65 14.77L30.65 14.77Q30.14 15.24 30.14 15.93Q30.14 16.62 30.38 17.13Q30.61 17.63 30.96 18.13Q31.31 18.63 31.72 19.14Q32.13 19.66 32.47 20.22L32.47 20.22Q33.30 21.56 33.30 22.56Q33.30 23.57 32.88 24.25Q32.46 24.93 31.79 25.42L31.79 25.42Q30.35 26.49 28.57 26.49L28.57 26.49Q26.87 26.49 25.88 25.67L25.88 25.67Q25.06 24.98 25.06 24.05ZM37.02 21.82L37.02 21.82Q37.05 20.67 37.38 19.53Q37.72 18.39 38.28 17.38Q38.84 16.36 39.61 15.50Q40.38 14.65 41.29 14.03L41.29 14.03Q43.19 12.72 45.29 12.72L45.29 12.72Q47.45 12.72 48.23 14.45L48.23 14.45Q48.50 15.07 48.48 15.85Q48.46 16.64 48.23 17.29Q47.99 17.94 47.63 18.46L47.63 18.46Q46.83 19.62 46.01 19.62L46.01 19.62Q45.10 19.62 44.67 19.12L44.67 19.12Q44.28 18.68 44.43 18.10L44.43 18.10Q44.47 17.93 44.67 17.79Q44.86 17.65 45.17 17.35L45.17 17.35Q46.02 16.45 46.06 15.25L46.06 15.25Q46.09 14.44 45.06 14.44L45.06 14.44Q43.95 14.44 42.74 15.68L42.74 15.68Q40.97 17.48 40.25 20.30L40.25 20.30Q39.62 22.75 40.49 23.89L40.49 23.89Q41.00 24.55 41.88 24.55L41.88 24.55Q43.37 24.55 44.76 23.49L44.76 23.49Q45.18 23.16 45.44 22.82Q45.71 22.48 45.93 22.48Q46.16 22.48 46.31 22.70Q46.46 22.91 46.46 23.26L46.46 23.26Q46.46 24.03 45.76 24.79L45.76 24.79Q43.97 26.50 41.45 26.50L41.45 26.50Q39.30 26.50 38.13 25.27L38.13 25.27Q36.97 24.06 37.02 21.82ZM50.90 25.47Q50.35 24.94 50.03 24.13Q49.72 23.32 49.70 22.21Q49.69 21.11 49.97 19.97Q50.26 18.84 50.78 17.78Q51.30 16.73 52.03 15.81Q52.76 14.88 53.64 14.20L53.64 14.20Q55.57 12.72 57.64 12.72L57.64 12.72Q60.35 12.72 61.32 15.11L61.32 15.11Q62.00 16.84 61.40 19.29L61.40 19.29Q60.84 21.54 59.37 23.43L59.37 23.43Q57.90 25.31 55.91 26.10L55.91 26.10Q54.91 26.50 53.94 26.50Q52.97 26.50 52.21 26.25Q51.46 26.00 50.90 25.47ZM53.42 19.08Q53.02 20.05 52.79 21.08Q52.56 22.11 52.58 23.03Q52.59 23.94 52.86 24.46Q53.13 24.98 53.74 24.98Q54.34 24.98 54.93 24.57Q55.52 24.15 56.07 23.47Q56.62 22.78 57.11 21.88Q57.60 20.99 57.97 20.01L57.97 20.01Q58.77 17.89 58.75 16.24L58.75 16.24Q58.75 14.79 58.15 14.40L58.15 14.40Q57.92 14.24 57.49 14.24Q57.06 14.24 56.50 14.63Q55.95 15.02 55.40 15.68Q54.84 16.33 54.33 17.22Q53.82 18.10 53.42 19.08ZM63.62 25.09L63.62 25.09Q63.43 24.65 63.43 24.06Q63.43 23.47 63.61 22.75Q63.80 22.03 64.09 21.28Q64.38 20.53 64.73 19.75L64.73 19.75L65.40 18.22Q66.71 15.20 66.37 14.66L66.37 14.66Q66.21 14.41 65.76 14.16L65.76 14.16Q65.61 14.07 65.61 13.84Q65.61 13.61 65.81 13.39Q66.00 13.18 66.31 13.03L66.31 13.03Q66.95 12.72 67.59 12.72Q68.24 12.72 68.57 12.86Q68.91 13.00 69.13 13.21L69.13 13.21Q69.56 13.65 69.56 14.26Q69.56 14.88 69.32 15.66Q69.08 16.44 68.73 17.30Q68.37 18.15 67.95 19.05L67.95 19.05L67.17 20.78Q66.34 22.69 66.34 23.31L66.34 23.31Q66.34 24.52 67.20 24.52L67.20 24.52Q69.40 24.52 71.32 21.91L71.32 21.91Q72.44 20.40 72.93 18.62L72.93 18.62Q73.16 17.77 73.16 17.08Q73.16 16.39 73.11 15.93Q73.06 15.46 72.96 15.11L72.96 15.11Q72.79 14.48 72.38 14.01L72.38 14.01Q72.10 13.67 72.63 13.21L72.63 13.21Q73.21 12.72 74.28 12.72L74.28 12.72Q74.94 12.72 75.44 13.34L75.44 13.34Q76.07 14.08 76.07 15.46Q76.07 16.84 75.66 18.16Q75.25 19.49 74.54 20.70Q73.83 21.92 72.86 22.98Q71.89 24.03 70.77 24.81L70.77 24.81Q68.37 26.50 65.97 26.50L65.97 26.50Q64.24 26.50 63.62 25.09ZM77.41 21.75L77.41 21.75Q77.47 20.61 77.80 19.56Q78.13 18.51 78.68 17.53Q79.23 16.55 79.98 15.67Q80.72 14.79 81.59 14.13L81.59 14.13Q83.48 12.72 85.40 12.72L85.40 12.72Q87.66 12.72 88.41 14.58L88.41 14.58Q88.67 15.21 88.66 16.08Q88.65 16.94 88.33 17.67Q88.01 18.40 87.45 19.00Q86.89 19.60 86.12 20.08Q85.35 20.55 84.44 20.88L84.44 20.88Q82.57 21.54 80.43 21.57L80.43 21.57Q80.38 21.75 80.37 22.12Q80.35 22.49 80.45 22.95Q80.54 23.40 80.76 23.76L80.76 23.76Q81.24 24.55 82.13 24.55L82.13 24.55Q83.66 24.55 85.11 23.65L85.11 23.65Q85.63 23.35 85.95 23.03Q86.27 22.70 86.51 22.70Q86.75 22.70 86.93 22.99Q87.10 23.27 87.10 23.63L87.10 23.63Q87.10 24.32 86.71 24.84L86.71 24.84Q85.05 26.50 81.76 26.50L81.76 26.50Q79.83 26.50 78.65 25.34L78.65 25.34Q77.33 24.02 77.41 21.75ZM85.11 14.48L85.11 14.48Q83.73 14.48 82.45 16.37L82.45 16.37Q81.37 18.01 80.71 20.25L80.71 20.25Q82.91 20.03 84.53 18.51L84.53 18.51Q86.02 17.09 86.02 15.78Q86.02 14.48 85.11 14.48ZM90.14 26.05Q89.87 25.85 89.71 25.61Q89.56 25.37 89.54 25.19Q89.53 25.01 89.62 24.75Q89.70 24.50 89.85 24.13L89.85 24.13Q92.54 17.51 92.54 15.24L92.54 15.24Q92.50 14.61 92.10 14.34L92.10 14.34L91.84 14.16Q91.72 14.07 91.71 13.84Q91.71 13.61 91.88 13.39Q92.05 13.18 92.32 13.03L92.32 13.03Q92.89 12.72 93.49 12.72Q94.09 12.72 94.43 12.85Q94.76 12.99 95.00 13.21L95.00 13.21Q95.50 13.68 95.51 14.21Q95.52 14.74 95.39 15.28Q95.26 15.82 95.09 16.34Q94.92 16.86 94.75 17.33Q94.58 17.80 94.53 18.02L94.53 18.02Q94.42 18.48 94.45 18.60L94.45 18.60Q94.76 18.33 94.83 18.06L94.83 18.06L95.34 17.09Q97.06 14.00 98.69 13.00L98.69 13.00Q99.17 12.72 99.83 12.72Q100.50 12.72 100.91 13.19Q101.32 13.66 101.34 14.23Q101.36 14.79 101.26 15.17Q101.16 15.54 100.96 15.87L100.96 15.87Q100.52 16.61 99.91 16.61L99.91 16.61Q99.73 16.61 99.59 16.49L99.59 16.49L99.30 16.24Q98.86 15.86 98.46 15.86Q98.06 15.86 97.49 16.39Q96.91 16.91 96.29 17.75L96.29 17.75Q94.21 20.50 92.89 23.92L92.89 23.92L92.31 25.44Q92.09 26.01 91.92 26.26Q91.74 26.50 91.41 26.50Q91.07 26.50 90.74 26.37Q90.40 26.25 90.14 26.05ZM111.86 22.70L111.86 22.90Q111.86 24.15 112.81 24.15L112.81 24.15Q114.55 24.15 117.33 19.79L117.33 19.79Q118.16 18.50 119.00 17.06L119.00 17.06L120.60 14.11Q124.06 7.42 124.58 6.49L124.58 6.49Q124.85 6.01 125.34 6.01Q125.82 6.01 126.15 6.15Q126.48 6.29 126.72 6.51L126.72 6.51Q127.27 7.04 127.00 7.57L127.00 7.57Q126.07 9.28 125.28 11.40L125.28 11.40L121.99 20.59Q121.46 21.99 120.89 23.29Q120.33 24.59 119.62 25.87Q118.92 27.15 118.11 28.31Q117.31 29.47 116.42 30.46Q115.54 31.46 114.62 32.19L114.62 32.19Q112.65 33.75 110.86 33.75L110.86 33.75Q110.52 33.75 110.19 33.59Q109.86 33.43 109.79 33.14Q109.73 32.85 109.89 32.75Q110.04 32.64 110.31 32.54L110.31 32.54Q113.95 31.18 117.18 25.29L117.18 25.29Q118.13 23.55 118.93 21.66L118.93 21.66Q119.85 19.22 120.12 18.47L120.12 18.47L118.78 20.50Q114.63 26.50 111.73 26.50L111.73 26.50Q109.77 26.50 109.11 24.79L109.11 24.79Q108.91 24.24 108.91 23.86L108.91 23.86L108.91 23.36Q108.91 21.77 110.77 17.30L110.77 17.30L113.51 10.92Q114.30 9.00 114.30 8.56Q114.30 8.12 114.14 7.90Q113.99 7.67 113.79 7.54L113.79 7.54L113.43 7.28Q113.27 7.17 113.27 6.96Q113.27 6.75 113.48 6.54Q113.70 6.33 114.04 6.17L114.04 6.17Q114.72 5.87 115.39 5.87Q116.06 5.87 116.42 6.01Q116.78 6.14 117.02 6.35L117.02 6.35Q117.48 6.79 117.48 7.40Q117.48 8.02 117.25 8.85Q117.02 9.68 116.64 10.66Q116.27 11.64 115.78 12.74L115.78 12.74L113.77 17.14Q111.86 21.34 111.86 22.70L111.86 22.70ZM126.29 25.47Q125.73 24.94 125.42 24.13Q125.10 23.32 125.09 22.21Q125.07 21.11 125.36 19.97Q125.64 18.84 126.16 17.78Q126.68 16.73 127.41 15.81Q128.14 14.88 129.03 14.20L129.03 14.20Q130.95 12.72 133.02 12.72L133.02 12.72Q135.74 12.72 136.70 15.11L136.70 15.11Q137.39 16.84 136.78 19.29L136.78 19.29Q136.23 21.54 134.75 23.43L134.75 23.43Q133.29 25.31 131.30 26.10L131.30 26.10Q130.29 26.50 129.32 26.50Q128.36 26.50 127.60 26.25Q126.84 26.00 126.29 25.47ZM128.80 19.08Q128.41 20.05 128.18 21.08Q127.95 22.11 127.96 23.03Q127.97 23.94 128.24 24.46Q128.51 24.98 129.12 24.98Q129.73 24.98 130.31 24.57Q130.90 24.15 131.45 23.47Q132.01 22.78 132.50 21.88Q132.98 20.99 133.35 20.01L133.35 20.01Q134.16 17.89 134.13 16.24L134.13 16.24Q134.13 14.79 133.54 14.40L133.54 14.40Q133.30 14.24 132.87 14.24Q132.44 14.24 131.89 14.63Q131.33 15.02 130.78 15.68Q130.23 16.33 129.71 17.22Q129.20 18.10 128.80 19.08ZM151.26 23.77L151.26 23.77Q151.56 23.77 151.56 24.07L151.56 24.07Q151.56 25.22 150.42 26.00L150.42 26.00Q149.66 26.50 148.63 26.50L148.63 26.50Q147.79 26.50 147.34 26.10L147.34 26.10Q146.54 25.39 146.54 24.36L146.54 24.36Q146.54 23.06 147.63 20.37L147.63 20.37Q145.60 23.11 144.78 24.01Q143.96 24.92 143.36 25.42L143.36 25.42Q142.04 26.50 140.97 26.50L140.97 26.50Q139.34 26.50 138.80 25.09L138.80 25.09Q138.64 24.65 138.64 24.09Q138.64 23.53 138.83 22.84Q139.02 22.15 139.32 21.40Q139.63 20.65 139.98 19.85L139.98 19.85L140.70 18.27Q142.07 15.23 141.71 14.66L141.71 14.66Q141.55 14.41 141.12 14.16L141.12 14.16Q140.96 14.07 140.96 13.84Q140.96 13.61 141.15 13.39Q141.34 13.18 141.64 13.03L141.64 13.03Q142.29 12.72 142.94 12.72Q143.58 12.72 143.92 12.86Q144.25 13.00 144.47 13.21L144.47 13.21Q144.90 13.65 144.90 14.17Q144.90 14.70 144.73 15.35Q144.56 16.00 144.28 16.77Q144.00 17.53 143.67 18.35L143.67 18.35Q142.77 20.49 142.45 21.17L142.45 21.17L141.96 22.19Q141.55 23.10 141.55 23.47Q141.55 23.84 141.67 23.99Q141.79 24.14 142.10 24.14Q142.41 24.14 142.82 23.85Q143.23 23.56 143.71 23.07Q144.20 22.58 144.73 21.94Q145.26 21.30 145.76 20.62L145.76 20.62Q146.75 19.27 147.21 18.46L147.21 18.46Q150.00 13.51 150.19 13.29L150.19 13.29Q150.61 12.72 151.05 12.72Q151.49 12.72 151.82 12.82Q152.15 12.92 152.39 13.10L152.39 13.10Q152.94 13.51 152.75 13.92L152.75 13.92Q149.53 20.63 149.28 22.36L149.28 22.36Q149.21 22.95 149.21 23.18L149.21 23.18Q149.21 24.18 149.82 24.18L149.82 24.18Q150.39 24.18 150.75 23.97Q151.12 23.77 151.26 23.77ZM153.93 26.05Q153.67 25.85 153.51 25.61Q153.35 25.37 153.34 25.19Q153.33 25.01 153.41 24.75Q153.50 24.50 153.64 24.13L153.64 24.13Q156.33 17.51 156.33 15.24L156.33 15.24Q156.29 14.61 155.90 14.34L155.90 14.34L155.63 14.16Q155.51 14.07 155.51 13.84Q155.50 13.61 155.67 13.39Q155.84 13.18 156.12 13.03L156.12 13.03Q156.69 12.72 157.29 12.72Q157.89 12.72 158.22 12.85Q158.56 12.99 158.80 13.21L158.80 13.21Q159.30 13.68 159.30 14.21Q159.31 14.74 159.19 15.28Q159.06 15.82 158.89 16.34Q158.72 16.86 158.55 17.33Q158.37 17.80 158.32 18.02L158.32 18.02Q158.22 18.48 158.24 18.60L158.24 18.60Q158.56 18.33 158.63 18.06L158.63 18.06L159.14 17.09Q160.85 14.00 162.49 13.00L162.49 13.00Q162.96 12.72 163.63 12.72Q164.29 12.72 164.70 13.19Q165.11 13.66 165.13 14.23Q165.15 14.79 165.05 15.17Q164.95 15.54 164.76 15.87L164.76 15.87Q164.32 16.61 163.70 16.61L163.70 16.61Q163.53 16.61 163.38 16.49L163.38 16.49L163.09 16.24Q162.66 15.86 162.26 15.86Q161.85 15.86 161.28 16.39Q160.71 16.91 160.09 17.75L160.09 17.75Q158.01 20.50 156.69 23.92L156.69 23.92L156.11 25.44Q155.88 26.01 155.71 26.26Q155.54 26.50 155.20 26.50Q154.87 26.50 154.53 26.37Q154.20 26.25 153.93 26.05ZM173.34 23.26L173.34 23.26Q173.46 22.40 173.85 20.89Q174.23 19.38 174.84 17.67L174.84 17.67Q176.23 13.74 178.12 10.67L178.12 10.67Q178.39 10.24 178.80 10.18L178.80 10.18Q179.38 10.10 179.82 10.10Q180.26 10.10 180.61 10.20Q180.96 10.30 181.16 10.45L181.16 10.45Q181.55 10.78 181.29 11.15L181.29 11.15Q178.90 14.75 177.12 19.93L177.12 19.93Q176.45 21.91 176.32 22.68Q176.19 23.45 176.13 23.74Q176.07 24.02 176.07 24.23L176.07 24.23Q176.07 24.67 176.62 24.67Q177.17 24.67 177.86 24.41Q178.55 24.15 179.34 23.68Q180.13 23.22 180.98 22.54Q181.83 21.87 182.65 21.03Q183.46 20.20 184.19 19.22Q184.91 18.25 185.45 17.17L185.45 17.17Q186.65 14.79 186.65 12.48L186.65 12.48Q186.65 9.32 184.08 8.28L184.08 8.28Q183.19 7.92 182.22 7.92Q181.25 7.92 180.58 8.05Q179.90 8.17 179.28 8.40L179.28 8.40Q178.03 8.85 177.17 9.60L177.17 9.60Q176.95 9.73 176.63 9.73Q176.32 9.73 175.95 9.54Q175.59 9.36 175.30 9.08L175.30 9.08Q174.64 8.44 174.77 7.84L174.77 7.84Q174.92 7.00 177.31 6.38L177.31 6.38Q179.31 5.87 181.34 5.87Q183.37 5.87 185.00 6.42Q186.63 6.97 187.64 7.91L187.64 7.91Q189.54 9.68 189.54 12.64L189.54 12.64Q189.54 16.57 186.82 20.22L186.82 20.22Q184.33 23.61 180.89 25.37L180.89 25.37Q178.66 26.50 176.79 26.50L176.79 26.50Q175.33 26.50 174.27 25.64L174.27 25.64Q173.14 24.73 173.34 23.26ZM190.27 21.75L190.27 21.75Q190.32 20.61 190.65 19.56Q190.98 18.51 191.53 17.53Q192.08 16.55 192.83 15.67Q193.57 14.79 194.44 14.13L194.44 14.13Q196.33 12.72 198.25 12.72L198.25 12.72Q200.51 12.72 201.26 14.58L201.26 14.58Q201.52 15.21 201.51 16.08Q201.50 16.94 201.18 17.67Q200.87 18.40 200.30 19.00Q199.74 19.60 198.97 20.08Q198.20 20.55 197.29 20.88L197.29 20.88Q195.42 21.54 193.28 21.57L193.28 21.57Q193.23 21.75 193.22 22.12Q193.21 22.49 193.30 22.95Q193.39 23.40 193.61 23.76L193.61 23.76Q194.09 24.55 194.99 24.55L194.99 24.55Q196.51 24.55 197.96 23.65L197.96 23.65Q198.48 23.35 198.80 23.03Q199.13 22.70 199.36 22.70Q199.60 22.70 199.78 22.99Q199.96 23.27 199.96 23.63L199.96 23.63Q199.96 24.32 199.56 24.84L199.56 24.84Q197.90 26.50 194.62 26.50L194.62 26.50Q192.68 26.50 191.50 25.34L191.50 25.34Q190.19 24.02 190.27 21.75ZM197.96 14.48L197.96 14.48Q196.58 14.48 195.30 16.37L195.30 16.37Q194.22 18.01 193.56 20.25L193.56 20.25Q195.76 20.03 197.38 18.51L197.38 18.51Q198.87 17.09 198.87 15.78Q198.87 14.48 197.96 14.48ZM202.32 24.05L202.32 24.05Q202.32 23.64 202.49 23.29Q202.67 22.94 202.94 22.70L202.94 22.70Q203.49 22.19 204.10 22.19L204.10 22.19Q204.62 22.19 204.62 22.73L204.62 22.73Q204.62 24.10 205.53 24.64L205.53 24.64Q205.86 24.84 206.22 24.84Q206.57 24.84 206.82 24.76Q207.07 24.68 207.29 24.51L207.29 24.51Q207.76 24.13 207.76 23.60Q207.76 23.07 207.52 22.63Q207.29 22.19 206.93 21.70L206.93 21.70L206.18 20.65Q204.60 18.54 204.60 16.76L204.60 16.76Q204.60 15.28 205.85 14.08L205.85 14.08Q207.27 12.72 209.50 12.72L209.50 12.72Q211.45 12.72 212.55 13.68L212.55 13.68Q213.44 14.46 213.44 15.46L213.44 15.46Q213.44 16.51 212.65 17.13L212.65 17.13Q211.94 17.68 211.23 17.53L211.23 17.53Q210.91 17.47 210.74 17.21Q210.57 16.95 210.67 16.62Q210.78 16.29 210.78 15.94Q210.78 15.58 210.65 15.28Q210.52 14.98 210.29 14.77L210.29 14.77Q209.83 14.33 209.32 14.33Q208.81 14.33 208.49 14.44Q208.16 14.55 207.91 14.77L207.91 14.77Q207.39 15.24 207.39 15.93Q207.39 16.62 207.63 17.13Q207.87 17.63 208.22 18.13Q208.56 18.63 208.97 19.14Q209.38 19.66 209.72 20.22L209.72 20.22Q210.56 21.56 210.56 22.56Q210.56 23.57 210.13 24.25Q209.71 24.93 209.04 25.42L209.04 25.42Q207.60 26.49 205.82 26.49L205.82 26.49Q204.12 26.49 203.13 25.67L203.13 25.67Q202.32 24.98 202.32 24.05ZM221.38 22.91L221.38 22.91Q221.76 22.91 221.76 23.43L221.76 23.43Q221.76 23.86 221.50 24.27L221.50 24.27Q221.14 25.04 220.07 25.72L220.07 25.72Q218.86 26.50 217.63 26.50L217.63 26.50Q215.51 26.50 214.95 24.60L214.95 24.60Q214.27 22.35 216.96 15.04L216.96 15.04Q215.45 14.91 215.31 14.52L215.31 14.52Q215.27 14.40 215.27 14.26Q215.27 14.12 215.40 13.94Q215.53 13.75 215.72 13.58L215.72 13.58Q216.18 13.20 216.66 13.20L216.66 13.20L217.70 13.20Q219.12 9.86 219.73 9.40L219.73 9.40Q220.02 9.19 220.38 9.19Q220.73 9.19 220.97 9.28Q221.21 9.37 221.39 9.54L221.39 9.54Q221.81 9.94 221.81 10.43L221.81 10.43Q221.81 10.69 221.66 11.03L221.66 11.03L220.68 13.16L221.00 13.16Q221.81 13.16 222.31 13.14L222.31 13.14Q222.31 13.14 223.07 13.13L223.07 13.13Q223.32 13.12 223.69 13.12Q224.07 13.12 224.07 13.39L224.07 13.39Q224.07 15.13 219.96 15.13L219.96 15.13L219.85 15.13L218.95 17.46Q217.44 21.57 217.44 23.22L217.44 23.22Q217.44 23.68 217.65 23.93Q217.86 24.19 218.44 24.19Q219.02 24.19 219.49 23.99Q219.97 23.80 220.32 23.55Q220.68 23.31 220.94 23.11Q221.19 22.91 221.38 22.91ZM231.19 9.63Q230.90 9.94 230.53 10.13Q230.16 10.32 229.75 10.37Q229.34 10.42 228.98 10.24Q228.62 10.07 228.35 9.76L228.35 9.76Q227.79 9.10 227.79 8.42Q227.79 7.75 228.00 7.42Q228.22 7.08 228.55 6.87L228.55 6.87Q229.18 6.46 229.74 6.46Q230.30 6.46 230.61 6.54Q230.92 6.62 231.19 6.80L231.19 6.80Q231.83 7.24 231.83 7.86Q231.83 8.49 231.66 8.91Q231.48 9.32 231.19 9.63ZM228.48 23.90L228.48 23.90Q228.83 23.90 228.83 24.35L228.83 24.35Q228.83 24.94 228.29 25.58L228.29 25.58Q227.50 26.50 226.16 26.50L226.16 26.50Q224.64 26.50 224.07 25.26L224.07 25.26Q223.86 24.82 223.86 24.21Q223.86 23.59 224.07 22.83Q224.29 22.07 224.62 21.23Q224.94 20.40 225.32 19.54L225.32 19.54L226.02 17.88Q226.78 16.02 226.78 15.42Q226.78 14.83 226.66 14.64Q226.53 14.45 226.39 14.34L226.39 14.34L226.13 14.16Q225.99 14.07 225.99 13.84Q225.99 13.61 226.17 13.39Q226.35 13.18 226.64 13.03L226.64 13.03Q227.23 12.72 228.02 12.72L228.02 12.72Q229.96 12.72 229.96 13.74L229.96 13.74Q229.96 14.92 229.34 16.45Q228.72 17.97 228.29 18.91L228.29 18.91L227.50 20.72Q226.63 22.73 226.63 23.61L226.63 23.61Q226.63 24.19 227.21 24.19L227.21 24.19Q227.77 24.19 228.06 24.05Q228.35 23.90 228.48 23.90ZM241.30 15.21L241.30 15.21Q240.89 15.21 240.14 16.00Q239.39 16.78 238.83 17.43L238.83 17.43L237.71 18.77L235.55 21.53Q234.79 22.98 234.35 23.94L234.35 23.94L233.64 25.47Q233.36 26.04 233.16 26.27Q232.95 26.50 232.60 26.50Q232.26 26.50 231.93 26.37Q231.61 26.25 231.37 26.05L231.37 26.05Q230.87 25.63 230.87 25.13L230.87 25.13Q230.87 24.93 231.16 24.35L231.16 24.35L231.66 23.28Q231.90 22.81 232.22 22.07L232.22 22.07L232.95 20.26Q234.51 16.37 234.51 15.24L234.51 15.24Q234.51 14.63 234.11 14.34L234.11 14.34L233.85 14.16Q233.72 14.07 233.72 13.84Q233.72 13.61 233.90 13.39Q234.07 13.18 234.36 13.03L234.36 13.03Q234.96 12.72 235.56 12.72Q236.16 12.72 236.49 12.85Q236.82 12.99 237.04 13.21L237.04 13.21Q237.53 13.67 237.53 14.17Q237.53 14.67 237.40 15.18Q237.28 15.69 237.09 16.21Q236.90 16.73 236.69 17.23Q236.47 17.73 236.30 18.10L236.30 18.10L236.04 18.67Q235.93 18.88 235.99 18.80L235.99 18.80Q237.45 16.77 237.91 16.19L237.91 16.19L238.83 15.08Q239.85 13.90 240.43 13.51L240.43 13.51Q241.60 12.72 242.27 12.72Q242.95 12.72 243.41 12.89Q243.87 13.06 244.21 13.38L244.21 13.38Q244.94 14.05 244.94 15.10Q244.94 16.14 244.46 17.27Q243.99 18.40 243.64 19.11Q243.29 19.81 242.97 20.54L242.97 20.54Q241.98 22.74 241.98 23.74L241.98 23.74Q241.98 24.19 242.70 24.19L242.70 24.19Q243.25 24.19 243.71 23.95Q244.16 23.72 244.29 23.72L244.29 23.72Q244.57 23.72 244.57 23.99L244.57 23.99Q244.57 25.17 243.37 25.96L243.37 25.96Q242.56 26.50 241.89 26.50Q241.22 26.50 240.78 26.35Q240.34 26.21 239.99 25.89L239.99 25.89Q239.22 25.19 239.22 23.94L239.22 23.94Q239.22 22.41 240.18 20.12L240.18 20.12Q240.88 18.55 241.17 17.97L241.17 17.97L241.62 17.03Q242.02 16.19 242.02 15.70Q242.02 15.21 241.30 15.21ZM246.92 25.09L246.92 25.09Q246.76 24.65 246.76 24.09Q246.76 23.53 246.95 22.84Q247.14 22.15 247.44 21.40Q247.75 20.65 248.10 19.85L248.10 19.85L248.81 18.27Q250.19 15.23 249.83 14.66L249.83 14.66Q249.67 14.41 249.24 14.16L249.24 14.16Q249.08 14.07 249.08 13.84Q249.08 13.61 249.27 13.39Q249.46 13.18 249.76 13.03L249.76 13.03Q250.41 12.72 251.06 12.72Q251.70 12.72 252.04 12.86Q252.37 13.00 252.58 13.21L252.58 13.21Q253.02 13.65 253.02 14.17Q253.02 14.70 252.85 15.35Q252.68 16.00 252.40 16.77Q252.12 17.53 251.79 18.35L251.79 18.35Q250.88 20.49 250.57 21.17L250.57 21.17L250.08 22.19Q249.67 23.10 249.67 23.47Q249.67 23.84 249.79 23.99Q249.91 24.14 250.22 24.14Q250.53 24.14 250.90 23.90Q251.28 23.66 251.71 23.27Q252.15 22.87 252.62 22.35Q253.09 21.83 253.53 21.27L253.53 21.27Q254.71 19.81 255.27 18.77L255.27 18.77Q258.12 13.53 258.29 13.29L258.29 13.29Q258.73 12.72 259.17 12.72Q259.61 12.72 259.94 12.82Q260.27 12.92 260.51 13.10L260.51 13.10Q261.04 13.49 260.83 13.96Q260.63 14.44 260.34 15.27L260.34 15.27Q257.83 22.53 257.09 24.32Q256.34 26.12 255.79 27.20Q255.23 28.29 254.49 29.40Q253.74 30.51 252.90 31.42L252.90 31.42Q250.98 33.47 249.29 33.62L249.29 33.62Q248.64 33.67 248.26 33.43L248.26 33.43Q247.60 33.04 247.60 32.68L247.60 32.68Q247.60 32.33 248.20 32.19Q248.80 32.05 249.44 31.63Q250.08 31.22 250.67 30.67L250.67 30.67Q252.41 29.00 253.38 27.05L253.38 27.05Q254.19 25.34 254.69 23.81L254.69 23.81L255.72 20.67Q255.34 21.13 254.88 21.75L254.88 21.75L253.93 23.02Q252.69 24.59 251.87 25.25L251.87 25.25Q250.32 26.50 249.09 26.50L249.09 26.50Q247.46 26.50 246.92 25.09Z" transform="translate(0, 0)" style="block-size:auto;d:path(&quot;M 1.09 23.26 L 1.09 23.26 Q 1.21 22.4 1.6 20.89 Q 1.99 19.38 2.6 17.67 L 2.6 17.67 Q 3.98 13.74 5.88 10.67 L 5.88 10.67 Q 6.14 10.24 6.55 10.18 L 6.55 10.18 Q 7.13 10.1 7.57 10.1 Q 8.02 10.1 8.36 10.2 Q 8.71 10.3 8.91 10.45 L 8.91 10.45 Q 9.31 10.78 9.04 11.15 L 9.04 11.15 Q 6.66 14.75 4.88 19.93 L 4.88 19.93 Q 4.21 21.91 4.07 22.68 Q 3.94 23.45 3.88 23.74 Q 3.82 24.02 3.82 24.23 L 3.82 24.23 Q 3.82 24.67 4.38 24.67 Q 4.93 24.67 5.62 24.41 Q 6.3 24.15 7.09 23.68 Q 7.88 23.22 8.73 22.54 Q 9.58 21.87 10.4 21.03 Q 11.22 20.2 11.94 19.22 Q 12.67 18.25 13.21 17.17 L 13.21 17.17 Q 14.41 14.79 14.41 12.48 L 14.41 12.48 Q 14.41 9.32 11.84 8.28 L 11.84 8.28 Q 10.94 7.92 9.97 7.92 Q 9 7.92 8.33 8.05 Q 7.66 8.17 7.04 8.4 L 7.04 8.4 Q 5.79 8.85 4.93 9.6 L 4.93 9.6 Q 4.71 9.73 4.39 9.73 Q 4.07 9.73 3.71 9.54 Q 3.35 9.36 3.06 9.08 L 3.06 9.08 Q 2.4 8.44 2.53 7.84 L 2.53 7.84 Q 2.68 7 5.06 6.38 L 5.06 6.38 Q 7.07 5.87 9.1 5.87 Q 11.13 5.87 12.76 6.42 Q 14.38 6.97 15.4 7.91 L 15.4 7.91 Q 17.3 9.68 17.3 12.64 L 17.3 12.64 Q 17.3 16.57 14.58 20.22 L 14.58 20.22 Q 12.09 23.61 8.65 25.37 L 8.65 25.37 Q 6.42 26.5 4.55 26.5 L 4.55 26.5 Q 3.08 26.5 2.03 25.64 L 2.03 25.64 Q 0.9 24.73 1.09 23.26 Z M 25.09 9.63 Q 24.8 9.94 24.43 10.13 Q 24.06 10.32 23.65 10.37 Q 23.24 10.42 22.88 10.24 Q 22.52 10.07 22.25 9.76 L 22.25 9.76 Q 21.69 9.1 21.69 8.42 Q 21.69 7.75 21.9 7.42 Q 22.12 7.08 22.45 6.87 L 22.45 6.87 Q 23.08 6.46 23.64 6.46 Q 24.21 6.46 24.51 6.54 Q 24.82 6.62 25.09 6.8 L 25.09 6.8 Q 25.73 7.24 25.73 7.86 Q 25.73 8.49 25.56 8.91 Q 25.38 9.32 25.09 9.63 Z M 22.39 23.9 L 22.39 23.9 Q 22.73 23.9 22.73 24.35 L 22.73 24.35 Q 22.73 24.94 22.19 25.58 L 22.19 25.58 Q 21.4 26.5 20.07 26.5 L 20.07 26.5 Q 18.54 26.5 17.97 25.26 L 17.97 25.26 Q 17.76 24.82 17.76 24.21 Q 17.76 23.59 17.98 22.83 Q 18.19 22.07 18.52 21.23 Q 18.84 20.4 19.22 19.54 L 19.22 19.54 L 19.92 17.88 Q 20.69 16.02 20.69 15.42 Q 20.69 14.83 20.56 14.64 Q 20.43 14.45 20.29 14.34 L 20.29 14.34 L 20.03 14.16 Q 19.89 14.07 19.89 13.84 Q 19.89 13.61 20.07 13.39 Q 20.25 13.18 20.54 13.03 L 20.54 13.03 Q 21.13 12.72 21.92 12.72 L 21.92 12.72 Q 23.86 12.72 23.86 13.74 L 23.86 13.74 Q 23.86 14.92 23.24 16.45 Q 22.62 17.97 22.19 18.91 L 22.19 18.91 L 21.4 20.72 Q 20.53 22.73 20.53 23.61 L 20.53 23.61 Q 20.53 24.19 21.11 24.19 L 21.11 24.19 Q 21.67 24.19 21.96 24.05 Q 22.25 23.9 22.39 23.9 Z M 25.06 24.05 L 25.06 24.05 Q 25.06 23.64 25.24 23.29 Q 25.42 22.94 25.68 22.7 L 25.68 22.7 Q 26.24 22.19 26.84 22.19 L 26.84 22.19 Q 27.37 22.19 27.37 22.73 L 27.37 22.73 Q 27.37 24.1 28.28 24.64 L 28.28 24.64 Q 28.61 24.84 28.96 24.84 Q 29.32 24.84 29.57 24.76 Q 29.82 24.68 30.03 24.51 L 30.03 24.51 Q 30.51 24.13 30.51 23.6 Q 30.51 23.07 30.27 22.63 Q 30.03 22.19 29.68 21.7 L 29.68 21.7 L 28.92 20.65 Q 27.34 18.54 27.34 16.76 L 27.34 16.76 Q 27.34 15.28 28.6 14.08 L 28.6 14.08 Q 30.02 12.72 32.25 12.72 L 32.25 12.72 Q 34.2 12.72 35.29 13.68 L 35.29 13.68 Q 36.19 14.46 36.19 15.46 L 36.19 15.46 Q 36.19 16.51 35.4 17.13 L 35.4 17.13 Q 34.69 17.68 33.97 17.53 L 33.97 17.53 Q 33.66 17.47 33.49 17.21 Q 33.31 16.95 33.42 16.62 Q 33.53 16.29 33.53 15.94 Q 33.53 15.58 33.39 15.28 Q 33.26 14.98 33.04 14.77 L 33.04 14.77 Q 32.58 14.33 32.07 14.33 Q 31.56 14.33 31.23 14.44 Q 30.9 14.55 30.65 14.77 L 30.65 14.77 Q 30.14 15.24 30.14 15.93 Q 30.14 16.62 30.38 17.13 Q 30.61 17.63 30.96 18.13 Q 31.31 18.63 31.72 19.14 Q 32.13 19.66 32.47 20.22 L 32.47 20.22 Q 33.3 21.56 33.3 22.56 Q 33.3 23.57 32.88 24.25 Q 32.46 24.93 31.79 25.42 L 31.79 25.42 Q 30.35 26.49 28.57 26.49 L 28.57 26.49 Q 26.87 26.49 25.88 25.67 L 25.88 25.67 Q 25.06 24.98 25.06 24.05 Z M 37.02 21.82 L 37.02 21.82 Q 37.05 20.67 37.38 19.53 Q 37.72 18.39 38.28 17.38 Q 38.84 16.36 39.61 15.5 Q 40.38 14.65 41.29 14.03 L 41.29 14.03 Q 43.19 12.72 45.29 12.72 L 45.29 12.72 Q 47.45 12.72 48.23 14.45 L 48.23 14.45 Q 48.5 15.07 48.48 15.85 Q 48.46 16.64 48.23 17.29 Q 47.99 17.94 47.63 18.46 L 47.63 18.46 Q 46.83 19.62 46.01 19.62 L 46.01 19.62 Q 45.1 19.62 44.67 19.12 L 44.67 19.12 Q 44.28 18.68 44.43 18.1 L 44.43 18.1 Q 44.47 17.93 44.67 17.79 Q 44.86 17.65 45.17 17.35 L 45.17 17.35 Q 46.02 16.45 46.06 15.25 L 46.06 15.25 Q 46.09 14.44 45.06 14.44 L 45.06 14.44 Q 43.95 14.44 42.74 15.68 L 42.74 15.68 Q 40.97 17.48 40.25 20.3 L 40.25 20.3 Q 39.62 22.75 40.49 23.89 L 40.49 23.89 Q 41 24.55 41.88 24.55 L 41.88 24.55 Q 43.37 24.55 44.76 23.49 L 44.76 23.49 Q 45.18 23.16 45.44 22.82 Q 45.71 22.48 45.93 22.48 Q 46.16 22.48 46.31 22.7 Q 46.46 22.91 46.46 23.26 L 46.46 23.26 Q 46.46 24.03 45.76 24.79 L 45.76 24.79 Q 43.97 26.5 41.45 26.5 L 41.45 26.5 Q 39.3 26.5 38.13 25.27 L 38.13 25.27 Q 36.97 24.06 37.02 21.82 Z M 50.9 25.47 Q 50.35 24.94 50.03 24.13 Q 49.72 23.32 49.7 22.21 Q 49.69 21.11 49.97 19.97 Q 50.26 18.84 50.78 17.78 Q 51.3 16.73 52.03 15.81 Q 52.76 14.88 53.64 14.2 L 53.64 14.2 Q 55.57 12.72 57.64 12.72 L 57.64 12.72 Q 60.35 12.72 61.32 15.11 L 61.32 15.11 Q 62 16.84 61.4 19.29 L 61.4 19.29 Q 60.84 21.54 59.37 23.43 L 59.37 23.43 Q 57.9 25.31 55.91 26.1 L 55.91 26.1 Q 54.91 26.5 53.94 26.5 Q 52.97 26.5 52.21 26.25 Q 51.46 26 50.9 25.47 Z M 53.42 19.08 Q 53.02 20.05 52.79 21.08 Q 52.56 22.11 52.58 23.03 Q 52.59 23.94 52.86 24.46 Q 53.13 24.98 53.74 24.98 Q 54.34 24.98 54.93 24.57 Q 55.52 24.15 56.07 23.47 Q 56.62 22.78 57.11 21.88 Q 57.6 20.99 57.97 20.01 L 57.97 20.01 Q 58.77 17.89 58.75 16.24 L 58.75 16.24 Q 58.75 14.79 58.15 14.4 L 58.15 14.4 Q 57.92 14.24 57.49 14.24 Q 57.06 14.24 56.5 14.63 Q 55.95 15.02 55.4 15.68 Q 54.84 16.33 54.33 17.22 Q 53.82 18.1 53.42 19.08 Z M 63.62 25.09 L 63.62 25.09 Q 63.43 24.65 63.43 24.06 Q 63.43 23.47 63.61 22.75 Q 63.8 22.03 64.09 21.28 Q 64.38 20.53 64.73 19.75 L 64.73 19.75 L 65.4 18.22 Q 66.71 15.2 66.37 14.66 L 66.37 14.66 Q 66.21 14.41 65.76 14.16 L 65.76 14.16 Q 65.61 14.07 65.61 13.84 Q 65.61 13.61 65.81 13.39 Q 66 13.18 66.31 13.03 L 66.31 13.03 Q 66.95 12.72 67.59 12.72 Q 68.24 12.72 68.57 12.86 Q 68.91 13 69.13 13.21 L 69.13 13.21 Q 69.56 13.65 69.56 14.26 Q 69.56 14.88 69.32 15.66 Q 69.08 16.44 68.73 17.3 Q 68.37 18.15 67.95 19.05 L 67.95 19.05 L 67.17 20.78 Q 66.34 22.69 66.34 23.31 L 66.34 23.31 Q 66.34 24.52 67.2 24.52 L 67.2 24.52 Q 69.4 24.52 71.32 21.91 L 71.32 21.91 Q 72.44 20.4 72.93 18.62 L 72.93 18.62 Q 73.16 17.77 73.16 17.08 Q 73.16 16.39 73.11 15.93 Q 73.06 15.46 72.96 15.11 L 72.96 15.11 Q 72.79 14.48 72.38 14.01 L 72.38 14.01 Q 72.1 13.67 72.63 13.21 L 72.63 13.21 Q 73.21 12.72 74.28 12.72 L 74.28 12.72 Q 74.94 12.72 75.44 13.34 L 75.44 13.34 Q 76.07 14.08 76.07 15.46 Q 76.07 16.84 75.66 18.16 Q 75.25 19.49 74.54 20.7 Q 73.83 21.92 72.86 22.98 Q 71.89 24.03 70.77 24.81 L 70.77 24.81 Q 68.37 26.5 65.97 26.5 L 65.97 26.5 Q 64.24 26.5 63.62 25.09 Z M 77.41 21.75 L 77.41 21.75 Q 77.47 20.61 77.8 19.56 Q 78.13 18.51 78.68 17.53 Q 79.23 16.55 79.98 15.67 Q 80.72 14.79 81.59 14.13 L 81.59 14.13 Q 83.48 12.72 85.4 12.72 L 85.4 12.72 Q 87.66 12.72 88.41 14.58 L 88.41 14.58 Q 88.67 15.21 88.66 16.08 Q 88.65 16.94 88.33 17.67 Q 88.01 18.4 87.45 19 Q 86.89 19.6 86.12 20.08 Q 85.35 20.55 84.44 20.88 L 84.44 20.88 Q 82.57 21.54 80.43 21.57 L 80.43 21.57 Q 80.38 21.75 80.37 22.12 Q 80.35 22.49 80.45 22.95 Q 80.54 23.4 80.76 23.76 L 80.76 23.76 Q 81.24 24.55 82.13 24.55 L 82.13 24.55 Q 83.66 24.55 85.11 23.65 L 85.11 23.65 Q 85.63 23.35 85.95 23.03 Q 86.27 22.7 86.51 22.7 Q 86.75 22.7 86.93 22.99 Q 87.1 23.27 87.1 23.63 L 87.1 23.63 Q 87.1 24.32 86.71 24.84 L 86.71 24.84 Q 85.05 26.5 81.76 26.5 L 81.76 26.5 Q 79.83 26.5 78.65 25.34 L 78.65 25.34 Q 77.33 24.02 77.41 21.75 Z M 85.11 14.48 L 85.11 14.48 Q 83.73 14.48 82.45 16.37 L 82.45 16.37 Q 81.37 18.01 80.71 20.25 L 80.71 20.25 Q 82.91 20.03 84.53 18.51 L 84.53 18.51 Q 86.02 17.09 86.02 15.78 Q 86.02 14.48 85.11 14.48 Z M 90.14 26.05 Q 89.87 25.85 89.71 25.61 Q 89.56 25.37 89.54 25.19 Q 89.53 25.01 89.62 24.75 Q 89.7 24.5 89.85 24.13 L 89.85 24.13 Q 92.54 17.51 92.54 15.24 L 92.54 15.24 Q 92.5 14.61 92.1 14.34 L 92.1 14.34 L 91.84 14.16 Q 91.72 14.07 91.71 13.84 Q 91.71 13.61 91.88 13.39 Q 92.05 13.18 92.32 13.03 L 92.32 13.03 Q 92.89 12.72 93.49 12.72 Q 94.09 12.72 94.43 12.85 Q 94.76 12.99 95 13.21 L 95 13.21 Q 95.5 13.68 95.51 14.21 Q 95.52 14.74 95.39 15.28 Q 95.26 15.82 95.09 16.34 Q 94.92 16.86 94.75 17.33 Q 94.58 17.8 94.53 18.02 L 94.53 18.02 Q 94.42 18.48 94.45 18.6 L 94.45 18.6 Q 94.76 18.33 94.83 18.06 L 94.83 18.06 L 95.34 17.09 Q 97.06 14 98.69 13 L 98.69 13 Q 99.17 12.72 99.83 12.72 Q 100.5 12.72 100.91 13.19 Q 101.32 13.66 101.34 14.23 Q 101.36 14.79 101.26 15.17 Q 101.16 15.54 100.96 15.87 L 100.96 15.87 Q 100.52 16.61 99.91 16.61 L 99.91 16.61 Q 99.73 16.61 99.59 16.49 L 99.59 16.49 L 99.3 16.24 Q 98.86 15.86 98.46 15.86 Q 98.06 15.86 97.49 16.39 Q 96.91 16.91 96.29 17.75 L 96.29 17.75 Q 94.21 20.5 92.89 23.92 L 92.89 23.92 L 92.31 25.44 Q 92.09 26.01 91.92 26.26 Q 91.74 26.5 91.41 26.5 Q 91.07 26.5 90.74 26.37 Q 90.4 26.25 90.14 26.05 Z M 111.86 22.7 L 111.86 22.9 Q 111.86 24.15 112.81 24.15 L 112.81 24.15 Q 114.55 24.15 117.33 19.79 L 117.33 19.79 Q 118.16 18.5 119 17.06 L 119 17.06 L 120.6 14.11 Q 124.06 7.42 124.58 6.49 L 124.58 6.49 Q 124.85 6.01 125.34 6.01 Q 125.82 6.01 126.15 6.15 Q 126.48 6.29 126.72 6.51 L 126.72 6.51 Q 127.27 7.04 127 7.57 L 127 7.57 Q 126.07 9.28 125.28 11.4 L 125.28 11.4 L 121.99 20.59 Q 121.46 21.99 120.89 23.29 Q 120.33 24.59 119.62 25.87 Q 118.92 27.15 118.11 28.31 Q 117.31 29.47 116.42 30.46 Q 115.54 31.46 114.62 32.19 L 114.62 32.19 Q 112.65 33.75 110.86 33.75 L 110.86 33.75 Q 110.52 33.75 110.19 33.59 Q 109.86 33.43 109.79 33.14 Q 109.73 32.85 109.89 32.75 Q 110.04 32.64 110.31 32.54 L 110.31 32.54 Q 113.95 31.18 117.18 25.29 L 117.18 25.29 Q 118.13 23.55 118.93 21.66 L 118.93 21.66 Q 119.85 19.22 120.12 18.47 L 120.12 18.47 L 118.78 20.5 Q 114.63 26.5 111.73 26.5 L 111.73 26.5 Q 109.77 26.5 109.11 24.79 L 109.11 24.79 Q 108.91 24.24 108.91 23.86 L 108.91 23.86 L 108.91 23.36 Q 108.91 21.77 110.77 17.3 L 110.77 17.3 L 113.51 10.92 Q 114.3 9 114.3 8.56 Q 114.3 8.12 114.14 7.9 Q 113.99 7.67 113.79 7.54 L 113.79 7.54 L 113.43 7.28 Q 113.27 7.17 113.27 6.96 Q 113.27 6.75 113.48 6.54 Q 113.7 6.33 114.04 6.17 L 114.04 6.17 Q 114.72 5.87 115.39 5.87 Q 116.06 5.87 116.42 6.01 Q 116.78 6.14 117.02 6.35 L 117.02 6.35 Q 117.48 6.79 117.48 7.4 Q 117.48 8.02 117.25 8.85 Q 117.02 9.68 116.64 10.66 Q 116.27 11.64 115.78 12.74 L 115.78 12.74 L 113.77 17.14 Q 111.86 21.34 111.86 22.7 L 111.86 22.7 Z M 126.29 25.47 Q 125.73 24.94 125.42 24.13 Q 125.1 23.32 125.09 22.21 Q 125.07 21.11 125.36 19.97 Q 125.64 18.84 126.16 17.78 Q 126.68 16.73 127.41 15.81 Q 128.14 14.88 129.03 14.2 L 129.03 14.2 Q 130.95 12.72 133.02 12.72 L 133.02 12.72 Q 135.74 12.72 136.7 15.11 L 136.7 15.11 Q 137.39 16.84 136.78 19.29 L 136.78 19.29 Q 136.23 21.54 134.75 23.43 L 134.75 23.43 Q 133.29 25.31 131.3 26.1 L 131.3 26.1 Q 130.29 26.5 129.32 26.5 Q 128.36 26.5 127.6 26.25 Q 126.84 26 126.29 25.47 Z M 128.8 19.08 Q 128.41 20.05 128.18 21.08 Q 127.95 22.11 127.96 23.03 Q 127.97 23.94 128.24 24.46 Q 128.51 24.98 129.12 24.98 Q 129.73 24.98 130.31 24.57 Q 130.9 24.15 131.45 23.47 Q 132.01 22.78 132.5 21.88 Q 132.98 20.99 133.35 20.01 L 133.35 20.01 Q 134.16 17.89 134.13 16.24 L 134.13 16.24 Q 134.13 14.79 133.54 14.4 L 133.54 14.4 Q 133.3 14.24 132.87 14.24 Q 132.44 14.24 131.89 14.63 Q 131.33 15.02 130.78 15.68 Q 130.23 16.33 129.71 17.22 Q 129.2 18.1 128.8 19.08 Z M 151.26 23.77 L 151.26 23.77 Q 151.56 23.77 151.56 24.07 L 151.56 24.07 Q 151.56 25.22 150.42 26 L 150.42 26 Q 149.66 26.5 148.63 26.5 L 148.63 26.5 Q 147.79 26.5 147.34 26.1 L 147.34 26.1 Q 146.54 25.39 146.54 24.36 L 146.54 24.36 Q 146.54 23.06 147.63 20.37 L 147.63 20.37 Q 145.6 23.11 144.78 24.01 Q 143.96 24.92 143.36 25.42 L 143.36 25.42 Q 142.04 26.5 140.97 26.5 L 140.97 26.5 Q 139.34 26.5 138.8 25.09 L 138.8 25.09 Q 138.64 24.65 138.64 24.09 Q 138.64 23.53 138.83 22.84 Q 139.02 22.15 139.32 21.4 Q 139.63 20.65 139.98 19.85 L 139.98 19.85 L 140.7 18.27 Q 142.07 15.23 141.71 14.66 L 141.71 14.66 Q 141.55 14.41 141.12 14.16 L 141.12 14.16 Q 140.96 14.07 140.96 13.84 Q 140.96 13.61 141.15 13.39 Q 141.34 13.18 141.64 13.03 L 141.64 13.03 Q 142.29 12.72 142.94 12.72 Q 143.58 12.72 143.92 12.86 Q 144.25 13 144.47 13.21 L 144.47 13.21 Q 144.9 13.65 144.9 14.17 Q 144.9 14.7 144.73 15.35 Q 144.56 16 144.28 16.77 Q 144 17.53 143.67 18.35 L 143.67 18.35 Q 142.77 20.49 142.45 21.17 L 142.45 21.17 L 141.96 22.19 Q 141.55 23.1 141.55 23.47 Q 141.55 23.84 141.67 23.99 Q 141.79 24.14 142.1 24.14 Q 142.41 24.14 142.82 23.85 Q 143.23 23.56 143.71 23.07 Q 144.2 22.58 144.73 21.94 Q 145.26 21.3 145.76 20.62 L 145.76 20.62 Q 146.75 19.27 147.21 18.46 L 147.21 18.46 Q 150 13.51 150.19 13.29 L 150.19 13.29 Q 150.61 12.72 151.05 12.72 Q 151.49 12.72 151.82 12.82 Q 152.15 12.92 152.39 13.1 L 152.39 13.1 Q 152.94 13.51 152.75 13.92 L 152.75 13.92 Q 149.53 20.63 149.28 22.36 L 149.28 22.36 Q 149.21 22.95 149.21 23.18 L 149.21 23.18 Q 149.21 24.18 149.82 24.18 L 149.82 24.18 Q 150.39 24.18 150.75 23.97 Q 151.12 23.77 151.26 23.77 Z M 153.93 26.05 Q 153.67 25.85 153.51 25.61 Q 153.35 25.37 153.34 25.19 Q 153.33 25.01 153.41 24.75 Q 153.5 24.5 153.64 24.13 L 153.64 24.13 Q 156.33 17.51 156.33 15.24 L 156.33 15.24 Q 156.29 14.61 155.9 14.34 L 155.9 14.34 L 155.63 14.16 Q 155.51 14.07 155.51 13.84 Q 155.5 13.61 155.67 13.39 Q 155.84 13.18 156.12 13.03 L 156.12 13.03 Q 156.69 12.72 157.29 12.72 Q 157.89 12.72 158.22 12.85 Q 158.56 12.99 158.8 13.21 L 158.8 13.21 Q 159.3 13.68 159.3 14.21 Q 159.31 14.74 159.19 15.28 Q 159.06 15.82 158.89 16.34 Q 158.72 16.86 158.55 17.33 Q 158.37 17.8 158.32 18.02 L 158.32 18.02 Q 158.22 18.48 158.24 18.6 L 158.24 18.6 Q 158.56 18.33 158.63 18.06 L 158.63 18.06 L 159.14 17.09 Q 160.85 14 162.49 13 L 162.49 13 Q 162.96 12.72 163.63 12.72 Q 164.29 12.72 164.7 13.19 Q 165.11 13.66 165.13 14.23 Q 165.15 14.79 165.05 15.17 Q 164.95 15.54 164.76 15.87 L 164.76 15.87 Q 164.32 16.61 163.7 16.61 L 163.7 16.61 Q 163.53 16.61 163.38 16.49 L 163.38 16.49 L 163.09 16.24 Q 162.66 15.86 162.26 15.86 Q 161.85 15.86 161.28 16.39 Q 160.71 16.91 160.09 17.75 L 160.09 17.75 Q 158.01 20.5 156.69 23.92 L 156.69 23.92 L 156.11 25.44 Q 155.88 26.01 155.71 26.26 Q 155.54 26.5 155.2 26.5 Q 154.87 26.5 154.53 26.37 Q 154.2 26.25 153.93 26.05 Z M 173.34 23.26 L 173.34 23.26 Q 173.46 22.4 173.85 20.89 Q 174.23 19.38 174.84 17.67 L 174.84 17.67 Q 176.23 13.74 178.12 10.67 L 178.12 10.67 Q 178.39 10.24 178.8 10.18 L 178.8 10.18 Q 179.38 10.1 179.82 10.1 Q 180.26 10.1 180.61 10.2 Q 180.96 10.3 181.16 10.45 L 181.16 10.45 Q 181.55 10.78 181.29 11.15 L 181.29 11.15 Q 178.9 14.75 177.12 19.93 L 177.12 19.93 Q 176.45 21.91 176.32 22.68 Q 176.19 23.45 176.13 23.74 Q 176.07 24.02 176.07 24.23 L 176.07 24.23 Q 176.07 24.67 176.62 24.67 Q 177.17 24.67 177.86 24.41 Q 178.55 24.15 179.34 23.68 Q 180.13 23.22 180.98 22.54 Q 181.83 21.87 182.65 21.03 Q 183.46 20.2 184.19 19.22 Q 184.91 18.25 185.45 17.17 L 185.45 17.17 Q 186.65 14.79 186.65 12.48 L 186.65 12.48 Q 186.65 9.32 184.08 8.28 L 184.08 8.28 Q 183.19 7.92 182.22 7.92 Q 181.25 7.92 180.58 8.05 Q 179.9 8.17 179.28 8.4 L 179.28 8.4 Q 178.03 8.85 177.17 9.6 L 177.17 9.6 Q 176.95 9.73 176.63 9.73 Q 176.32 9.73 175.95 9.54 Q 175.59 9.36 175.3 9.08 L 175.3 9.08 Q 174.64 8.44 174.77 7.84 L 174.77 7.84 Q 174.92 7 177.31 6.38 L 177.31 6.38 Q 179.31 5.87 181.34 5.87 Q 183.37 5.87 185 6.42 Q 186.63 6.97 187.64 7.91 L 187.64 7.91 Q 189.54 9.68 189.54 12.64 L 189.54 12.64 Q 189.54 16.57 186.82 20.22 L 186.82 20.22 Q 184.33 23.61 180.89 25.37 L 180.89 25.37 Q 178.66 26.5 176.79 26.5 L 176.79 26.5 Q 175.33 26.5 174.27 25.64 L 174.27 25.64 Q 173.14 24.73 173.34 23.26 Z M 190.27 21.75 L 190.27 21.75 Q 190.32 20.61 190.65 19.56 Q 190.98 18.51 191.53 17.53 Q 192.08 16.55 192.83 15.67 Q 193.57 14.79 194.44 14.13 L 194.44 14.13 Q 196.33 12.72 198.25 12.72 L 198.25 12.72 Q 200.51 12.72 201.26 14.58 L 201.26 14.58 Q 201.52 15.21 201.51 16.08 Q 201.5 16.94 201.18 17.67 Q 200.87 18.4 200.3 19 Q 199.74 19.6 198.97 20.08 Q 198.2 20.55 197.29 20.88 L 197.29 20.88 Q 195.42 21.54 193.28 21.57 L 193.28 21.57 Q 193.23 21.75 193.22 22.12 Q 193.21 22.49 193.3 22.95 Q 193.39 23.4 193.61 23.76 L 193.61 23.76 Q 194.09 24.55 194.99 24.55 L 194.99 24.55 Q 196.51 24.55 197.96 23.65 L 197.96 23.65 Q 198.48 23.35 198.8 23.03 Q 199.13 22.7 199.36 22.7 Q 199.6 22.7 199.78 22.99 Q 199.96 23.27 199.96 23.63 L 199.96 23.63 Q 199.96 24.32 199.56 24.84 L 199.56 24.84 Q 197.9 26.5 194.62 26.5 L 194.62 26.5 Q 192.68 26.5 191.5 25.34 L 191.5 25.34 Q 190.19 24.02 190.27 21.75 Z M 197.96 14.48 L 197.96 14.48 Q 196.58 14.48 195.3 16.37 L 195.3 16.37 Q 194.22 18.01 193.56 20.25 L 193.56 20.25 Q 195.76 20.03 197.38 18.51 L 197.38 18.51 Q 198.87 17.09 198.87 15.78 Q 198.87 14.48 197.96 14.48 Z M 202.32 24.05 L 202.32 24.05 Q 202.32 23.64 202.49 23.29 Q 202.67 22.94 202.94 22.7 L 202.94 22.7 Q 203.49 22.19 204.1 22.19 L 204.1 22.19 Q 204.62 22.19 204.62 22.73 L 204.62 22.73 Q 204.62 24.1 205.53 24.64 L 205.53 24.64 Q 205.86 24.84 206.22 24.84 Q 206.57 24.84 206.82 24.76 Q 207.07 24.68 207.29 24.51 L 207.29 24.51 Q 207.76 24.13 207.76 23.6 Q 207.76 23.07 207.52 22.63 Q 207.29 22.19 206.93 21.7 L 206.93 21.7 L 206.18 20.65 Q 204.6 18.54 204.6 16.76 L 204.6 16.76 Q 204.6 15.28 205.85 14.08 L 205.85 14.08 Q 207.27 12.72 209.5 12.72 L 209.5 12.72 Q 211.45 12.72 212.55 13.68 L 212.55 13.68 Q 213.44 14.46 213.44 15.46 L 213.44 15.46 Q 213.44 16.51 212.65 17.13 L 212.65 17.13 Q 211.94 17.68 211.23 17.53 L 211.23 17.53 Q 210.91 17.47 210.74 17.21 Q 210.57 16.95 210.67 16.62 Q 210.78 16.29 210.78 15.94 Q 210.78 15.58 210.65 15.28 Q 210.52 14.98 210.29 14.77 L 210.29 14.77 Q 209.83 14.33 209.32 14.33 Q 208.81 14.33 208.49 14.44 Q 208.16 14.55 207.91 14.77 L 207.91 14.77 Q 207.39 15.24 207.39 15.93 Q 207.39 16.62 207.63 17.13 Q 207.87 17.63 208.22 18.13 Q 208.56 18.63 208.97 19.14 Q 209.38 19.66 209.72 20.22 L 209.72 20.22 Q 210.56 21.56 210.56 22.56 Q 210.56 23.57 210.13 24.25 Q 209.71 24.93 209.04 25.42 L 209.04 25.42 Q 207.6 26.49 205.82 26.49 L 205.82 26.49 Q 204.12 26.49 203.13 25.67 L 203.13 25.67 Q 202.32 24.98 202.32 24.05 Z M 221.38 22.91 L 221.38 22.91 Q 221.76 22.91 221.76 23.43 L 221.76 23.43 Q 221.76 23.86 221.5 24.27 L 221.5 24.27 Q 221.14 25.04 220.07 25.72 L 220.07 25.72 Q 218.86 26.5 217.63 26.5 L 217.63 26.5 Q 215.51 26.5 214.95 24.6 L 214.95 24.6 Q 214.27 22.35 216.96 15.04 L 216.96 15.04 Q 215.45 14.91 215.31 14.52 L 215.31 14.52 Q 215.27 14.4 215.27 14.26 Q 215.27 14.12 215.4 13.94 Q 215.53 13.75 215.72 13.58 L 215.72 13.58 Q 216.18 13.2 216.66 13.2 L 216.66 13.2 L 217.7 13.2 Q 219.12 9.86 219.73 9.4 L 219.73 9.4 Q 220.02 9.19 220.38 9.19 Q 220.73 9.19 220.97 9.28 Q 221.21 9.37 221.39 9.54 L 221.39 9.54 Q 221.81 9.94 221.81 10.43 L 221.81 10.43 Q 221.81 10.69 221.66 11.03 L 221.66 11.03 L 220.68 13.16 L 221 13.16 Q 221.81 13.16 222.31 13.14 L 222.31 13.14 Q 222.31 13.14 223.07 13.13 L 223.07 13.13 Q 223.32 13.12 223.69 13.12 Q 224.07 13.12 224.07 13.39 L 224.07 13.39 Q 224.07 15.13 219.96 15.13 L 219.96 15.13 L 219.85 15.13 L 218.95 17.46 Q 217.44 21.57 217.44 23.22 L 217.44 23.22 Q 217.44 23.68 217.65 23.93 Q 217.86 24.19 218.44 24.19 Q 219.02 24.19 219.49 23.99 Q 219.97 23.8 220.32 23.55 Q 220.68 23.31 220.94 23.11 Q 221.19 22.91 221.38 22.91 Z M 231.19 9.63 Q 230.9 9.94 230.53 10.13 Q 230.16 10.32 229.75 10.37 Q 229.34 10.42 228.98 10.24 Q 228.62 10.07 228.35 9.76 L 228.35 9.76 Q 227.79 9.1 227.79 8.42 Q 227.79 7.75 228 7.42 Q 228.22 7.08 228.55 6.87 L 228.55 6.87 Q 229.18 6.46 229.74 6.46 Q 230.3 6.46 230.61 6.54 Q 230.92 6.62 231.19 6.8 L 231.19 6.8 Q 231.83 7.24 231.83 7.86 Q 231.83 8.49 231.66 8.91 Q 231.48 9.32 231.19 9.63 Z M 228.48 23.9 L 228.48 23.9 Q 228.83 23.9 228.83 24.35 L 228.83 24.35 Q 228.83 24.94 228.29 25.58 L 228.29 25.58 Q 227.5 26.5 226.16 26.5 L 226.16 26.5 Q 224.64 26.5 224.07 25.26 L 224.07 25.26 Q 223.86 24.82 223.86 24.21 Q 223.86 23.59 224.07 22.83 Q 224.29 22.07 224.62 21.23 Q 224.94 20.4 225.32 19.54 L 225.32 19.54 L 226.02 17.88 Q 226.78 16.02 226.78 15.42 Q 226.78 14.83 226.66 14.64 Q 226.53 14.45 226.39 14.34 L 226.39 14.34 L 226.13 14.16 Q 225.99 14.07 225.99 13.84 Q 225.99 13.61 226.17 13.39 Q 226.35 13.18 226.64 13.03 L 226.64 13.03 Q 227.23 12.72 228.02 12.72 L 228.02 12.72 Q 229.96 12.72 229.96 13.74 L 229.96 13.74 Q 229.96 14.92 229.34 16.45 Q 228.72 17.97 228.29 18.91 L 228.29 18.91 L 227.5 20.72 Q 226.63 22.73 226.63 23.61 L 226.63 23.61 Q 226.63 24.19 227.21 24.19 L 227.21 24.19 Q 227.77 24.19 228.06 24.05 Q 228.35 23.9 228.48 23.9 Z M 241.3 15.21 L 241.3 15.21 Q 240.89 15.21 240.14 16 Q 239.39 16.78 238.83 17.43 L 238.83 17.43 L 237.71 18.77 L 235.55 21.53 Q 234.79 22.98 234.35 23.94 L 234.35 23.94 L 233.64 25.47 Q 233.36 26.04 233.16 26.27 Q 232.95 26.5 232.6 26.5 Q 232.26 26.5 231.93 26.37 Q 231.61 26.25 231.37 26.05 L 231.37 26.05 Q 230.87 25.63 230.87 25.13 L 230.87 25.13 Q 230.87 24.93 231.16 24.35 L 231.16 24.35 L 231.66 23.28 Q 231.9 22.81 232.22 22.07 L 232.22 22.07 L 232.95 20.26 Q 234.51 16.37 234.51 15.24 L 234.51 15.24 Q 234.51 14.63 234.11 14.34 L 234.11 14.34 L 233.85 14.16 Q 233.72 14.07 233.72 13.84 Q 233.72 13.61 233.9 13.39 Q 234.07 13.18 234.36 13.03 L 234.36 13.03 Q 234.96 12.72 235.56 12.72 Q 236.16 12.72 236.49 12.85 Q 236.82 12.99 237.04 13.21 L 237.04 13.21 Q 237.53 13.67 237.53 14.17 Q 237.53 14.67 237.4 15.18 Q 237.28 15.69 237.09 16.21 Q 236.9 16.73 236.69 17.23 Q 236.47 17.73 236.3 18.1 L 236.3 18.1 L 236.04 18.67 Q 235.93 18.88 235.99 18.8 L 235.99 18.8 Q 237.45 16.77 237.91 16.19 L 237.91 16.19 L 238.83 15.08 Q 239.85 13.9 240.43 13.51 L 240.43 13.51 Q 241.6 12.72 242.27 12.72 Q 242.95 12.72 243.41 12.89 Q 243.87 13.06 244.21 13.38 L 244.21 13.38 Q 244.94 14.05 244.94 15.1 Q 244.94 16.14 244.46 17.27 Q 243.99 18.4 243.64 19.11 Q 243.29 19.81 242.97 20.54 L 242.97 20.54 Q 241.98 22.74 241.98 23.74 L 241.98 23.74 Q 241.98 24.19 242.7 24.19 L 242.7 24.19 Q 243.25 24.19 243.71 23.95 Q 244.16 23.72 244.29 23.72 L 244.29 23.72 Q 244.57 23.72 244.57 23.99 L 244.57 23.99 Q 244.57 25.17 243.37 25.96 L 243.37 25.96 Q 242.56 26.5 241.89 26.5 Q 241.22 26.5 240.78 26.35 Q 240.34 26.21 239.99 25.89 L 239.99 25.89 Q 239.22 25.19 239.22 23.94 L 239.22 23.94 Q 239.22 22.41 240.18 20.12 L 240.18 20.12 Q 240.88 18.55 241.17 17.97 L 241.17 17.97 L 241.62 17.03 Q 242.02 16.19 242.02 15.7 Q 242.02 15.21 241.3 15.21 Z M 246.92 25.09 L 246.92 25.09 Q 246.76 24.65 246.76 24.09 Q 246.76 23.53 246.95 22.84 Q 247.14 22.15 247.44 21.4 Q 247.75 20.65 248.1 19.85 L 248.1 19.85 L 248.81 18.27 Q 250.19 15.23 249.83 14.66 L 249.83 14.66 Q 249.67 14.41 249.24 14.16 L 249.24 14.16 Q 249.08 14.07 249.08 13.84 Q 249.08 13.61 249.27 13.39 Q 249.46 13.18 249.76 13.03 L 249.76 13.03 Q 250.41 12.72 251.06 12.72 Q 251.7 12.72 252.04 12.86 Q 252.37 13 252.58 13.21 L 252.58 13.21 Q 253.02 13.65 253.02 14.17 Q 253.02 14.7 252.85 15.35 Q 252.68 16 252.4 16.77 Q 252.12 17.53 251.79 18.35 L 251.79 18.35 Q 250.88 20.49 250.57 21.17 L 250.57 21.17 L 250.08 22.19 Q 249.67 23.1 249.67 23.47 Q 249.67 23.84 249.79 23.99 Q 249.91 24.14 250.22 24.14 Q 250.53 24.14 250.9 23.9 Q 251.28 23.66 251.71 23.27 Q 252.15 22.87 252.62 22.35 Q 253.09 21.83 253.53 21.27 L 253.53 21.27 Q 254.71 19.81 255.27 18.77 L 255.27 18.77 Q 258.12 13.53 258.29 13.29 L 258.29 13.29 Q 258.73 12.72 259.17 12.72 Q 259.61 12.72 259.94 12.82 Q 260.27 12.92 260.51 13.1 L 260.51 13.1 Q 261.04 13.49 260.83 13.96 Q 260.63 14.44 260.34 15.27 L 260.34 15.27 Q 257.83 22.53 257.09 24.32 Q 256.34 26.12 255.79 27.2 Q 255.23 28.29 254.49 29.4 Q 253.74 30.51 252.9 31.42 L 252.9 31.42 Q 250.98 33.47 249.29 33.62 L 249.29 33.62 Q 248.64 33.67 248.26 33.43 L 248.26 33.43 Q 247.6 33.04 247.6 32.68 L 247.6 32.68 Q 247.6 32.33 248.2 32.19 Q 248.8 32.05 249.44 31.63 Q 250.08 31.22 250.67 30.67 L 250.67 30.67 Q 252.41 29 253.38 27.05 L 253.38 27.05 Q 254.19 25.34 254.69 23.81 L 254.69 23.81 L 255.72 20.67 Q 255.34 21.13 254.88 21.75 L 254.88 21.75 L 253.93 23.02 Q 252.69 24.59 251.87 25.25 L 251.87 25.25 Q 250.32 26.5 249.09 26.5 L 249.09 26.5 Q 247.46 26.5 246.92 25.09 Z&quot;);height:auto;inline-size:auto;overflow-clip-margin:0px;overflow-x:visible;overflow-y:visible;perspective-origin:0px 0px;pointer-events:bounding-box;transform:matrix(1, 0, 0, 1, 0, 0);transform-origin:0px 0px;width:auto;"/></g></svg></g><g transform="rotate(0 354.2250804851862 270.1552312768147)" style="block-size:auto;height:auto;inline-size:auto;overflow-clip-margin:0px;overflow-x:visible;overflow-y:visible;perspective-origin:0px 0px;pointer-events:bounding-box;transform:matrix(1, 0, 0, 1, 0, 0);transform-origin:0px 0px;width:auto;"><svg viewBoxSize="575" data-root-id="7115742544541" xmlns="http://www.w3.org/2000/svg" y="253.4702318108723" x="223.45007132991276" viewBox="1.8600000143051147 11.3100004196167 261.5500183105469 33.369998931884766" height="33.369998931884766" width="261.5500183105469" fontUrl="https://fonts.gstatic.com/s/staatliches/v13/HI_OiY8KO6hCsQSoAPmtMbectJG9O9PS.ttf" zoom="1" editorType="buyer" data-layer-role="brandName" style="block-size:33.37px;display:block;height:33.37px;inline-size:261.55px;inset-block-start:253.47px;inset-inline-start:223.45px;left:223.45px;overflow-x:visible;overflow-y:visible;perspective-origin:0px 0px;pointer-events:bounding-box;top:253.47px;transform:matrix(1, 0, 0, 1, 0, 0);transform-origin:0px 0px;width:261.55px;x:223.45px;y:253.47px;"><g font-size="32px" font-family="Staatliches" font-weight="400" font-style="normal" data-horizontal-grow="left" zoom="1" root="[object Object]" style="block-size:auto;fill:rgb(73, 70, 66);font-family:Staatliches;font-size:32px;height:auto;inline-size:auto;overflow-clip-margin:0px;overflow-x:visible;overflow-y:visible;perspective-origin:0px 0px;pointer-events:bounding-box;transform-origin:0px 0px;width:auto;"><path d="M6.93 44.21L2.28 44.21Q1.91 44.21 1.91 43.88L1.91 43.88L1.86 12.19Q1.86 11.82 2.23 11.82L2.23 11.82L6.42 11.82L14.29 30.16L14.05 12.19Q14.05 11.82 14.47 11.82L14.47 11.82L19.08 11.82Q19.36 11.82 19.36 12.19L19.36 12.19L19.41 43.93Q19.41 44.21 19.17 44.21L19.17 44.21L15.08 44.21L7.03 27.08L7.35 43.84Q7.35 44.21 6.93 44.21L6.93 44.21ZM26.24 43.98L26.24 43.98L32.01 12.01Q32.05 11.82 32.24 11.82L32.24 11.82L38.99 11.82Q39.17 11.82 39.22 12.01L39.22 12.01L44.76 43.98Q44.80 44.21 44.57 44.21L44.57 44.21L39.41 44.21Q39.22 44.21 39.17 43.98L39.17 43.98L38.66 40.58L32.33 40.58L31.82 43.98Q31.77 44.21 31.59 44.21L31.59 44.21L26.42 44.21Q26.24 44.21 26.24 43.98ZM35.36 22.52L33.26 35.60L37.73 35.60L35.82 22.52L35.54 20.80L35.36 22.52ZM59.92 44.21L54.29 44.21Q54.10 44.21 54.05 43.98L54.05 43.98L47.63 12.01Q47.58 11.82 47.82 11.82L47.82 11.82L53.08 11.82Q53.26 11.82 53.31 12.01L53.31 12.01L57.12 33.32L60.85 12.01Q60.89 11.82 61.08 11.82L61.08 11.82L66.29 11.82Q66.53 11.82 66.48 12.01L66.48 12.01L60.15 43.98Q60.10 44.21 59.92 44.21L59.92 44.21ZM79.08 44.21L73.82 44.21Q73.59 44.21 73.59 43.98L73.59 43.98L73.63 12.01Q73.63 11.82 73.82 11.82L73.82 11.82L79.03 11.82Q79.22 11.82 79.22 12.01L79.22 12.01L79.26 43.98Q79.26 44.21 79.08 44.21L79.08 44.21ZM96.24 44.68L96.24 44.68Q93.73 44.68 91.68 43.42Q89.63 42.16 88.40 40.05Q87.16 37.93 87.16 35.32L87.16 35.32L87.16 20.57Q87.16 18.06 88.40 15.94Q89.63 13.82 91.70 12.57Q93.77 11.31 96.24 11.31L96.24 11.31Q98.80 11.31 100.87 12.54Q102.94 13.78 104.15 15.87Q105.36 17.96 105.36 20.57L105.36 20.57L105.36 22.71Q105.36 22.90 105.13 22.90L105.13 22.90L99.92 22.90Q99.73 22.90 99.73 22.71L99.73 22.71L99.73 20.94Q99.73 19.17 98.73 18.01Q97.73 16.85 96.24 16.85L96.24 16.85Q94.89 16.85 93.84 17.96Q92.80 19.08 92.80 20.57L92.80 20.57L92.80 35.32Q92.80 36.86 93.82 37.95Q94.84 39.04 96.24 39.04L96.24 39.04Q97.73 39.04 98.73 37.97Q99.73 36.90 99.73 35.32L99.73 35.32L99.73 33.04L96.47 33.04Q96.24 33.04 96.24 32.81L96.24 32.81L96.24 27.60Q96.24 27.36 96.47 27.36L96.47 27.36L105.17 27.36Q105.36 27.36 105.36 27.60L105.36 27.60L105.36 35.32Q105.36 37.93 104.13 40.05Q102.89 42.16 100.85 43.42Q98.80 44.68 96.24 44.68ZM110.61 43.98L110.61 43.98L116.38 12.01Q116.42 11.82 116.61 11.82L116.61 11.82L123.36 11.82Q123.54 11.82 123.59 12.01L123.59 12.01L129.13 43.98Q129.18 44.21 128.94 44.21L128.94 44.21L123.78 44.21Q123.59 44.21 123.54 43.98L123.54 43.98L123.03 40.58L116.70 40.58L116.19 43.98Q116.15 44.21 115.96 44.21L115.96 44.21L110.79 44.21Q110.61 44.21 110.61 43.98ZM119.73 22.52L117.63 35.60L122.10 35.60L120.19 22.52L119.92 20.80L119.73 22.52ZM141.87 44.21L136.61 44.21Q136.42 44.21 136.42 43.98L136.42 43.98L136.52 12.01Q136.52 11.82 136.70 11.82L136.70 11.82L146.10 11.82Q148.62 11.82 150.73 13.05Q152.85 14.29 154.11 16.36Q155.36 18.43 155.36 21.03L155.36 21.03Q155.36 22.76 154.85 24.13Q154.34 25.50 153.64 26.46Q152.94 27.41 152.39 27.88L152.39 27.88Q154.90 30.67 154.90 34.44L154.90 34.44L154.95 43.98Q154.95 44.21 154.71 44.21L154.71 44.21L149.45 44.21Q149.27 44.21 149.27 44.07L149.27 44.07L149.27 34.44Q149.27 32.76 148.08 31.53Q146.90 30.30 145.17 30.30L145.17 30.30L142.10 30.30L142.06 43.98Q142.06 44.21 141.87 44.21L141.87 44.21ZM142.10 17.40L142.10 24.71L146.10 24.71Q147.55 24.71 148.66 23.64Q149.78 22.57 149.78 21.03L149.78 21.03Q149.78 19.55 148.69 18.48Q147.59 17.40 146.10 17.40L146.10 17.40L142.10 17.40ZM172.20 44.21L166.94 44.21Q166.75 44.21 166.75 43.98L166.75 43.98L166.75 17.45L160.70 17.45Q160.47 17.45 160.47 17.22L160.47 17.22L160.52 12.01Q160.52 11.82 160.70 11.82L160.70 11.82L178.39 11.82Q178.62 11.82 178.62 12.01L178.62 12.01L178.62 17.22Q178.62 17.45 178.44 17.45L178.44 17.45L172.34 17.45L172.39 43.98Q172.39 44.21 172.20 44.21L172.20 44.21ZM188.85 44.21L183.59 44.21Q183.40 44.21 183.40 44.02L183.40 44.02L183.40 38.77Q183.40 38.58 183.59 38.58L183.59 38.58L188.85 38.58Q189.03 38.58 189.03 38.77L189.03 38.77L189.03 44.02Q189.03 44.21 188.85 44.21L188.85 44.21ZM202.29 44.21L197.63 44.21Q197.26 44.21 197.26 43.88L197.26 43.88L197.21 12.19Q197.21 11.82 197.59 11.82L197.59 11.82L201.77 11.82L209.64 30.16L209.41 12.19Q209.41 11.82 209.83 11.82L209.83 11.82L214.43 11.82Q214.71 11.82 214.71 12.19L214.71 12.19L214.76 43.93Q214.76 44.21 214.53 44.21L214.53 44.21L210.43 44.21L202.38 27.08L202.70 43.84Q202.70 44.21 202.29 44.21L202.29 44.21ZM238.39 44.21L223.36 44.21Q223.17 44.21 223.17 43.98L223.17 43.98L223.22 12.01Q223.22 11.82 223.40 11.82L223.40 11.82L238.34 11.82Q238.53 11.82 238.53 12.05L238.53 12.05L238.53 17.27Q238.53 17.45 238.34 17.45L238.34 17.45L228.80 17.45L228.80 24.71L238.34 24.71Q238.53 24.71 238.53 24.90L238.53 24.90L238.57 30.16Q238.57 30.34 238.39 30.34L238.39 30.34L228.80 30.34L228.80 38.49L238.39 38.49Q238.57 38.49 238.57 38.72L238.57 38.72L238.57 44.02Q238.57 44.21 238.39 44.21L238.39 44.21ZM256.99 44.21L251.73 44.21Q251.55 44.21 251.55 43.98L251.55 43.98L251.55 17.45L245.50 17.45Q245.26 17.45 245.26 17.22L245.26 17.22L245.31 12.01Q245.31 11.82 245.50 11.82L245.50 11.82L263.18 11.82Q263.41 11.82 263.41 12.01L263.41 12.01L263.41 17.22Q263.41 17.45 263.23 17.45L263.23 17.45L257.13 17.45L257.18 43.98Q257.18 44.21 256.99 44.21L256.99 44.21Z" transform="translate(0, 0)" style="block-size:auto;d:path(&quot;M 6.93 44.21 L 2.28 44.21 Q 1.91 44.21 1.91 43.88 L 1.91 43.88 L 1.86 12.19 Q 1.86 11.82 2.23 11.82 L 2.23 11.82 L 6.42 11.82 L 14.29 30.16 L 14.05 12.19 Q 14.05 11.82 14.47 11.82 L 14.47 11.82 L 19.08 11.82 Q 19.36 11.82 19.36 12.19 L 19.36 12.19 L 19.41 43.93 Q 19.41 44.21 19.17 44.21 L 19.17 44.21 L 15.08 44.21 L 7.03 27.08 L 7.35 43.84 Q 7.35 44.21 6.93 44.21 L 6.93 44.21 Z M 26.24 43.98 L 26.24 43.98 L 32.01 12.01 Q 32.05 11.82 32.24 11.82 L 32.24 11.82 L 38.99 11.82 Q 39.17 11.82 39.22 12.01 L 39.22 12.01 L 44.76 43.98 Q 44.8 44.21 44.57 44.21 L 44.57 44.21 L 39.41 44.21 Q 39.22 44.21 39.17 43.98 L 39.17 43.98 L 38.66 40.58 L 32.33 40.58 L 31.82 43.98 Q 31.77 44.21 31.59 44.21 L 31.59 44.21 L 26.42 44.21 Q 26.24 44.21 26.24 43.98 Z M 35.36 22.52 L 33.26 35.6 L 37.73 35.6 L 35.82 22.52 L 35.54 20.8 L 35.36 22.52 Z M 59.92 44.21 L 54.29 44.21 Q 54.1 44.21 54.05 43.98 L 54.05 43.98 L 47.63 12.01 Q 47.58 11.82 47.82 11.82 L 47.82 11.82 L 53.08 11.82 Q 53.26 11.82 53.31 12.01 L 53.31 12.01 L 57.12 33.32 L 60.85 12.01 Q 60.89 11.82 61.08 11.82 L 61.08 11.82 L 66.29 11.82 Q 66.53 11.82 66.48 12.01 L 66.48 12.01 L 60.15 43.98 Q 60.1 44.21 59.92 44.21 L 59.92 44.21 Z M 79.08 44.21 L 73.82 44.21 Q 73.59 44.21 73.59 43.98 L 73.59 43.98 L 73.63 12.01 Q 73.63 11.82 73.82 11.82 L 73.82 11.82 L 79.03 11.82 Q 79.22 11.82 79.22 12.01 L 79.22 12.01 L 79.26 43.98 Q 79.26 44.21 79.08 44.21 L 79.08 44.21 Z M 96.24 44.68 L 96.24 44.68 Q 93.73 44.68 91.68 43.42 Q 89.63 42.16 88.4 40.05 Q 87.16 37.93 87.16 35.32 L 87.16 35.32 L 87.16 20.57 Q 87.16 18.06 88.4 15.94 Q 89.63 13.82 91.7 12.57 Q 93.77 11.31 96.24 11.31 L 96.24 11.31 Q 98.8 11.31 100.87 12.54 Q 102.94 13.78 104.15 15.87 Q 105.36 17.96 105.36 20.57 L 105.36 20.57 L 105.36 22.71 Q 105.36 22.9 105.13 22.9 L 105.13 22.9 L 99.92 22.9 Q 99.73 22.9 99.73 22.71 L 99.73 22.71 L 99.73 20.94 Q 99.73 19.17 98.73 18.01 Q 97.73 16.85 96.24 16.85 L 96.24 16.85 Q 94.89 16.85 93.84 17.96 Q 92.8 19.08 92.8 20.57 L 92.8 20.57 L 92.8 35.32 Q 92.8 36.86 93.82 37.95 Q 94.84 39.04 96.24 39.04 L 96.24 39.04 Q 97.73 39.04 98.73 37.97 Q 99.73 36.9 99.73 35.32 L 99.73 35.32 L 99.73 33.04 L 96.47 33.04 Q 96.24 33.04 96.24 32.81 L 96.24 32.81 L 96.24 27.6 Q 96.24 27.36 96.47 27.36 L 96.47 27.36 L 105.17 27.36 Q 105.36 27.36 105.36 27.6 L 105.36 27.6 L 105.36 35.32 Q 105.36 37.93 104.13 40.05 Q 102.89 42.16 100.85 43.42 Q 98.8 44.68 96.24 44.68 Z M 110.61 43.98 L 110.61 43.98 L 116.38 12.01 Q 116.42 11.82 116.61 11.82 L 116.61 11.82 L 123.36 11.82 Q 123.54 11.82 123.59 12.01 L 123.59 12.01 L 129.13 43.98 Q 129.18 44.21 128.94 44.21 L 128.94 44.21 L 123.78 44.21 Q 123.59 44.21 123.54 43.98 L 123.54 43.98 L 123.03 40.58 L 116.7 40.58 L 116.19 43.98 Q 116.15 44.21 115.96 44.21 L 115.96 44.21 L 110.79 44.21 Q 110.61 44.21 110.61 43.98 Z M 119.73 22.52 L 117.63 35.6 L 122.1 35.6 L 120.19 22.52 L 119.92 20.8 L 119.73 22.52 Z M 141.87 44.21 L 136.61 44.21 Q 136.42 44.21 136.42 43.98 L 136.42 43.98 L 136.52 12.01 Q 136.52 11.82 136.7 11.82 L 136.7 11.82 L 146.1 11.82 Q 148.62 11.82 150.73 13.05 Q 152.85 14.29 154.11 16.36 Q 155.36 18.43 155.36 21.03 L 155.36 21.03 Q 155.36 22.76 154.85 24.13 Q 154.34 25.5 153.64 26.46 Q 152.94 27.41 152.39 27.88 L 152.39 27.88 Q 154.9 30.67 154.9 34.44 L 154.9 34.44 L 154.95 43.98 Q 154.95 44.21 154.71 44.21 L 154.71 44.21 L 149.45 44.21 Q 149.27 44.21 149.27 44.07 L 149.27 44.07 L 149.27 34.44 Q 149.27 32.76 148.08 31.53 Q 146.9 30.3 145.17 30.3 L 145.17 30.3 L 142.1 30.3 L 142.06 43.98 Q 142.06 44.21 141.87 44.21 L 141.87 44.21 Z M 142.1 17.4 L 142.1 24.71 L 146.1 24.71 Q 147.55 24.71 148.66 23.64 Q 149.78 22.57 149.78 21.03 L 149.78 21.03 Q 149.78 19.55 148.69 18.48 Q 147.59 17.4 146.1 17.4 L 146.1 17.4 L 142.1 17.4 Z M 172.2 44.21 L 166.94 44.21 Q 166.75 44.21 166.75 43.98 L 166.75 43.98 L 166.75 17.45 L 160.7 17.45 Q 160.47 17.45 160.47 17.22 L 160.47 17.22 L 160.52 12.01 Q 160.52 11.82 160.7 11.82 L 160.7 11.82 L 178.39 11.82 Q 178.62 11.82 178.62 12.01 L 178.62 12.01 L 178.62 17.22 Q 178.62 17.45 178.44 17.45 L 178.44 17.45 L 172.34 17.45 L 172.39 43.98 Q 172.39 44.21 172.2 44.21 L 172.2 44.21 Z M 188.85 44.21 L 183.59 44.21 Q 183.4 44.21 183.4 44.02 L 183.4 44.02 L 183.4 38.77 Q 183.4 38.58 183.59 38.58 L 183.59 38.58 L 188.85 38.58 Q 189.03 38.58 189.03 38.77 L 189.03 38.77 L 189.03 44.02 Q 189.03 44.21 188.85 44.21 L 188.85 44.21 Z M 202.29 44.21 L 197.63 44.21 Q 197.26 44.21 197.26 43.88 L 197.26 43.88 L 197.21 12.19 Q 197.21 11.82 197.59 11.82 L 197.59 11.82 L 201.77 11.82 L 209.64 30.16 L 209.41 12.19 Q 209.41 11.82 209.83 11.82 L 209.83 11.82 L 214.43 11.82 Q 214.71 11.82 214.71 12.19 L 214.71 12.19 L 214.76 43.93 Q 214.76 44.21 214.53 44.21 L 214.53 44.21 L 210.43 44.21 L 202.38 27.08 L 202.7 43.84 Q 202.7 44.21 202.29 44.21 L 202.29 44.21 Z M 238.39 44.21 L 223.36 44.21 Q 223.17 44.21 223.17 43.98 L 223.17 43.98 L 223.22 12.01 Q 223.22 11.82 223.4 11.82 L 223.4 11.82 L 238.34 11.82 Q 238.53 11.82 238.53 12.05 L 238.53 12.05 L 238.53 17.27 Q 238.53 17.45 238.34 17.45 L 238.34 17.45 L 228.8 17.45 L 228.8 24.71 L 238.34 24.71 Q 238.53 24.71 238.53 24.9 L 238.53 24.9 L 238.57 30.16 Q 238.57 30.34 238.39 30.34 L 238.39 30.34 L 228.8 30.34 L 228.8 38.49 L 238.39 38.49 Q 238.57 38.49 238.57 38.72 L 238.57 38.72 L 238.57 44.02 Q 238.57 44.21 238.39 44.21 L 238.39 44.21 Z M 256.99 44.21 L 251.73 44.21 Q 251.55 44.21 251.55 43.98 L 251.55 43.98 L 251.55 17.45 L 245.5 17.45 Q 245.26 17.45 245.26 17.22 L 245.26 17.22 L 245.31 12.01 Q 245.31 11.82 245.5 11.82 L 245.5 11.82 L 263.18 11.82 Q 263.41 11.82 263.41 12.01 L 263.41 12.01 L 263.41 17.22 Q 263.41 17.45 263.23 17.45 L 263.23 17.45 L 257.13 17.45 L 257.18 43.98 Q 257.18 44.21 256.99 44.21 L 256.99 44.21 Z&quot;);fill:rgb(73, 70, 66);font-family:Staatliches;font-size:32px;height:auto;inline-size:auto;overflow-clip-margin:0px;overflow-x:visible;overflow-y:visible;perspective-origin:0px 0px;pointer-events:bounding-box;transform:matrix(1, 0, 0, 1, 0, 0);transform-origin:0px 0px;width:auto;"/></g></svg></g></svg>
