<?xml version="1.0" standalone="no"?><!DOCTYPE svg PUBLIC "-//W3C//DTD SVG 1.1//EN" "http://www.w3.org/Graphics/SVG/1.1/DTD/svg11.dtd"><svg viewBox="0 0 575 575" class="roots-wrapper" version="1.1" xmlns="http://www.w3.org/2000/svg" xmlns:xlink="http://www.w3.org/1999/xlink" style="block-size:432.2px;height:432.2px;inline-size:432.2px;perspective-origin:216.1px 216.1px;pointer-events:bounding-box;transform-origin:216.1px 216.1px;width:432.2px;"><g transform="rotate(0 287.5 223.7002675189655)" style="block-size:auto;height:auto;inline-size:auto;overflow-clip-margin:0px;overflow-x:visible;overflow-y:visible;perspective-origin:0px 0px;pointer-events:bounding-box;transform:matrix(1, 0, 0, 1, 0, 0);transform-origin:0px 0px;width:auto;"><svg viewBoxSize="575" data-root-id="5380655244541" xmlns="http://www.w3.org/2000/svg" id="Layer_1" dataName="Layer 1" viewBox="0 0 392.41 392.41" height="197.49999999999997" width="197.49999999999997" y="124.9502675189655" x="188.75" preserveAspectRatio="xMinYMin" zoom="1" editorType="buyer" data-layer-role="icon" style="block-size:197.5px;display:block;height:197.5px;inline-size:197.5px;inset-block-start:124.95px;inset-inline-start:188.75px;left:188.75px;perspective-origin:0px 0px;pointer-events:bounding-box;top:124.95px;transform:matrix(1, 0, 0, 1, 0, 0);transform-origin:0px 0px;width:197.5px;x:188.75px;y:124.95px;"><path class="cls-1" d="M256,402.84a145.9,145.9,0,0,1-103.83-43A4.11,4.11,0,1,1,158,354a138.62,138.62,0,0,0,196,0,4.11,4.11,0,0,1,5.82,5.81A145.89,145.89,0,0,1,256,402.84Z" transform="translate(-59.79 -59.79)" name="Layer %{number}" zoom="1" data-layer-id="3552659444541" style="block-size:auto;d:path(&quot;M 256 402.84 A 145.9 145.9 0 0 1 152.17 359.84 A 4.11 4.11 0 1 1 158 354 A 138.62 138.62 0 0 0 354 354 A 4.11 4.11 0 0 1 359.82 359.81 A 145.89 145.89 0 0 1 256 402.84 Z&quot;);fill:rgb(69, 69, 70);height:auto;inline-size:auto;overflow-clip-margin:0px;overflow-x:visible;overflow-y:visible;perspective-origin:0px 0px;pointer-events:bounding-box;transform:matrix(1, 0, 0, 1, -59.79, -59.79);transform-origin:0px 0px;width:auto;"/><path class="cls-1" d="M144.33,349a4.1,4.1,0,0,1-3.22-1.55,145.24,145.24,0,0,1-32-91.46c0-81,65.88-146.85,146.85-146.85S402.85,175,402.85,256a145.26,145.26,0,0,1-32,91.46,4.11,4.11,0,0,1-6.43-5.13A137.14,137.14,0,0,0,394.62,256c0-76.44-62.19-138.62-138.62-138.62S117.38,179.56,117.38,256a137.19,137.19,0,0,0,30.16,86.34,4.11,4.11,0,0,1-3.21,6.67Z" transform="translate(-59.79 -59.79)" name="Layer %{number}" zoom="1" data-layer-id="9070006844541" style="block-size:auto;d:path(&quot;M 144.33 349 A 4.1 4.1 0 0 1 141.11 347.45 A 145.24 145.24 0 0 1 109.11 255.99 C 109.11 174.99 174.99 109.14 255.96 109.14 S 402.85 175 402.85 256 A 145.26 145.26 0 0 1 370.85 347.46 A 4.11 4.11 0 0 1 364.42 342.33 A 137.14 137.14 0 0 0 394.62 256 C 394.62 179.56 332.43 117.38 256 117.38 S 117.38 179.56 117.38 256 A 137.19 137.19 0 0 0 147.54 342.34 A 4.11 4.11 0 0 1 144.33 349.01 Z&quot;);fill:rgb(69, 69, 70);height:auto;inline-size:auto;overflow-clip-margin:0px;overflow-x:visible;overflow-y:visible;perspective-origin:0px 0px;pointer-events:bounding-box;transform:matrix(1, 0, 0, 1, -59.79, -59.79);transform-origin:0px 0px;width:auto;"/><path class="cls-1" d="M265.6,117.38a4.11,4.11,0,0,1-4.12-4.11V73.5a5.49,5.49,0,0,0-11,0v39.77a4.11,4.11,0,1,1-8.22,0V73.5a13.71,13.71,0,1,1,27.42,0v39.77A4.11,4.11,0,0,1,265.6,117.38Z" transform="translate(-59.79 -59.79)" name="Layer %{number}" zoom="1" data-layer-id="4876292644541" style="block-size:auto;d:path(&quot;M 265.6 117.38 A 4.11 4.11 0 0 1 261.48 113.27 V 73.5 A 5.49 5.49 0 0 0 250.48 73.5 V 113.27 A 4.11 4.11 0 1 1 242.26 113.27 V 73.5 A 13.71 13.71 0 1 1 269.68 73.5 V 113.27 A 4.11 4.11 0 0 1 265.6 117.38 Z&quot;);fill:rgb(69, 69, 70);height:auto;inline-size:auto;overflow-clip-margin:0px;overflow-x:visible;overflow-y:visible;perspective-origin:0px 0px;pointer-events:bounding-box;transform:matrix(1, 0, 0, 1, -59.79, -59.79);transform-origin:0px 0px;width:auto;"/><path class="cls-1" d="M256,452.21a13.73,13.73,0,0,1-13.71-13.71V398.73a4.11,4.11,0,1,1,8.22,0V438.5a5.49,5.49,0,0,0,11,0V398.73a4.12,4.12,0,0,1,8.23,0V438.5A13.73,13.73,0,0,1,256,452.21Z" transform="translate(-59.79 -59.79)" name="Layer %{number}" zoom="1" data-layer-id="8341556744541" style="block-size:auto;d:path(&quot;M 256 452.21 A 13.73 13.73 0 0 1 242.29 438.5 V 398.73 A 4.11 4.11 0 1 1 250.51 398.73 V 438.5 A 5.49 5.49 0 0 0 261.51 438.5 V 398.73 A 4.12 4.12 0 0 1 269.74 398.73 V 438.5 A 13.73 13.73 0 0 1 256 452.21 Z&quot;);fill:rgb(69, 69, 70);height:auto;inline-size:auto;overflow-clip-margin:0px;overflow-x:visible;overflow-y:visible;perspective-origin:0px 0px;pointer-events:bounding-box;transform:matrix(1, 0, 0, 1, -59.79, -59.79);transform-origin:0px 0px;width:auto;"/><path class="cls-1" d="M113.27,269.71H73.5a13.71,13.71,0,0,1,0-27.42h39.77a4.11,4.11,0,1,1,0,8.22H73.5a5.49,5.49,0,0,0,0,11h39.77a4.12,4.12,0,0,1,0,8.23Z" transform="translate(-59.79 -59.79)" name="Layer %{number}" zoom="1" data-layer-id="3877874744541" style="block-size:auto;d:path(&quot;M 113.27 269.71 H 73.5 A 13.71 13.71 0 0 1 73.5 242.29 H 113.27 A 4.11 4.11 0 1 1 113.27 250.51 H 73.5 A 5.49 5.49 0 0 0 73.5 261.51 H 113.27 A 4.12 4.12 0 0 1 113.27 269.74 Z&quot;);fill:rgb(69, 69, 70);height:auto;inline-size:auto;overflow-clip-margin:0px;overflow-x:visible;overflow-y:visible;perspective-origin:0px 0px;pointer-events:bounding-box;transform:matrix(1, 0, 0, 1, -59.79, -59.79);transform-origin:0px 0px;width:auto;"/><path class="cls-1" d="M438.5,269.71H398.73a4.12,4.12,0,0,1,0-8.23H438.5a5.49,5.49,0,0,0,0-11H398.73a4.11,4.11,0,0,1,0-8.22H438.5a13.71,13.71,0,0,1,0,27.42Z" transform="translate(-59.79 -59.79)" name="Layer %{number}" zoom="1" data-layer-id="6696208144541" style="block-size:auto;d:path(&quot;M 438.5 269.71 H 398.73 A 4.12 4.12 0 0 1 398.73 261.48 H 438.5 A 5.49 5.49 0 0 0 438.5 250.48 H 398.73 A 4.11 4.11 0 0 1 398.73 242.26 H 438.5 A 13.71 13.71 0 0 1 438.5 269.68 Z&quot;);fill:rgb(69, 69, 70);height:auto;inline-size:auto;overflow-clip-margin:0px;overflow-x:visible;overflow-y:visible;perspective-origin:0px 0px;pointer-events:bounding-box;transform:matrix(1, 0, 0, 1, -59.79, -59.79);transform-origin:0px 0px;width:auto;"/><path class="cls-1" d="M256,402.84a4.11,4.11,0,0,1-4.11-4.11V118.84a4.11,4.11,0,0,1,8.22,0V398.73A4.11,4.11,0,0,1,256,402.84Z" transform="translate(-59.79 -59.79)" name="Layer %{number}" zoom="1" data-layer-id="3530043344541" style="block-size:auto;d:path(&quot;M 256 402.84 A 4.11 4.11 0 0 1 251.89 398.73 V 118.84 A 4.11 4.11 0 0 1 260.11 118.84 V 398.73 A 4.11 4.11 0 0 1 256 402.84 Z&quot;);fill:rgb(69, 69, 70);height:auto;inline-size:auto;overflow-clip-margin:0px;overflow-x:visible;overflow-y:visible;perspective-origin:0px 0px;pointer-events:bounding-box;transform:matrix(1, 0, 0, 1, -59.79, -59.79);transform-origin:0px 0px;width:auto;"/><path class="cls-1" d="M396.68,260.11H113.27a4.11,4.11,0,1,1,0-8.22H396.68a4.11,4.11,0,1,1,0,8.22Z" transform="translate(-59.79 -59.79)" name="Layer %{number}" zoom="1" data-layer-id="8102708844541" style="block-size:auto;d:path(&quot;M 396.68 260.11 H 113.27 A 4.11 4.11 0 1 1 113.27 251.89 H 396.68 A 4.11 4.11 0 1 1 396.68 260.11 Z&quot;);fill:rgb(69, 69, 70);height:auto;inline-size:auto;overflow-clip-margin:0px;overflow-x:visible;overflow-y:visible;perspective-origin:0px 0px;pointer-events:bounding-box;transform:matrix(1, 0, 0, 1, -59.79, -59.79);transform-origin:0px 0px;width:auto;"/><path class="cls-1" d="M386.94,391.05a4.07,4.07,0,0,1-2.91-1.21l-128-128-128,128a4.11,4.11,0,0,1-6.61-4.69l83.87-174.1L152.17,158a4.11,4.11,0,0,1,5.81-5.82l51,51,43.28-89.84a4.12,4.12,0,0,1,7.42,0L303,203.2l51-51a4.12,4.12,0,0,1,5.82,5.82l-53.07,53.07,83.87,174.1a4.12,4.12,0,0,1-3.7,5.9ZM211.39,217.21,139.28,366.9,250.18,256ZM261.82,256l110.9,110.9L300.6,217.21Zm-46.64-46.64L256,250.18l40.82-40.82L256,124.62Z" transform="translate(-59.79 -59.79)" name="Layer %{number}" zoom="1" data-layer-id="1233040644541" style="block-size:auto;d:path(&quot;M 386.94 391.05 A 4.07 4.07 0 0 1 384.03 389.84 L 256.03 261.84 L 128.03 389.84 A 4.11 4.11 0 0 1 121.42 385.15 L 205.29 211.05 L 152.17 158 A 4.11 4.11 0 0 1 157.98 152.18 L 208.98 203.18 L 252.26 113.34 A 4.12 4.12 0 0 1 259.68 113.34 L 303 203.2 L 354 152.2 A 4.12 4.12 0 0 1 359.82 158.02 L 306.75 211.09 L 390.62 385.19 A 4.12 4.12 0 0 1 386.92 391.09 Z M 211.39 217.21 L 139.28 366.9 L 250.18 256 Z M 261.82 256 L 372.72 366.9 L 300.6 217.21 Z M 215.18 209.36 L 256 250.18 L 296.82 209.36 L 256 124.62 Z&quot;);fill:rgb(69, 69, 70);height:auto;inline-size:auto;overflow-clip-margin:0px;overflow-x:visible;overflow-y:visible;perspective-origin:0px 0px;pointer-events:bounding-box;transform:matrix(1, 0, 0, 1, -59.79, -59.79);transform-origin:0px 0px;width:auto;"/><path class="cls-1" d="M256,366.26a110.27,110.27,0,0,1-18.08-219,4.11,4.11,0,1,1,1.34,8.12,102,102,0,1,0,33.48,0,4.11,4.11,0,1,1,1.34-8.12A110.27,110.27,0,0,1,256,366.26Z" transform="translate(-59.79 -59.79)" name="Layer %{number}" zoom="1" data-layer-id="5062024744541" style="block-size:auto;d:path(&quot;M 256 366.26 A 110.27 110.27 0 0 1 237.92 147.26 A 4.11 4.11 0 1 1 239.26 155.38 A 102 102 0 1 0 272.74 155.38 A 4.11 4.11 0 1 1 274.08 147.26 A 110.27 110.27 0 0 1 256 366.26 Z&quot;);fill:rgb(69, 69, 70);height:auto;inline-size:auto;overflow-clip-margin:0px;overflow-x:visible;overflow-y:visible;perspective-origin:0px 0px;pointer-events:bounding-box;transform:matrix(1, 0, 0, 1, -59.79, -59.79);transform-origin:0px 0px;width:auto;"/><circle class="cls-1" cx="196.21" cy="196.21" r="27.03" name="Layer %{number}" zoom="1" data-layer-id="1436112244541" style="block-size:auto;cx:196.21px;cy:196.21px;fill:rgb(69, 69, 70);height:auto;inline-size:auto;overflow-clip-margin:0px;overflow-x:visible;overflow-y:visible;perspective-origin:0px 0px;pointer-events:bounding-box;r:27.03px;transform-origin:0px 0px;width:auto;"/><path class="cls-1" d="M148.51,166.19a4.09,4.09,0,0,1-2.91-1.2l-28.34-28.34a13.71,13.71,0,0,1,19.39-19.39L165,145.6a4.12,4.12,0,0,1-5.82,5.82l-28.34-28.34a5.48,5.48,0,0,0-7.75,0,5.47,5.47,0,0,0,0,7.75l28.33,28.34a4.11,4.11,0,0,1-2.9,7Z" transform="translate(-59.79 -59.79)" name="Layer %{number}" zoom="1" data-layer-id="2456663144541" style="block-size:auto;d:path(&quot;M 148.51 166.19 A 4.09 4.09 0 0 1 145.6 164.99 L 117.26 136.65 A 13.71 13.71 0 0 1 136.65 117.26 L 165 145.6 A 4.12 4.12 0 0 1 159.18 151.42 L 130.84 123.08 A 5.48 5.48 0 0 0 123.09 123.08 A 5.47 5.47 0 0 0 123.09 130.83 L 151.42 159.17 A 4.11 4.11 0 0 1 148.52 166.17 Z&quot;);fill:rgb(69, 69, 70);height:auto;inline-size:auto;overflow-clip-margin:0px;overflow-x:visible;overflow-y:visible;perspective-origin:0px 0px;pointer-events:bounding-box;transform:matrix(1, 0, 0, 1, -59.79, -59.79);transform-origin:0px 0px;width:auto;"/><path class="cls-1" d="M363.49,166.2a4.11,4.11,0,0,1-2.91-7l28.34-28.35a5.48,5.48,0,0,0-7.75-7.75l-28.35,28.34a4.11,4.11,0,1,1-5.82-5.81l28.35-28.35a13.71,13.71,0,0,1,19.39,19.39L366.39,165A4.09,4.09,0,0,1,363.49,166.2Z" transform="translate(-59.79 -59.79)" name="Layer %{number}" zoom="1" data-layer-id="1606198744541" style="block-size:auto;d:path(&quot;M 363.49 166.2 A 4.11 4.11 0 0 1 360.58 159.2 L 388.92 130.85 A 5.48 5.48 0 0 0 381.17 123.1 L 352.82 151.44 A 4.11 4.11 0 1 1 347 145.63 L 375.35 117.28 A 13.71 13.71 0 0 1 394.74 136.67 L 366.39 165 A 4.09 4.09 0 0 1 363.49 166.2 Z&quot;);fill:rgb(69, 69, 70);height:auto;inline-size:auto;overflow-clip-margin:0px;overflow-x:visible;overflow-y:visible;perspective-origin:0px 0px;pointer-events:bounding-box;transform:matrix(1, 0, 0, 1, -59.79, -59.79);transform-origin:0px 0px;width:auto;"/></svg></g><g transform="rotate(0 287.5 432.412)" style="block-size:auto;height:auto;inline-size:auto;overflow-clip-margin:0px;overflow-x:visible;overflow-y:visible;perspective-origin:0px 0px;pointer-events:bounding-box;transform:matrix(1, 0, 0, 1, 0, 0);transform-origin:0px 0px;width:auto;"><svg viewBoxSize="575" data-root-id="1992544547213" xmlns="http://www.w3.org/2000/svg" y="414.7718701102642" viewBox="1.343017816543579 7.420000076293945 328.6904602050781 35.28000259399414" x="123.15476989746094" height="35.28000259399414" width="328.6904602050781" fontUrl="https://fonts.gstatic.com/s/courgette/v17/wEO_EBrAnc9BLjLQAUkFUfAL3EsHiA.ttf" zoom="1" editorType="buyer" data-layer-role="slogan" style="block-size:35.28px;display:block;height:35.28px;inline-size:328.69px;inset-block-start:414.772px;inset-inline-start:123.155px;left:123.155px;perspective-origin:0px 0px;pointer-events:bounding-box;top:414.772px;transform:matrix(1, 0, 0, 1, 0, 0);transform-origin:0px 0px;width:328.69px;x:123.155px;y:414.772px;"><g data-horizontal-grow="center" zoom="1" root="[object Object]" style="block-size:auto;height:auto;inline-size:auto;overflow-clip-margin:0px;overflow-x:visible;overflow-y:visible;perspective-origin:0px 0px;pointer-events:bounding-box;transform-origin:0px 0px;width:auto;"><path d="M1.38 29.42L1.38 29.42Q1.53 28.34 2.03 26.43Q2.52 24.52 3.29 22.35L3.29 22.35Q5.04 17.38 7.44 13.49L7.44 13.49Q7.77 12.96 8.29 12.88L8.29 12.88Q9.02 12.78 9.58 12.78Q10.14 12.78 10.58 12.90Q11.02 13.03 11.27 13.23L11.27 13.23Q11.77 13.64 11.44 14.11L11.44 14.11Q8.42 18.66 6.17 25.22L6.17 25.22Q5.32 27.72 5.15 28.69Q4.99 29.67 4.91 30.03Q4.84 30.39 4.84 30.65L4.84 30.65Q4.84 31.20 5.54 31.20Q6.24 31.20 7.10 30.88Q7.97 30.55 8.97 29.96Q9.97 29.37 11.05 28.52Q12.12 27.67 13.16 26.61Q14.19 25.55 15.11 24.32Q16.03 23.08 16.71 21.71L16.71 21.71Q18.23 18.71 18.23 15.79L18.23 15.79Q18.23 11.79 14.98 10.47L14.98 10.47Q13.84 10.02 12.62 10.02Q11.39 10.02 10.54 10.18Q9.69 10.34 8.91 10.62L8.91 10.62Q7.32 11.19 6.24 12.14L6.24 12.14Q5.95 12.31 5.55 12.31Q5.15 12.31 4.69 12.07Q4.24 11.84 3.87 11.49L3.87 11.49Q3.04 10.67 3.20 9.92L3.20 9.92Q3.39 8.86 6.40 8.07L6.40 8.07Q8.94 7.42 11.51 7.42Q14.08 7.42 16.14 8.12Q18.20 8.82 19.48 10.01L19.48 10.01Q21.88 12.24 21.88 15.99L21.88 15.99Q21.88 20.96 18.45 25.58L18.45 25.58Q15.29 29.87 10.94 32.09L10.94 32.09Q8.12 33.52 5.75 33.52L5.75 33.52Q3.90 33.52 2.57 32.44L2.57 32.44Q1.13 31.29 1.38 29.42ZM31.74 12.18Q31.37 12.58 30.90 12.82Q30.44 13.06 29.92 13.12Q29.40 13.18 28.94 12.96Q28.49 12.74 28.15 12.34L28.15 12.34Q27.44 11.51 27.44 10.66Q27.44 9.81 27.71 9.38Q27.99 8.96 28.40 8.69L28.40 8.69Q29.20 8.17 29.91 8.17Q30.62 8.17 31.01 8.27Q31.40 8.37 31.74 8.61L31.74 8.61Q32.56 9.16 32.56 9.95Q32.56 10.74 32.33 11.27Q32.11 11.79 31.74 12.18ZM28.32 30.24L28.32 30.24Q28.75 30.24 28.75 30.80L28.75 30.80Q28.75 31.55 28.07 32.36L28.07 32.36Q27.07 33.52 25.38 33.52L25.38 33.52Q23.45 33.52 22.73 31.95L22.73 31.95Q22.47 31.40 22.47 30.62Q22.47 29.84 22.74 28.88Q23.02 27.92 23.42 26.86Q23.83 25.80 24.32 24.72L24.32 24.72L25.20 22.62Q26.17 20.26 26.17 19.51Q26.17 18.76 26.01 18.52Q25.85 18.28 25.67 18.15L25.67 18.15L25.33 17.91Q25.17 17.80 25.17 17.50Q25.17 17.21 25.39 16.94Q25.62 16.68 25.98 16.48L25.98 16.48Q26.73 16.09 27.74 16.09L27.74 16.09Q30.19 16.09 30.19 17.38L30.19 17.38Q30.19 18.88 29.40 20.81Q28.62 22.73 28.07 23.92L28.07 23.92L27.07 26.22Q25.97 28.75 25.97 29.87L25.97 29.87Q25.97 30.60 26.70 30.60L26.70 30.60Q27.42 30.60 27.79 30.42Q28.15 30.24 28.32 30.24ZM31.70 30.42L31.70 30.42Q31.70 29.90 31.93 29.46Q32.16 29.02 32.49 28.72L32.49 28.72Q33.19 28.07 33.96 28.07L33.96 28.07Q34.62 28.07 34.62 28.75L34.62 28.75Q34.62 30.49 35.77 31.17L35.77 31.17Q36.19 31.42 36.64 31.42Q37.09 31.42 37.41 31.32Q37.73 31.22 37.99 31.00L37.99 31.00Q38.59 30.52 38.59 29.85Q38.59 29.19 38.29 28.63Q37.99 28.07 37.54 27.45L37.54 27.45L36.59 26.12Q34.59 23.45 34.59 21.20L34.59 21.20Q34.59 19.33 36.17 17.81L36.17 17.81Q37.98 16.09 40.79 16.09L40.79 16.09Q43.26 16.09 44.65 17.31L44.65 17.31Q45.78 18.30 45.78 19.56L45.78 19.56Q45.78 20.88 44.78 21.66L44.78 21.66Q43.88 22.37 42.98 22.18L42.98 22.18Q42.58 22.10 42.36 21.77Q42.15 21.45 42.28 21.03Q42.41 20.61 42.41 20.16Q42.41 19.71 42.25 19.33Q42.08 18.95 41.79 18.68L41.79 18.68Q41.21 18.13 40.57 18.13Q39.93 18.13 39.51 18.27Q39.09 18.41 38.78 18.68L38.78 18.68Q38.13 19.28 38.13 20.16Q38.13 21.03 38.43 21.66Q38.73 22.30 39.17 22.93Q39.61 23.57 40.13 24.22Q40.64 24.87 41.08 25.58L41.08 25.58Q42.13 27.27 42.13 28.54Q42.13 29.82 41.59 30.68Q41.06 31.54 40.21 32.16L40.21 32.16Q38.39 33.51 36.14 33.51L36.14 33.51Q33.99 33.51 32.74 32.47L32.74 32.47Q31.70 31.60 31.70 30.42ZM46.83 27.60L46.83 27.60Q46.87 26.15 47.29 24.71Q47.72 23.27 48.42 21.98Q49.13 20.70 50.11 19.61Q51.08 18.53 52.24 17.75L52.24 17.75Q54.64 16.09 57.29 16.09L57.29 16.09Q60.02 16.09 61.01 18.28L61.01 18.28Q61.36 19.06 61.33 20.06Q61.31 21.05 61.01 21.87Q60.71 22.70 60.26 23.35L60.26 23.35Q59.24 24.82 58.21 24.82L58.21 24.82Q57.06 24.82 56.50 24.18L56.50 24.18Q56.02 23.63 56.20 22.90L56.20 22.90Q56.25 22.68 56.50 22.51Q56.76 22.33 57.14 21.95L57.14 21.95Q58.22 20.81 58.27 19.30L58.27 19.30Q58.31 18.26 57.01 18.26L57.01 18.26Q55.60 18.26 54.07 19.83L54.07 19.83Q51.84 22.11 50.92 25.68L50.92 25.68Q50.12 28.79 51.22 30.22L51.22 30.22Q51.87 31.05 52.99 31.05L52.99 31.05Q54.87 31.05 56.62 29.72L56.62 29.72Q57.16 29.30 57.49 28.87Q57.82 28.44 58.11 28.44Q58.39 28.44 58.58 28.71Q58.77 28.99 58.77 29.42L58.77 29.42Q58.77 30.40 57.89 31.35L57.89 31.35Q55.62 33.52 52.44 33.52L52.44 33.52Q49.72 33.52 48.23 31.97L48.23 31.97Q46.76 30.44 46.83 27.60ZM64.39 32.22Q63.69 31.55 63.29 30.53Q62.89 29.50 62.88 28.10Q62.86 26.70 63.22 25.27Q63.58 23.83 64.24 22.50Q64.89 21.16 65.82 20.00Q66.75 18.83 67.86 17.96L67.86 17.96Q70.30 16.09 72.92 16.09L72.92 16.09Q76.35 16.09 77.57 19.11L77.57 19.11Q78.44 21.30 77.67 24.40L77.67 24.40Q76.97 27.25 75.10 29.64L75.10 29.64Q73.25 32.02 70.73 33.02L70.73 33.02Q69.46 33.52 68.24 33.52Q67.01 33.52 66.05 33.21Q65.09 32.89 64.39 32.22ZM67.58 24.13Q67.08 25.37 66.79 26.67Q66.49 27.97 66.51 29.13Q66.53 30.29 66.87 30.95Q67.21 31.60 67.98 31.60Q68.75 31.60 69.49 31.08Q70.23 30.55 70.93 29.69Q71.63 28.82 72.25 27.69Q72.87 26.55 73.33 25.32L73.33 25.32Q74.35 22.63 74.32 20.55L74.32 20.55Q74.32 18.71 73.57 18.21L73.57 18.21Q73.27 18.01 72.72 18.01Q72.18 18.01 71.48 18.50Q70.78 19.00 70.08 19.83Q69.38 20.66 68.73 21.78Q68.08 22.90 67.58 24.13ZM80.49 31.74L80.49 31.74Q80.24 31.19 80.24 30.44Q80.24 29.69 80.47 28.78Q80.70 27.87 81.07 26.92Q81.44 25.97 81.89 24.98L81.89 24.98L82.74 23.05Q84.39 19.23 83.96 18.55L83.96 18.55Q83.76 18.23 83.19 17.91L83.19 17.91Q83.01 17.80 83.01 17.50Q83.01 17.21 83.25 16.94Q83.49 16.68 83.89 16.48L83.89 16.48Q84.69 16.09 85.51 16.09Q86.33 16.09 86.75 16.27Q87.18 16.44 87.46 16.71L87.46 16.71Q87.99 17.26 87.99 18.05Q87.99 18.83 87.69 19.81Q87.39 20.80 86.94 21.88Q86.49 22.97 85.96 24.10L85.96 24.10L84.97 26.28Q83.92 28.70 83.92 29.49L83.92 29.49Q83.92 31.02 85.01 31.02L85.01 31.02Q87.79 31.02 90.23 27.72L90.23 27.72Q91.65 25.80 92.26 23.55L92.26 23.55Q92.55 22.48 92.55 21.61Q92.55 20.73 92.49 20.15Q92.43 19.56 92.30 19.11L92.30 19.11Q92.08 18.31 91.56 17.73L91.56 17.73Q91.21 17.30 91.88 16.71L91.88 16.71Q92.61 16.09 93.96 16.09L93.96 16.09Q94.80 16.09 95.43 16.88L95.43 16.88Q96.23 17.81 96.23 19.55Q96.23 21.30 95.71 22.97Q95.20 24.65 94.30 26.19Q93.40 27.74 92.17 29.07Q90.94 30.40 89.53 31.39L89.53 31.39Q86.49 33.52 83.46 33.52L83.46 33.52Q81.27 33.52 80.49 31.74ZM97.93 27.52L97.93 27.52Q98.00 26.07 98.42 24.74Q98.83 23.42 99.53 22.17Q100.23 20.93 101.18 19.82Q102.12 18.71 103.22 17.88L103.22 17.88Q105.60 16.09 108.04 16.09L108.04 16.09Q110.89 16.09 111.84 18.45L111.84 18.45Q112.18 19.25 112.16 20.34Q112.14 21.43 111.74 22.36Q111.34 23.28 110.63 24.04Q109.92 24.80 108.95 25.40Q107.97 26.00 106.82 26.42L106.82 26.42Q104.45 27.25 101.75 27.29L101.75 27.29Q101.69 27.52 101.67 27.99Q101.65 28.45 101.77 29.03Q101.89 29.60 102.17 30.05L102.17 30.05Q102.77 31.05 103.90 31.05L103.90 31.05Q105.84 31.05 107.67 29.92L107.67 29.92Q108.32 29.54 108.73 29.13Q109.14 28.72 109.44 28.72Q109.74 28.72 109.97 29.08Q110.19 29.44 110.19 29.89L110.19 29.89Q110.19 30.77 109.69 31.42L109.69 31.42Q107.59 33.52 103.44 33.52L103.44 33.52Q100.99 33.52 99.50 32.06L99.50 32.06Q97.83 30.39 97.93 27.52ZM107.67 18.31L107.67 18.31Q105.92 18.31 104.30 20.71L104.30 20.71Q102.94 22.78 102.10 25.62L102.10 25.62Q104.89 25.33 106.94 23.42L106.94 23.42Q108.82 21.61 108.82 19.96Q108.82 18.31 107.67 18.31ZM114.03 32.96Q113.69 32.71 113.49 32.40Q113.29 32.09 113.28 31.86Q113.26 31.64 113.37 31.31Q113.48 30.99 113.66 30.52L113.66 30.52Q117.06 22.15 117.06 19.28L117.06 19.28Q117.01 18.48 116.51 18.15L116.51 18.15L116.18 17.91Q116.03 17.80 116.02 17.50Q116.01 17.21 116.23 16.94Q116.45 16.68 116.80 16.48L116.80 16.48Q117.51 16.09 118.27 16.09Q119.03 16.09 119.46 16.26Q119.88 16.43 120.18 16.71L120.18 16.71Q120.82 17.31 120.82 17.98Q120.83 18.65 120.67 19.33Q120.51 20.01 120.30 20.67Q120.08 21.33 119.86 21.92Q119.65 22.52 119.58 22.80L119.58 22.80Q119.45 23.38 119.48 23.53L119.48 23.53Q119.88 23.18 119.96 22.85L119.96 22.85L120.61 21.61Q122.78 17.71 124.85 16.44L124.85 16.44Q125.45 16.09 126.29 16.09Q127.14 16.09 127.65 16.69Q128.17 17.28 128.20 18.00Q128.22 18.71 128.10 19.19Q127.97 19.66 127.72 20.08L127.72 20.08Q127.17 21.01 126.39 21.01L126.39 21.01Q126.17 21.01 125.99 20.86L125.99 20.86L125.62 20.55Q125.07 20.06 124.56 20.06Q124.05 20.06 123.33 20.73Q122.60 21.40 121.82 22.45L121.82 22.45Q119.18 25.93 117.51 30.25L117.51 30.25L116.78 32.19Q116.50 32.91 116.28 33.21Q116.06 33.52 115.64 33.52Q115.21 33.52 114.79 33.36Q114.36 33.21 114.03 32.96ZM141.51 28.72L141.51 28.97Q141.51 30.55 142.71 30.55L142.71 30.55Q144.91 30.55 148.43 25.03L148.43 25.03Q149.48 23.40 150.54 21.58L150.54 21.58L152.57 17.85Q156.94 9.39 157.61 8.21L157.61 8.21Q157.94 7.61 158.56 7.61Q159.17 7.61 159.59 7.78Q160.01 7.96 160.31 8.24L160.31 8.24Q161.01 8.91 160.66 9.57L160.66 9.57Q159.49 11.74 158.49 14.43L158.49 14.43L154.32 26.05Q153.65 27.82 152.94 29.46Q152.22 31.10 151.33 32.72Q150.44 34.34 149.42 35.81Q148.40 37.28 147.28 38.53Q146.17 39.79 145.00 40.73L145.00 40.73Q142.51 42.70 140.24 42.70L140.24 42.70Q139.81 42.70 139.39 42.50Q138.98 42.30 138.89 41.93Q138.81 41.56 139.01 41.43Q139.21 41.29 139.54 41.16L139.54 41.16Q144.15 39.44 148.23 31.99L148.23 31.99Q149.43 29.79 150.45 27.40L150.45 27.40Q151.62 24.32 151.95 23.37L151.95 23.37L150.27 25.93Q145.01 33.52 141.35 33.52L141.35 33.52Q138.86 33.52 138.03 31.35L138.03 31.35Q137.78 30.67 137.78 30.19L137.78 30.19L137.78 29.55Q137.78 27.54 140.13 21.88L140.13 21.88L143.60 13.81Q144.60 11.39 144.60 10.83Q144.60 10.27 144.40 9.99Q144.20 9.71 143.95 9.54L143.95 9.54L143.50 9.21Q143.30 9.07 143.30 8.81Q143.30 8.54 143.56 8.27Q143.83 8.01 144.26 7.81L144.26 7.81Q145.13 7.42 145.97 7.42Q146.82 7.42 147.27 7.60Q147.73 7.77 148.03 8.04L148.03 8.04Q148.62 8.59 148.62 9.36Q148.62 10.14 148.33 11.19Q148.03 12.24 147.56 13.48Q147.08 14.73 146.47 16.11L146.47 16.11L143.93 21.68Q141.51 27.00 141.51 28.72L141.51 28.72ZM159.76 32.22Q159.06 31.55 158.66 30.53Q158.26 29.50 158.24 28.10Q158.22 26.70 158.58 25.27Q158.94 23.83 159.60 22.50Q160.26 21.16 161.18 20.00Q162.11 18.83 163.23 17.96L163.23 17.96Q165.66 16.09 168.28 16.09L168.28 16.09Q171.72 16.09 172.93 19.11L172.93 19.11Q173.80 21.30 173.03 24.40L173.03 24.40Q172.33 27.25 170.47 29.64L170.47 29.64Q168.61 32.02 166.10 33.02L166.10 33.02Q164.83 33.52 163.60 33.52Q162.38 33.52 161.42 33.21Q160.46 32.89 159.76 32.22ZM162.94 24.13Q162.44 25.37 162.15 26.67Q161.86 27.97 161.88 29.13Q161.89 30.29 162.23 30.95Q162.58 31.60 163.34 31.60Q164.11 31.60 164.85 31.08Q165.60 30.55 166.30 29.69Q167.00 28.82 167.61 27.69Q168.23 26.55 168.70 25.32L168.70 25.32Q169.71 22.63 169.68 20.55L169.68 20.55Q169.68 18.71 168.93 18.21L168.93 18.21Q168.63 18.01 168.09 18.01Q167.55 18.01 166.85 18.50Q166.15 19.00 165.45 19.83Q164.74 20.66 164.09 21.78Q163.44 22.90 162.94 24.13ZM191.35 30.07L191.35 30.07Q191.73 30.07 191.73 30.45L191.73 30.45Q191.73 31.90 190.30 32.89L190.30 32.89Q189.33 33.52 188.03 33.52L188.03 33.52Q186.96 33.52 186.39 33.02L186.39 33.02Q185.38 32.12 185.38 30.82L185.38 30.82Q185.38 29.17 186.76 25.77L186.76 25.77Q184.19 29.24 183.16 30.38Q182.12 31.52 181.36 32.16L181.36 32.16Q179.69 33.52 178.34 33.52L178.34 33.52Q176.27 33.52 175.59 31.74L175.59 31.74Q175.39 31.19 175.39 30.48Q175.39 29.77 175.63 28.89Q175.87 28.02 176.25 27.07Q176.64 26.12 177.09 25.12L177.09 25.12L177.99 23.12Q179.72 19.26 179.27 18.55L179.27 18.55Q179.07 18.23 178.52 17.91L178.52 17.91Q178.32 17.80 178.32 17.50Q178.32 17.21 178.56 16.94Q178.80 16.68 179.19 16.48L179.19 16.48Q180.01 16.09 180.82 16.09Q181.64 16.09 182.06 16.27Q182.49 16.44 182.76 16.71L182.76 16.71Q183.31 17.26 183.31 17.93Q183.31 18.60 183.09 19.42Q182.87 20.25 182.52 21.21Q182.17 22.18 181.76 23.22L181.76 23.22Q180.61 25.92 180.21 26.78L180.21 26.78L179.59 28.07Q179.07 29.22 179.07 29.69Q179.07 30.15 179.22 30.35Q179.37 30.54 179.76 30.54Q180.16 30.54 180.67 30.17Q181.19 29.80 181.81 29.19Q182.42 28.57 183.09 27.76Q183.76 26.95 184.39 26.08L184.39 26.08Q185.64 24.38 186.23 23.35L186.23 23.35Q189.76 17.09 190.00 16.81L190.00 16.81Q190.53 16.09 191.09 16.09Q191.65 16.09 192.06 16.22Q192.48 16.34 192.78 16.58L192.78 16.58Q193.48 17.09 193.23 17.61L193.23 17.61Q189.16 26.10 188.84 28.29L188.84 28.29Q188.76 29.04 188.76 29.32L188.76 29.32Q188.76 30.59 189.53 30.59L189.53 30.59Q190.25 30.59 190.71 30.33Q191.18 30.07 191.35 30.07ZM194.73 32.96Q194.40 32.71 194.20 32.40Q194.00 32.09 193.98 31.86Q193.96 31.64 194.07 31.31Q194.18 30.99 194.36 30.52L194.36 30.52Q197.77 22.15 197.77 19.28L197.77 19.28Q197.72 18.48 197.22 18.15L197.22 18.15L196.88 17.91Q196.73 17.80 196.72 17.50Q196.72 17.21 196.93 16.94Q197.15 16.68 197.50 16.48L197.50 16.48Q198.22 16.09 198.98 16.09Q199.74 16.09 200.16 16.26Q200.59 16.43 200.89 16.71L200.89 16.71Q201.52 17.31 201.53 17.98Q201.54 18.65 201.38 19.33Q201.22 20.01 201.00 20.67Q200.79 21.33 200.57 21.92Q200.35 22.52 200.29 22.80L200.29 22.80Q200.15 23.38 200.19 23.53L200.19 23.53Q200.59 23.18 200.67 22.85L200.67 22.85L201.32 21.61Q203.49 17.71 205.56 16.44L205.56 16.44Q206.16 16.09 207.00 16.09Q207.84 16.09 208.36 16.69Q208.87 17.28 208.90 18.00Q208.92 18.71 208.80 19.19Q208.67 19.66 208.42 20.08L208.42 20.08Q207.87 21.01 207.09 21.01L207.09 21.01Q206.87 21.01 206.69 20.86L206.69 20.86L206.32 20.55Q205.77 20.06 205.26 20.06Q204.76 20.06 204.03 20.73Q203.30 21.40 202.52 22.45L202.52 22.45Q199.89 25.93 198.22 30.25L198.22 30.25L197.48 32.19Q197.20 32.91 196.98 33.21Q196.77 33.52 196.34 33.52Q195.92 33.52 195.49 33.36Q195.07 33.21 194.73 32.96ZM219.28 29.42L219.28 29.42Q219.43 28.34 219.92 26.43Q220.42 24.52 221.18 22.35L221.18 22.35Q222.93 17.38 225.34 13.49L225.34 13.49Q225.67 12.96 226.19 12.88L226.19 12.88Q226.92 12.78 227.48 12.78Q228.04 12.78 228.48 12.90Q228.92 13.03 229.17 13.23L229.17 13.23Q229.67 13.64 229.34 14.11L229.34 14.11Q226.32 18.66 224.07 25.22L224.07 25.22Q223.22 27.72 223.05 28.69Q222.88 29.67 222.81 30.03Q222.73 30.39 222.73 30.65L222.73 30.65Q222.73 31.20 223.43 31.20Q224.14 31.20 225.00 30.88Q225.87 30.55 226.87 29.96Q227.87 29.37 228.95 28.52Q230.02 27.67 231.06 26.61Q232.09 25.55 233.01 24.32Q233.92 23.08 234.61 21.71L234.61 21.71Q236.13 18.71 236.13 15.79L236.13 15.79Q236.13 11.79 232.87 10.47L232.87 10.47Q231.74 10.02 230.51 10.02Q229.29 10.02 228.44 10.18Q227.59 10.34 226.80 10.62L226.80 10.62Q225.22 11.19 224.14 12.14L224.14 12.14Q223.85 12.31 223.45 12.31Q223.05 12.31 222.59 12.07Q222.13 11.84 221.77 11.49L221.77 11.49Q220.93 10.67 221.10 9.92L221.10 9.92Q221.28 8.86 224.30 8.07L224.30 8.07Q226.84 7.42 229.41 7.42Q231.97 7.42 234.03 8.12Q236.09 8.82 237.38 10.01L237.38 10.01Q239.78 12.24 239.78 15.99L239.78 15.99Q239.78 20.96 236.34 25.58L236.34 25.58Q233.19 29.87 228.84 32.09L228.84 32.09Q226.02 33.52 223.65 33.52L223.65 33.52Q221.80 33.52 220.47 32.44L220.47 32.44Q219.03 31.29 219.28 29.42ZM240.70 27.52L240.70 27.52Q240.76 26.07 241.18 24.74Q241.60 23.42 242.30 22.17Q243.00 20.93 243.94 19.82Q244.88 18.71 245.98 17.88L245.98 17.88Q248.37 16.09 250.80 16.09L250.80 16.09Q253.65 16.09 254.61 18.45L254.61 18.45Q254.94 19.25 254.92 20.34Q254.91 21.43 254.51 22.36Q254.11 23.28 253.40 24.04Q252.69 24.80 251.71 25.40Q250.74 26.00 249.59 26.42L249.59 26.42Q247.22 27.25 244.52 27.29L244.52 27.29Q244.45 27.52 244.43 27.99Q244.42 28.45 244.53 29.03Q244.65 29.60 244.93 30.05L244.93 30.05Q245.53 31.05 246.67 31.05L246.67 31.05Q248.60 31.05 250.44 29.92L250.44 29.92Q251.09 29.54 251.50 29.13Q251.90 28.72 252.20 28.72Q252.50 28.72 252.73 29.08Q252.95 29.44 252.95 29.89L252.95 29.89Q252.95 30.77 252.45 31.42L252.45 31.42Q250.35 33.52 246.20 33.52L246.20 33.52Q243.75 33.52 242.26 32.06L242.26 32.06Q240.60 30.39 240.70 27.52ZM250.44 18.31L250.44 18.31Q248.68 18.31 247.07 20.71L247.07 20.71Q245.70 22.78 244.87 25.62L244.87 25.62Q247.65 25.33 249.70 23.42L249.70 23.42Q251.59 21.61 251.59 19.96Q251.59 18.31 250.44 18.31ZM255.94 30.42L255.94 30.42Q255.94 29.90 256.17 29.46Q256.39 29.02 256.72 28.72L256.72 28.72Q257.42 28.07 258.19 28.07L258.19 28.07Q258.86 28.07 258.86 28.75L258.86 28.75Q258.86 30.49 260.01 31.17L260.01 31.17Q260.43 31.42 260.88 31.42Q261.33 31.42 261.64 31.32Q261.96 31.22 262.23 31.00L262.23 31.00Q262.83 30.52 262.83 29.85Q262.83 29.19 262.53 28.63Q262.23 28.07 261.78 27.45L261.78 27.45L260.83 26.12Q258.83 23.45 258.83 21.20L258.83 21.20Q258.83 19.33 260.41 17.81L260.41 17.81Q262.21 16.09 265.03 16.09L265.03 16.09Q267.50 16.09 268.88 17.31L268.88 17.31Q270.02 18.30 270.02 19.56L270.02 19.56Q270.02 20.88 269.02 21.66L269.02 21.66Q268.11 22.37 267.21 22.18L267.21 22.18Q266.81 22.10 266.60 21.77Q266.38 21.45 266.51 21.03Q266.65 20.61 266.65 20.16Q266.65 19.71 266.48 19.33Q266.31 18.95 266.03 18.68L266.03 18.68Q265.45 18.13 264.80 18.13Q264.16 18.13 263.75 18.27Q263.33 18.41 263.01 18.68L263.01 18.68Q262.36 19.28 262.36 20.16Q262.36 21.03 262.66 21.66Q262.96 22.30 263.40 22.93Q263.85 23.57 264.36 24.22Q264.88 24.87 265.31 25.58L265.31 25.58Q266.36 27.27 266.36 28.54Q266.36 29.82 265.83 30.68Q265.30 31.54 264.45 32.16L264.45 32.16Q262.63 33.51 260.38 33.51L260.38 33.51Q258.22 33.51 256.97 32.47L256.97 32.47Q255.94 31.60 255.94 30.42ZM280.06 28.99L280.06 28.99Q280.54 28.99 280.54 29.64L280.54 29.64Q280.54 30.19 280.21 30.70L280.21 30.70Q279.76 31.67 278.41 32.54L278.41 32.54Q276.87 33.52 275.32 33.52L275.32 33.52Q272.63 33.52 271.92 31.12L271.92 31.12Q271.07 28.27 274.47 19.03L274.47 19.03Q272.55 18.86 272.38 18.36L272.38 18.36Q272.33 18.21 272.33 18.04Q272.33 17.86 272.49 17.63Q272.65 17.40 272.90 17.18L272.90 17.18Q273.49 16.69 274.09 16.69L274.09 16.69L275.40 16.69Q277.20 12.48 277.97 11.89L277.97 11.89Q278.34 11.62 278.79 11.62Q279.24 11.62 279.54 11.74Q279.84 11.86 280.07 12.07L280.07 12.07Q280.61 12.58 280.61 13.19L280.61 13.19Q280.61 13.53 280.41 13.96L280.41 13.96L279.17 16.64L279.57 16.64Q280.61 16.64 281.24 16.63L281.24 16.63Q281.24 16.63 282.19 16.61L282.19 16.61Q282.51 16.59 282.98 16.59Q283.46 16.59 283.46 16.94L283.46 16.94Q283.46 19.15 278.25 19.15L278.25 19.15L278.12 19.15L276.99 22.08Q275.07 27.29 275.07 29.37L275.07 29.37Q275.07 29.95 275.34 30.28Q275.60 30.60 276.34 30.60Q277.07 30.60 277.67 30.35Q278.27 30.10 278.72 29.80Q279.17 29.49 279.50 29.24Q279.82 28.99 280.06 28.99ZM292.46 12.18Q292.10 12.58 291.63 12.82Q291.16 13.06 290.65 13.12Q290.13 13.18 289.67 12.96Q289.21 12.74 288.88 12.34L288.88 12.34Q288.16 11.51 288.16 10.66Q288.16 9.81 288.44 9.38Q288.71 8.96 289.13 8.69L289.13 8.69Q289.93 8.17 290.64 8.17Q291.35 8.17 291.74 8.27Q292.13 8.37 292.46 8.61L292.46 8.61Q293.28 9.16 293.28 9.95Q293.28 10.74 293.06 11.27Q292.83 11.79 292.46 12.18ZM289.05 30.24L289.05 30.24Q289.48 30.24 289.48 30.80L289.48 30.80Q289.48 31.55 288.80 32.36L288.80 32.36Q287.79 33.52 286.11 33.52L286.11 33.52Q284.18 33.52 283.46 31.95L283.46 31.95Q283.19 31.40 283.19 30.62Q283.19 29.84 283.47 28.88Q283.74 27.92 284.15 26.86Q284.56 25.80 285.04 24.72L285.04 24.72L285.93 22.62Q286.89 20.26 286.89 19.51Q286.89 18.76 286.74 18.52Q286.58 18.28 286.39 18.15L286.39 18.15L286.06 17.91Q285.89 17.80 285.89 17.50Q285.89 17.21 286.12 16.94Q286.34 16.68 286.71 16.48L286.71 16.48Q287.46 16.09 288.46 16.09L288.46 16.09Q290.91 16.09 290.91 17.38L290.91 17.38Q290.91 18.88 290.13 20.81Q289.35 22.73 288.80 23.92L288.80 23.92L287.79 26.22Q286.69 28.75 286.69 29.87L286.69 29.87Q286.69 30.60 287.43 30.60L287.43 30.60Q288.14 30.60 288.51 30.42Q288.88 30.24 289.05 30.24ZM305.26 19.25L305.26 19.25Q304.74 19.25 303.79 20.24Q302.84 21.23 302.14 22.05L302.14 22.05L300.72 23.75L297.98 27.24Q297.02 29.07 296.47 30.29L296.47 30.29L295.57 32.22Q295.22 32.94 294.96 33.23Q294.70 33.52 294.26 33.52Q293.82 33.52 293.41 33.36Q293.00 33.21 292.70 32.96L292.70 32.96Q292.06 32.42 292.06 31.79L292.06 31.79Q292.06 31.54 292.43 30.80L292.43 30.80L293.06 29.45Q293.37 28.85 293.77 27.92L293.77 27.92L294.70 25.63Q296.67 20.71 296.67 19.28L296.67 19.28Q296.67 18.51 296.17 18.15L296.17 18.15L295.83 17.91Q295.67 17.80 295.67 17.50Q295.67 17.21 295.89 16.94Q296.12 16.68 296.48 16.48L296.48 16.48Q297.23 16.09 297.99 16.09Q298.75 16.09 299.17 16.26Q299.59 16.43 299.87 16.71L299.87 16.71Q300.49 17.30 300.49 17.93Q300.49 18.56 300.33 19.20Q300.17 19.85 299.93 20.51Q299.69 21.16 299.42 21.80Q299.15 22.43 298.94 22.90L298.94 22.90L298.60 23.62Q298.47 23.88 298.54 23.78L298.54 23.78Q300.39 21.21 300.97 20.48L300.97 20.48L302.14 19.08Q303.42 17.58 304.16 17.09L304.16 17.09Q305.64 16.09 306.49 16.09Q307.34 16.09 307.93 16.31Q308.51 16.53 308.94 16.93L308.94 16.93Q309.86 17.78 309.86 19.10Q309.86 20.41 309.26 21.85Q308.66 23.28 308.22 24.17Q307.77 25.07 307.37 25.98L307.37 25.98Q306.12 28.77 306.12 30.04L306.12 30.04Q306.12 30.60 307.02 30.60L307.02 30.60Q307.72 30.60 308.30 30.30Q308.88 30.00 309.04 30.00L309.04 30.00Q309.39 30.00 309.39 30.35L309.39 30.35Q309.39 31.84 307.87 32.84L307.87 32.84Q306.86 33.52 306.01 33.52Q305.16 33.52 304.60 33.34Q304.04 33.16 303.61 32.76L303.61 32.76Q302.62 31.87 302.62 30.29L302.62 30.29Q302.62 28.35 303.84 25.45L303.84 25.45Q304.72 23.47 305.09 22.73L305.09 22.73L305.66 21.55Q306.17 20.48 306.17 19.86Q306.17 19.25 305.26 19.25ZM312.36 31.74L312.36 31.74Q312.16 31.19 312.16 30.48Q312.16 29.77 312.40 28.89Q312.64 28.02 313.03 27.07Q313.41 26.12 313.86 25.12L313.86 25.12L314.76 23.12Q316.50 19.26 316.05 18.55L316.05 18.55Q315.85 18.23 315.30 17.91L315.30 17.91Q315.10 17.80 315.10 17.50Q315.10 17.21 315.34 16.94Q315.58 16.68 315.96 16.48L315.96 16.48Q316.78 16.09 317.60 16.09Q318.42 16.09 318.84 16.27Q319.27 16.44 319.53 16.71L319.53 16.71Q320.08 17.26 320.08 17.93Q320.08 18.60 319.87 19.42Q319.65 20.25 319.30 21.21Q318.95 22.18 318.53 23.22L318.53 23.22Q317.38 25.92 316.98 26.78L316.98 26.78L316.36 28.07Q315.85 29.22 315.85 29.69Q315.85 30.15 316.00 30.35Q316.15 30.54 316.54 30.54Q316.93 30.54 317.41 30.24Q317.88 29.94 318.43 29.44Q318.98 28.94 319.57 28.28Q320.17 27.62 320.73 26.90L320.73 26.90Q322.22 25.07 322.94 23.75L322.94 23.75Q326.54 17.11 326.75 16.81L326.75 16.81Q327.30 16.09 327.86 16.09Q328.42 16.09 328.84 16.22Q329.26 16.34 329.56 16.58L329.56 16.58Q330.22 17.06 329.96 17.66Q329.71 18.26 329.34 19.31L329.34 19.31Q326.17 28.50 325.23 30.77Q324.29 33.04 323.59 34.41Q322.89 35.79 321.94 37.19Q321.00 38.59 319.93 39.74L319.93 39.74Q317.50 42.35 315.36 42.53L315.36 42.53Q314.55 42.60 314.06 42.30L314.06 42.30Q313.23 41.79 313.23 41.34L313.23 41.34Q313.23 40.89 313.99 40.72Q314.75 40.54 315.56 40.02Q316.36 39.49 317.11 38.79L317.11 38.79Q319.32 36.69 320.53 34.22L320.53 34.22Q321.57 32.06 322.20 30.12L322.20 30.12L323.50 26.15Q323.02 26.73 322.43 27.52L322.43 27.52L321.23 29.12Q319.67 31.10 318.63 31.94L318.63 31.94Q316.66 33.52 315.11 33.52L315.11 33.52Q313.05 33.52 312.36 31.74Z" transform="translate(0, 0)" style="block-size:auto;d:path(&quot;M 1.38 29.42 L 1.38 29.42 Q 1.53 28.34 2.03 26.43 Q 2.52 24.52 3.29 22.35 L 3.29 22.35 Q 5.04 17.38 7.44 13.49 L 7.44 13.49 Q 7.77 12.96 8.29 12.88 L 8.29 12.88 Q 9.02 12.78 9.58 12.78 Q 10.14 12.78 10.58 12.9 Q 11.02 13.03 11.27 13.23 L 11.27 13.23 Q 11.77 13.64 11.44 14.11 L 11.44 14.11 Q 8.42 18.66 6.17 25.22 L 6.17 25.22 Q 5.32 27.72 5.15 28.69 Q 4.99 29.67 4.91 30.03 Q 4.84 30.39 4.84 30.65 L 4.84 30.65 Q 4.84 31.2 5.54 31.2 Q 6.24 31.2 7.1 30.88 Q 7.97 30.55 8.97 29.96 Q 9.97 29.37 11.05 28.52 Q 12.12 27.67 13.16 26.61 Q 14.19 25.55 15.11 24.32 Q 16.03 23.08 16.71 21.71 L 16.71 21.71 Q 18.23 18.71 18.23 15.79 L 18.23 15.79 Q 18.23 11.79 14.98 10.47 L 14.98 10.47 Q 13.84 10.02 12.62 10.02 Q 11.39 10.02 10.54 10.18 Q 9.69 10.34 8.91 10.62 L 8.91 10.62 Q 7.32 11.19 6.24 12.14 L 6.24 12.14 Q 5.95 12.31 5.55 12.31 Q 5.15 12.31 4.69 12.07 Q 4.24 11.84 3.87 11.49 L 3.87 11.49 Q 3.04 10.67 3.2 9.92 L 3.2 9.92 Q 3.39 8.86 6.4 8.07 L 6.4 8.07 Q 8.94 7.42 11.51 7.42 Q 14.08 7.42 16.14 8.12 Q 18.2 8.82 19.48 10.01 L 19.48 10.01 Q 21.88 12.24 21.88 15.99 L 21.88 15.99 Q 21.88 20.96 18.45 25.58 L 18.45 25.58 Q 15.29 29.87 10.94 32.09 L 10.94 32.09 Q 8.12 33.52 5.75 33.52 L 5.75 33.52 Q 3.9 33.52 2.57 32.44 L 2.57 32.44 Q 1.13 31.29 1.38 29.42 Z M 31.74 12.18 Q 31.37 12.58 30.9 12.82 Q 30.44 13.06 29.92 13.12 Q 29.4 13.18 28.94 12.96 Q 28.49 12.74 28.15 12.34 L 28.15 12.34 Q 27.44 11.51 27.44 10.66 Q 27.44 9.81 27.71 9.38 Q 27.99 8.96 28.4 8.69 L 28.4 8.69 Q 29.2 8.17 29.91 8.17 Q 30.62 8.17 31.01 8.27 Q 31.4 8.37 31.74 8.61 L 31.74 8.61 Q 32.56 9.16 32.56 9.95 Q 32.56 10.74 32.33 11.27 Q 32.11 11.79 31.74 12.18 Z M 28.32 30.24 L 28.32 30.24 Q 28.75 30.24 28.75 30.8 L 28.75 30.8 Q 28.75 31.55 28.07 32.36 L 28.07 32.36 Q 27.07 33.52 25.38 33.52 L 25.38 33.52 Q 23.45 33.52 22.73 31.95 L 22.73 31.95 Q 22.47 31.4 22.47 30.62 Q 22.47 29.84 22.74 28.88 Q 23.02 27.92 23.42 26.86 Q 23.83 25.8 24.32 24.72 L 24.32 24.72 L 25.2 22.62 Q 26.17 20.26 26.17 19.51 Q 26.17 18.76 26.01 18.52 Q 25.85 18.28 25.67 18.15 L 25.67 18.15 L 25.33 17.91 Q 25.17 17.8 25.17 17.5 Q 25.17 17.21 25.39 16.94 Q 25.62 16.68 25.98 16.48 L 25.98 16.48 Q 26.73 16.09 27.74 16.09 L 27.74 16.09 Q 30.19 16.09 30.19 17.38 L 30.19 17.38 Q 30.19 18.88 29.4 20.81 Q 28.62 22.73 28.07 23.92 L 28.07 23.92 L 27.07 26.22 Q 25.97 28.75 25.97 29.87 L 25.97 29.87 Q 25.97 30.6 26.7 30.6 L 26.7 30.6 Q 27.42 30.6 27.79 30.42 Q 28.15 30.24 28.32 30.24 Z M 31.7 30.42 L 31.7 30.42 Q 31.7 29.9 31.93 29.46 Q 32.16 29.02 32.49 28.72 L 32.49 28.72 Q 33.19 28.07 33.96 28.07 L 33.96 28.07 Q 34.62 28.07 34.62 28.75 L 34.62 28.75 Q 34.62 30.49 35.77 31.17 L 35.77 31.17 Q 36.19 31.42 36.64 31.42 Q 37.09 31.42 37.41 31.32 Q 37.73 31.22 37.99 31 L 37.99 31 Q 38.59 30.52 38.59 29.85 Q 38.59 29.19 38.29 28.63 Q 37.99 28.07 37.54 27.45 L 37.54 27.45 L 36.59 26.12 Q 34.59 23.45 34.59 21.2 L 34.59 21.2 Q 34.59 19.33 36.17 17.81 L 36.17 17.81 Q 37.98 16.09 40.79 16.09 L 40.79 16.09 Q 43.26 16.09 44.65 17.31 L 44.65 17.31 Q 45.78 18.3 45.78 19.56 L 45.78 19.56 Q 45.78 20.88 44.78 21.66 L 44.78 21.66 Q 43.88 22.37 42.98 22.18 L 42.98 22.18 Q 42.58 22.1 42.36 21.77 Q 42.15 21.45 42.28 21.03 Q 42.41 20.61 42.41 20.16 Q 42.41 19.71 42.25 19.33 Q 42.08 18.95 41.79 18.68 L 41.79 18.68 Q 41.21 18.13 40.57 18.13 Q 39.93 18.13 39.51 18.27 Q 39.09 18.41 38.78 18.68 L 38.78 18.68 Q 38.13 19.28 38.13 20.16 Q 38.13 21.03 38.43 21.66 Q 38.73 22.3 39.17 22.93 Q 39.61 23.57 40.13 24.22 Q 40.64 24.87 41.08 25.58 L 41.08 25.58 Q 42.13 27.27 42.13 28.54 Q 42.13 29.82 41.59 30.68 Q 41.06 31.54 40.21 32.16 L 40.21 32.16 Q 38.39 33.51 36.14 33.51 L 36.14 33.51 Q 33.99 33.51 32.74 32.47 L 32.74 32.47 Q 31.7 31.6 31.7 30.42 Z M 46.83 27.6 L 46.83 27.6 Q 46.87 26.15 47.29 24.71 Q 47.72 23.27 48.42 21.98 Q 49.13 20.7 50.11 19.61 Q 51.08 18.53 52.24 17.75 L 52.24 17.75 Q 54.64 16.09 57.29 16.09 L 57.29 16.09 Q 60.02 16.09 61.01 18.28 L 61.01 18.28 Q 61.36 19.06 61.33 20.06 Q 61.31 21.05 61.01 21.87 Q 60.71 22.7 60.26 23.35 L 60.26 23.35 Q 59.24 24.82 58.21 24.82 L 58.21 24.82 Q 57.06 24.82 56.5 24.18 L 56.5 24.18 Q 56.02 23.63 56.2 22.9 L 56.2 22.9 Q 56.25 22.68 56.5 22.51 Q 56.76 22.33 57.14 21.95 L 57.14 21.95 Q 58.22 20.81 58.27 19.3 L 58.27 19.3 Q 58.31 18.26 57.01 18.26 L 57.01 18.26 Q 55.6 18.26 54.07 19.83 L 54.07 19.83 Q 51.84 22.11 50.92 25.68 L 50.92 25.68 Q 50.12 28.79 51.22 30.22 L 51.22 30.22 Q 51.87 31.05 52.99 31.05 L 52.99 31.05 Q 54.87 31.05 56.62 29.72 L 56.62 29.72 Q 57.16 29.3 57.49 28.87 Q 57.82 28.44 58.11 28.44 Q 58.39 28.44 58.58 28.71 Q 58.77 28.99 58.77 29.42 L 58.77 29.42 Q 58.77 30.4 57.89 31.35 L 57.89 31.35 Q 55.62 33.52 52.44 33.52 L 52.44 33.52 Q 49.72 33.52 48.23 31.97 L 48.23 31.97 Q 46.76 30.44 46.83 27.6 Z M 64.39 32.22 Q 63.69 31.55 63.29 30.53 Q 62.89 29.5 62.88 28.1 Q 62.86 26.7 63.22 25.27 Q 63.58 23.83 64.24 22.5 Q 64.89 21.16 65.82 20 Q 66.75 18.83 67.86 17.96 L 67.86 17.96 Q 70.3 16.09 72.92 16.09 L 72.92 16.09 Q 76.35 16.09 77.57 19.11 L 77.57 19.11 Q 78.44 21.3 77.67 24.4 L 77.67 24.4 Q 76.97 27.25 75.1 29.64 L 75.1 29.64 Q 73.25 32.02 70.73 33.02 L 70.73 33.02 Q 69.46 33.52 68.24 33.52 Q 67.01 33.52 66.05 33.21 Q 65.09 32.89 64.39 32.22 Z M 67.58 24.13 Q 67.08 25.37 66.79 26.67 Q 66.49 27.97 66.51 29.13 Q 66.53 30.29 66.87 30.95 Q 67.21 31.6 67.98 31.6 Q 68.75 31.6 69.49 31.08 Q 70.23 30.55 70.93 29.69 Q 71.63 28.82 72.25 27.69 Q 72.87 26.55 73.33 25.32 L 73.33 25.32 Q 74.35 22.63 74.32 20.55 L 74.32 20.55 Q 74.32 18.71 73.57 18.21 L 73.57 18.21 Q 73.27 18.01 72.72 18.01 Q 72.18 18.01 71.48 18.5 Q 70.78 19 70.08 19.83 Q 69.38 20.66 68.73 21.78 Q 68.08 22.9 67.58 24.13 Z M 80.49 31.74 L 80.49 31.74 Q 80.24 31.19 80.24 30.44 Q 80.24 29.69 80.47 28.78 Q 80.7 27.87 81.07 26.92 Q 81.44 25.97 81.89 24.98 L 81.89 24.98 L 82.74 23.05 Q 84.39 19.23 83.96 18.55 L 83.96 18.55 Q 83.76 18.23 83.19 17.91 L 83.19 17.91 Q 83.01 17.8 83.01 17.5 Q 83.01 17.21 83.25 16.94 Q 83.49 16.68 83.89 16.48 L 83.89 16.48 Q 84.69 16.09 85.51 16.09 Q 86.33 16.09 86.75 16.27 Q 87.18 16.44 87.46 16.71 L 87.46 16.71 Q 87.99 17.26 87.99 18.05 Q 87.99 18.83 87.69 19.81 Q 87.39 20.8 86.94 21.88 Q 86.49 22.97 85.96 24.1 L 85.96 24.1 L 84.97 26.28 Q 83.92 28.7 83.92 29.49 L 83.92 29.49 Q 83.92 31.02 85.01 31.02 L 85.01 31.02 Q 87.79 31.02 90.23 27.72 L 90.23 27.72 Q 91.65 25.8 92.26 23.55 L 92.26 23.55 Q 92.55 22.48 92.55 21.61 Q 92.55 20.73 92.49 20.15 Q 92.43 19.56 92.3 19.11 L 92.3 19.11 Q 92.08 18.31 91.56 17.73 L 91.56 17.73 Q 91.21 17.3 91.88 16.71 L 91.88 16.71 Q 92.61 16.09 93.96 16.09 L 93.96 16.09 Q 94.8 16.09 95.43 16.88 L 95.43 16.88 Q 96.23 17.81 96.23 19.55 Q 96.23 21.3 95.71 22.97 Q 95.2 24.65 94.3 26.19 Q 93.4 27.74 92.17 29.07 Q 90.94 30.4 89.53 31.39 L 89.53 31.39 Q 86.49 33.52 83.46 33.52 L 83.46 33.52 Q 81.27 33.52 80.49 31.74 Z M 97.93 27.52 L 97.93 27.52 Q 98 26.07 98.42 24.74 Q 98.83 23.42 99.53 22.17 Q 100.23 20.93 101.18 19.82 Q 102.12 18.71 103.22 17.88 L 103.22 17.88 Q 105.6 16.09 108.04 16.09 L 108.04 16.09 Q 110.89 16.09 111.84 18.45 L 111.84 18.45 Q 112.18 19.25 112.16 20.34 Q 112.14 21.43 111.74 22.36 Q 111.34 23.28 110.63 24.04 Q 109.92 24.8 108.95 25.4 Q 107.97 26 106.82 26.42 L 106.82 26.42 Q 104.45 27.25 101.75 27.29 L 101.75 27.29 Q 101.69 27.52 101.67 27.99 Q 101.65 28.45 101.77 29.03 Q 101.89 29.6 102.17 30.05 L 102.17 30.05 Q 102.77 31.05 103.9 31.05 L 103.9 31.05 Q 105.84 31.05 107.67 29.92 L 107.67 29.92 Q 108.32 29.54 108.73 29.13 Q 109.14 28.72 109.44 28.72 Q 109.74 28.72 109.97 29.08 Q 110.19 29.44 110.19 29.89 L 110.19 29.89 Q 110.19 30.77 109.69 31.42 L 109.69 31.42 Q 107.59 33.52 103.44 33.52 L 103.44 33.52 Q 100.99 33.52 99.5 32.06 L 99.5 32.06 Q 97.83 30.39 97.93 27.52 Z M 107.67 18.31 L 107.67 18.31 Q 105.92 18.31 104.3 20.71 L 104.3 20.71 Q 102.94 22.78 102.1 25.62 L 102.1 25.62 Q 104.89 25.33 106.94 23.42 L 106.94 23.42 Q 108.82 21.61 108.82 19.96 Q 108.82 18.31 107.67 18.31 Z M 114.03 32.96 Q 113.69 32.71 113.49 32.4 Q 113.29 32.09 113.28 31.86 Q 113.26 31.64 113.37 31.31 Q 113.48 30.99 113.66 30.52 L 113.66 30.52 Q 117.06 22.15 117.06 19.28 L 117.06 19.28 Q 117.01 18.48 116.51 18.15 L 116.51 18.15 L 116.18 17.91 Q 116.03 17.8 116.02 17.5 Q 116.01 17.21 116.23 16.94 Q 116.45 16.68 116.8 16.48 L 116.8 16.48 Q 117.51 16.09 118.27 16.09 Q 119.03 16.09 119.46 16.26 Q 119.88 16.43 120.18 16.71 L 120.18 16.71 Q 120.82 17.31 120.82 17.98 Q 120.83 18.65 120.67 19.33 Q 120.51 20.01 120.3 20.67 Q 120.08 21.33 119.86 21.92 Q 119.65 22.52 119.58 22.8 L 119.58 22.8 Q 119.45 23.38 119.48 23.53 L 119.48 23.53 Q 119.88 23.18 119.96 22.85 L 119.96 22.85 L 120.61 21.61 Q 122.78 17.71 124.85 16.44 L 124.85 16.44 Q 125.45 16.09 126.29 16.09 Q 127.14 16.09 127.65 16.69 Q 128.17 17.28 128.2 18 Q 128.22 18.71 128.1 19.19 Q 127.97 19.66 127.72 20.08 L 127.72 20.08 Q 127.17 21.01 126.39 21.01 L 126.39 21.01 Q 126.17 21.01 125.99 20.86 L 125.99 20.86 L 125.62 20.55 Q 125.07 20.06 124.56 20.06 Q 124.05 20.06 123.33 20.73 Q 122.6 21.4 121.82 22.45 L 121.82 22.45 Q 119.18 25.93 117.51 30.25 L 117.51 30.25 L 116.78 32.19 Q 116.5 32.91 116.28 33.21 Q 116.06 33.52 115.64 33.52 Q 115.21 33.52 114.79 33.36 Q 114.36 33.21 114.03 32.96 Z M 141.51 28.72 L 141.51 28.97 Q 141.51 30.55 142.71 30.55 L 142.71 30.55 Q 144.91 30.55 148.43 25.03 L 148.43 25.03 Q 149.48 23.4 150.54 21.58 L 150.54 21.58 L 152.57 17.85 Q 156.94 9.39 157.61 8.21 L 157.61 8.21 Q 157.94 7.61 158.56 7.61 Q 159.17 7.61 159.59 7.78 Q 160.01 7.96 160.31 8.24 L 160.31 8.24 Q 161.01 8.91 160.66 9.57 L 160.66 9.57 Q 159.49 11.74 158.49 14.43 L 158.49 14.43 L 154.32 26.05 Q 153.65 27.82 152.94 29.46 Q 152.22 31.1 151.33 32.72 Q 150.44 34.34 149.42 35.81 Q 148.4 37.28 147.28 38.53 Q 146.17 39.79 145 40.73 L 145 40.73 Q 142.51 42.7 140.24 42.7 L 140.24 42.7 Q 139.81 42.7 139.39 42.5 Q 138.98 42.3 138.89 41.93 Q 138.81 41.56 139.01 41.43 Q 139.21 41.29 139.54 41.16 L 139.54 41.16 Q 144.15 39.44 148.23 31.99 L 148.23 31.99 Q 149.43 29.79 150.45 27.4 L 150.45 27.4 Q 151.62 24.32 151.95 23.37 L 151.95 23.37 L 150.27 25.93 Q 145.01 33.52 141.35 33.52 L 141.35 33.52 Q 138.86 33.52 138.03 31.35 L 138.03 31.35 Q 137.78 30.67 137.78 30.19 L 137.78 30.19 L 137.78 29.55 Q 137.78 27.54 140.13 21.88 L 140.13 21.88 L 143.6 13.81 Q 144.6 11.39 144.6 10.83 Q 144.6 10.27 144.4 9.99 Q 144.2 9.71 143.95 9.54 L 143.95 9.54 L 143.5 9.21 Q 143.3 9.07 143.3 8.81 Q 143.3 8.54 143.56 8.27 Q 143.83 8.01 144.26 7.81 L 144.26 7.81 Q 145.13 7.42 145.97 7.42 Q 146.82 7.42 147.27 7.6 Q 147.73 7.77 148.03 8.04 L 148.03 8.04 Q 148.62 8.59 148.62 9.36 Q 148.62 10.14 148.33 11.19 Q 148.03 12.24 147.56 13.48 Q 147.08 14.73 146.47 16.11 L 146.47 16.11 L 143.93 21.68 Q 141.51 27 141.51 28.72 L 141.51 28.72 Z M 159.76 32.22 Q 159.06 31.55 158.66 30.53 Q 158.26 29.5 158.24 28.1 Q 158.22 26.7 158.58 25.27 Q 158.94 23.83 159.6 22.5 Q 160.26 21.16 161.18 20 Q 162.11 18.83 163.23 17.96 L 163.23 17.96 Q 165.66 16.09 168.28 16.09 L 168.28 16.09 Q 171.72 16.09 172.93 19.11 L 172.93 19.11 Q 173.8 21.3 173.03 24.4 L 173.03 24.4 Q 172.33 27.25 170.47 29.64 L 170.47 29.64 Q 168.61 32.02 166.1 33.02 L 166.1 33.02 Q 164.83 33.52 163.6 33.52 Q 162.38 33.52 161.42 33.21 Q 160.46 32.89 159.76 32.22 Z M 162.94 24.13 Q 162.44 25.37 162.15 26.67 Q 161.86 27.97 161.88 29.13 Q 161.89 30.29 162.23 30.95 Q 162.58 31.6 163.34 31.6 Q 164.11 31.6 164.85 31.08 Q 165.6 30.55 166.3 29.69 Q 167 28.82 167.61 27.69 Q 168.23 26.55 168.7 25.32 L 168.7 25.32 Q 169.71 22.63 169.68 20.55 L 169.68 20.55 Q 169.68 18.71 168.93 18.21 L 168.93 18.21 Q 168.63 18.01 168.09 18.01 Q 167.55 18.01 166.85 18.5 Q 166.15 19 165.45 19.83 Q 164.74 20.66 164.09 21.78 Q 163.44 22.9 162.94 24.13 Z M 191.35 30.07 L 191.35 30.07 Q 191.73 30.07 191.73 30.45 L 191.73 30.45 Q 191.73 31.9 190.3 32.89 L 190.3 32.89 Q 189.33 33.52 188.03 33.52 L 188.03 33.52 Q 186.96 33.52 186.39 33.02 L 186.39 33.02 Q 185.38 32.12 185.38 30.82 L 185.38 30.82 Q 185.38 29.17 186.76 25.77 L 186.76 25.77 Q 184.19 29.24 183.16 30.38 Q 182.12 31.52 181.36 32.16 L 181.36 32.16 Q 179.69 33.52 178.34 33.52 L 178.34 33.52 Q 176.27 33.52 175.59 31.74 L 175.59 31.74 Q 175.39 31.19 175.39 30.48 Q 175.39 29.77 175.63 28.89 Q 175.87 28.02 176.25 27.07 Q 176.64 26.12 177.09 25.12 L 177.09 25.12 L 177.99 23.12 Q 179.72 19.26 179.27 18.55 L 179.27 18.55 Q 179.07 18.23 178.52 17.91 L 178.52 17.91 Q 178.32 17.8 178.32 17.5 Q 178.32 17.21 178.56 16.94 Q 178.8 16.68 179.19 16.48 L 179.19 16.48 Q 180.01 16.09 180.82 16.09 Q 181.64 16.09 182.06 16.27 Q 182.49 16.44 182.76 16.71 L 182.76 16.71 Q 183.31 17.26 183.31 17.93 Q 183.31 18.6 183.09 19.42 Q 182.87 20.25 182.52 21.21 Q 182.17 22.18 181.76 23.22 L 181.76 23.22 Q 180.61 25.92 180.21 26.78 L 180.21 26.78 L 179.59 28.07 Q 179.07 29.22 179.07 29.69 Q 179.07 30.15 179.22 30.35 Q 179.37 30.54 179.76 30.54 Q 180.16 30.54 180.67 30.17 Q 181.19 29.8 181.81 29.19 Q 182.42 28.57 183.09 27.76 Q 183.76 26.95 184.39 26.08 L 184.39 26.08 Q 185.64 24.38 186.23 23.35 L 186.23 23.35 Q 189.76 17.09 190 16.81 L 190 16.81 Q 190.53 16.09 191.09 16.09 Q 191.65 16.09 192.06 16.22 Q 192.48 16.34 192.78 16.58 L 192.78 16.58 Q 193.48 17.09 193.23 17.61 L 193.23 17.61 Q 189.16 26.1 188.84 28.29 L 188.84 28.29 Q 188.76 29.04 188.76 29.32 L 188.76 29.32 Q 188.76 30.59 189.53 30.59 L 189.53 30.59 Q 190.25 30.59 190.71 30.33 Q 191.18 30.07 191.35 30.07 Z M 194.73 32.96 Q 194.4 32.71 194.2 32.4 Q 194 32.09 193.98 31.86 Q 193.96 31.64 194.07 31.31 Q 194.18 30.99 194.36 30.52 L 194.36 30.52 Q 197.77 22.15 197.77 19.28 L 197.77 19.28 Q 197.72 18.48 197.22 18.15 L 197.22 18.15 L 196.88 17.91 Q 196.73 17.8 196.72 17.5 Q 196.72 17.21 196.93 16.94 Q 197.15 16.68 197.5 16.48 L 197.5 16.48 Q 198.22 16.09 198.98 16.09 Q 199.74 16.09 200.16 16.26 Q 200.59 16.43 200.89 16.71 L 200.89 16.71 Q 201.52 17.31 201.53 17.98 Q 201.54 18.65 201.38 19.33 Q 201.22 20.01 201 20.67 Q 200.79 21.33 200.57 21.92 Q 200.35 22.52 200.29 22.8 L 200.29 22.8 Q 200.15 23.38 200.19 23.53 L 200.19 23.53 Q 200.59 23.18 200.67 22.85 L 200.67 22.85 L 201.32 21.61 Q 203.49 17.71 205.56 16.44 L 205.56 16.44 Q 206.16 16.09 207 16.09 Q 207.84 16.09 208.36 16.69 Q 208.87 17.28 208.9 18 Q 208.92 18.71 208.8 19.19 Q 208.67 19.66 208.42 20.08 L 208.42 20.08 Q 207.87 21.01 207.09 21.01 L 207.09 21.01 Q 206.87 21.01 206.69 20.86 L 206.69 20.86 L 206.32 20.55 Q 205.77 20.06 205.26 20.06 Q 204.76 20.06 204.03 20.73 Q 203.3 21.4 202.52 22.45 L 202.52 22.45 Q 199.89 25.93 198.22 30.25 L 198.22 30.25 L 197.48 32.19 Q 197.2 32.91 196.98 33.21 Q 196.77 33.52 196.34 33.52 Q 195.92 33.52 195.49 33.36 Q 195.07 33.21 194.73 32.96 Z M 219.28 29.42 L 219.28 29.42 Q 219.43 28.34 219.92 26.43 Q 220.42 24.52 221.18 22.35 L 221.18 22.35 Q 222.93 17.38 225.34 13.49 L 225.34 13.49 Q 225.67 12.96 226.19 12.88 L 226.19 12.88 Q 226.92 12.78 227.48 12.78 Q 228.04 12.78 228.48 12.9 Q 228.92 13.03 229.17 13.23 L 229.17 13.23 Q 229.67 13.64 229.34 14.11 L 229.34 14.11 Q 226.32 18.66 224.07 25.22 L 224.07 25.22 Q 223.22 27.72 223.05 28.69 Q 222.88 29.67 222.81 30.03 Q 222.73 30.39 222.73 30.65 L 222.73 30.65 Q 222.73 31.2 223.43 31.2 Q 224.14 31.2 225 30.88 Q 225.87 30.55 226.87 29.96 Q 227.87 29.37 228.95 28.52 Q 230.02 27.67 231.06 26.61 Q 232.09 25.55 233.01 24.32 Q 233.92 23.08 234.61 21.71 L 234.61 21.71 Q 236.13 18.71 236.13 15.79 L 236.13 15.79 Q 236.13 11.79 232.87 10.47 L 232.87 10.47 Q 231.74 10.02 230.51 10.02 Q 229.29 10.02 228.44 10.18 Q 227.59 10.34 226.8 10.62 L 226.8 10.62 Q 225.22 11.19 224.14 12.14 L 224.14 12.14 Q 223.85 12.31 223.45 12.31 Q 223.05 12.31 222.59 12.07 Q 222.13 11.84 221.77 11.49 L 221.77 11.49 Q 220.93 10.67 221.1 9.92 L 221.1 9.92 Q 221.28 8.86 224.3 8.07 L 224.3 8.07 Q 226.84 7.42 229.41 7.42 Q 231.97 7.42 234.03 8.12 Q 236.09 8.82 237.38 10.01 L 237.38 10.01 Q 239.78 12.24 239.78 15.99 L 239.78 15.99 Q 239.78 20.96 236.34 25.58 L 236.34 25.58 Q 233.19 29.87 228.84 32.09 L 228.84 32.09 Q 226.02 33.52 223.65 33.52 L 223.65 33.52 Q 221.8 33.52 220.47 32.44 L 220.47 32.44 Q 219.03 31.29 219.28 29.42 Z M 240.7 27.52 L 240.7 27.52 Q 240.76 26.07 241.18 24.74 Q 241.6 23.42 242.3 22.17 Q 243 20.93 243.94 19.82 Q 244.88 18.71 245.98 17.88 L 245.98 17.88 Q 248.37 16.09 250.8 16.09 L 250.8 16.09 Q 253.65 16.09 254.61 18.45 L 254.61 18.45 Q 254.94 19.25 254.92 20.34 Q 254.91 21.43 254.51 22.36 Q 254.11 23.28 253.4 24.04 Q 252.69 24.8 251.71 25.4 Q 250.74 26 249.59 26.42 L 249.59 26.42 Q 247.22 27.25 244.52 27.29 L 244.52 27.29 Q 244.45 27.52 244.43 27.99 Q 244.42 28.45 244.53 29.03 Q 244.65 29.6 244.93 30.05 L 244.93 30.05 Q 245.53 31.05 246.67 31.05 L 246.67 31.05 Q 248.6 31.05 250.44 29.92 L 250.44 29.92 Q 251.09 29.54 251.5 29.13 Q 251.9 28.72 252.2 28.72 Q 252.5 28.72 252.73 29.08 Q 252.95 29.44 252.95 29.89 L 252.95 29.89 Q 252.95 30.77 252.45 31.42 L 252.45 31.42 Q 250.35 33.52 246.2 33.52 L 246.2 33.52 Q 243.75 33.52 242.26 32.06 L 242.26 32.06 Q 240.6 30.39 240.7 27.52 Z M 250.44 18.31 L 250.44 18.31 Q 248.68 18.31 247.07 20.71 L 247.07 20.71 Q 245.7 22.78 244.87 25.62 L 244.87 25.62 Q 247.65 25.33 249.7 23.42 L 249.7 23.42 Q 251.59 21.61 251.59 19.96 Q 251.59 18.31 250.44 18.31 Z M 255.94 30.42 L 255.94 30.42 Q 255.94 29.9 256.17 29.46 Q 256.39 29.02 256.72 28.72 L 256.72 28.72 Q 257.42 28.07 258.19 28.07 L 258.19 28.07 Q 258.86 28.07 258.86 28.75 L 258.86 28.75 Q 258.86 30.49 260.01 31.17 L 260.01 31.17 Q 260.43 31.42 260.88 31.42 Q 261.33 31.42 261.64 31.32 Q 261.96 31.22 262.23 31 L 262.23 31 Q 262.83 30.52 262.83 29.85 Q 262.83 29.19 262.53 28.63 Q 262.23 28.07 261.78 27.45 L 261.78 27.45 L 260.83 26.12 Q 258.83 23.45 258.83 21.2 L 258.83 21.2 Q 258.83 19.33 260.41 17.81 L 260.41 17.81 Q 262.21 16.09 265.03 16.09 L 265.03 16.09 Q 267.5 16.09 268.88 17.31 L 268.88 17.31 Q 270.02 18.3 270.02 19.56 L 270.02 19.56 Q 270.02 20.88 269.02 21.66 L 269.02 21.66 Q 268.11 22.37 267.21 22.18 L 267.21 22.18 Q 266.81 22.1 266.6 21.77 Q 266.38 21.45 266.51 21.03 Q 266.65 20.61 266.65 20.16 Q 266.65 19.71 266.48 19.33 Q 266.31 18.95 266.03 18.68 L 266.03 18.68 Q 265.45 18.13 264.8 18.13 Q 264.16 18.13 263.75 18.27 Q 263.33 18.41 263.01 18.68 L 263.01 18.68 Q 262.36 19.28 262.36 20.16 Q 262.36 21.03 262.66 21.66 Q 262.96 22.3 263.4 22.93 Q 263.85 23.57 264.36 24.22 Q 264.88 24.87 265.31 25.58 L 265.31 25.58 Q 266.36 27.27 266.36 28.54 Q 266.36 29.82 265.83 30.68 Q 265.3 31.54 264.45 32.16 L 264.45 32.16 Q 262.63 33.51 260.38 33.51 L 260.38 33.51 Q 258.22 33.51 256.97 32.47 L 256.97 32.47 Q 255.94 31.6 255.94 30.42 Z M 280.06 28.99 L 280.06 28.99 Q 280.54 28.99 280.54 29.64 L 280.54 29.64 Q 280.54 30.19 280.21 30.7 L 280.21 30.7 Q 279.76 31.67 278.41 32.54 L 278.41 32.54 Q 276.87 33.52 275.32 33.52 L 275.32 33.52 Q 272.63 33.52 271.92 31.12 L 271.92 31.12 Q 271.07 28.27 274.47 19.03 L 274.47 19.03 Q 272.55 18.86 272.38 18.36 L 272.38 18.36 Q 272.33 18.21 272.33 18.04 Q 272.33 17.86 272.49 17.63 Q 272.65 17.4 272.9 17.18 L 272.9 17.18 Q 273.49 16.69 274.09 16.69 L 274.09 16.69 L 275.4 16.69 Q 277.2 12.48 277.97 11.89 L 277.97 11.89 Q 278.34 11.62 278.79 11.62 Q 279.24 11.62 279.54 11.74 Q 279.84 11.86 280.07 12.07 L 280.07 12.07 Q 280.61 12.58 280.61 13.19 L 280.61 13.19 Q 280.61 13.53 280.41 13.96 L 280.41 13.96 L 279.17 16.64 L 279.57 16.64 Q 280.61 16.64 281.24 16.63 L 281.24 16.63 Q 281.24 16.63 282.19 16.61 L 282.19 16.61 Q 282.51 16.59 282.98 16.59 Q 283.46 16.59 283.46 16.94 L 283.46 16.94 Q 283.46 19.15 278.25 19.15 L 278.25 19.15 L 278.12 19.15 L 276.99 22.08 Q 275.07 27.29 275.07 29.37 L 275.07 29.37 Q 275.07 29.95 275.34 30.28 Q 275.6 30.6 276.34 30.6 Q 277.07 30.6 277.67 30.35 Q 278.27 30.1 278.72 29.8 Q 279.17 29.49 279.5 29.24 Q 279.82 28.99 280.06 28.99 Z M 292.46 12.18 Q 292.1 12.58 291.63 12.82 Q 291.16 13.06 290.65 13.12 Q 290.13 13.18 289.67 12.96 Q 289.21 12.74 288.88 12.34 L 288.88 12.34 Q 288.16 11.51 288.16 10.66 Q 288.16 9.81 288.44 9.38 Q 288.71 8.96 289.13 8.69 L 289.13 8.69 Q 289.93 8.17 290.64 8.17 Q 291.35 8.17 291.74 8.27 Q 292.13 8.37 292.46 8.61 L 292.46 8.61 Q 293.28 9.16 293.28 9.95 Q 293.28 10.74 293.06 11.27 Q 292.83 11.79 292.46 12.18 Z M 289.05 30.24 L 289.05 30.24 Q 289.48 30.24 289.48 30.8 L 289.48 30.8 Q 289.48 31.55 288.8 32.36 L 288.8 32.36 Q 287.79 33.52 286.11 33.52 L 286.11 33.52 Q 284.18 33.52 283.46 31.95 L 283.46 31.95 Q 283.19 31.4 283.19 30.62 Q 283.19 29.84 283.47 28.88 Q 283.74 27.92 284.15 26.86 Q 284.56 25.8 285.04 24.72 L 285.04 24.72 L 285.93 22.62 Q 286.89 20.26 286.89 19.51 Q 286.89 18.76 286.74 18.52 Q 286.58 18.28 286.39 18.15 L 286.39 18.15 L 286.06 17.91 Q 285.89 17.8 285.89 17.5 Q 285.89 17.21 286.12 16.94 Q 286.34 16.68 286.71 16.48 L 286.71 16.48 Q 287.46 16.09 288.46 16.09 L 288.46 16.09 Q 290.91 16.09 290.91 17.38 L 290.91 17.38 Q 290.91 18.88 290.13 20.81 Q 289.35 22.73 288.8 23.92 L 288.8 23.92 L 287.79 26.22 Q 286.69 28.75 286.69 29.87 L 286.69 29.87 Q 286.69 30.6 287.43 30.6 L 287.43 30.6 Q 288.14 30.6 288.51 30.42 Q 288.88 30.24 289.05 30.24 Z M 305.26 19.25 L 305.26 19.25 Q 304.74 19.25 303.79 20.24 Q 302.84 21.23 302.14 22.05 L 302.14 22.05 L 300.72 23.75 L 297.98 27.24 Q 297.02 29.07 296.47 30.29 L 296.47 30.29 L 295.57 32.22 Q 295.22 32.94 294.96 33.23 Q 294.7 33.52 294.26 33.52 Q 293.82 33.52 293.41 33.36 Q 293 33.21 292.7 32.96 L 292.7 32.96 Q 292.06 32.42 292.06 31.79 L 292.06 31.79 Q 292.06 31.54 292.43 30.8 L 292.43 30.8 L 293.06 29.45 Q 293.37 28.85 293.77 27.92 L 293.77 27.92 L 294.7 25.63 Q 296.67 20.71 296.67 19.28 L 296.67 19.28 Q 296.67 18.51 296.17 18.15 L 296.17 18.15 L 295.83 17.91 Q 295.67 17.8 295.67 17.5 Q 295.67 17.21 295.89 16.94 Q 296.12 16.68 296.48 16.48 L 296.48 16.48 Q 297.23 16.09 297.99 16.09 Q 298.75 16.09 299.17 16.26 Q 299.59 16.43 299.87 16.71 L 299.87 16.71 Q 300.49 17.3 300.49 17.93 Q 300.49 18.56 300.33 19.2 Q 300.17 19.85 299.93 20.51 Q 299.69 21.16 299.42 21.8 Q 299.15 22.43 298.94 22.9 L 298.94 22.9 L 298.6 23.62 Q 298.47 23.88 298.54 23.78 L 298.54 23.78 Q 300.39 21.21 300.97 20.48 L 300.97 20.48 L 302.14 19.08 Q 303.42 17.58 304.16 17.09 L 304.16 17.09 Q 305.64 16.09 306.49 16.09 Q 307.34 16.09 307.93 16.31 Q 308.51 16.53 308.94 16.93 L 308.94 16.93 Q 309.86 17.78 309.86 19.1 Q 309.86 20.41 309.26 21.85 Q 308.66 23.28 308.22 24.17 Q 307.77 25.07 307.37 25.98 L 307.37 25.98 Q 306.12 28.77 306.12 30.04 L 306.12 30.04 Q 306.12 30.6 307.02 30.6 L 307.02 30.6 Q 307.72 30.6 308.3 30.3 Q 308.88 30 309.04 30 L 309.04 30 Q 309.39 30 309.39 30.35 L 309.39 30.35 Q 309.39 31.84 307.87 32.84 L 307.87 32.84 Q 306.86 33.52 306.01 33.52 Q 305.16 33.52 304.6 33.34 Q 304.04 33.16 303.61 32.76 L 303.61 32.76 Q 302.62 31.87 302.62 30.29 L 302.62 30.29 Q 302.62 28.35 303.84 25.45 L 303.84 25.45 Q 304.72 23.47 305.09 22.73 L 305.09 22.73 L 305.66 21.55 Q 306.17 20.48 306.17 19.86 Q 306.17 19.25 305.26 19.25 Z M 312.36 31.74 L 312.36 31.74 Q 312.16 31.19 312.16 30.48 Q 312.16 29.77 312.4 28.89 Q 312.64 28.02 313.03 27.07 Q 313.41 26.12 313.86 25.12 L 313.86 25.12 L 314.76 23.12 Q 316.5 19.26 316.05 18.55 L 316.05 18.55 Q 315.85 18.23 315.3 17.91 L 315.3 17.91 Q 315.1 17.8 315.1 17.5 Q 315.1 17.21 315.34 16.94 Q 315.58 16.68 315.96 16.48 L 315.96 16.48 Q 316.78 16.09 317.6 16.09 Q 318.42 16.09 318.84 16.27 Q 319.27 16.44 319.53 16.71 L 319.53 16.71 Q 320.08 17.26 320.08 17.93 Q 320.08 18.6 319.87 19.42 Q 319.65 20.25 319.3 21.21 Q 318.95 22.18 318.53 23.22 L 318.53 23.22 Q 317.38 25.92 316.98 26.78 L 316.98 26.78 L 316.36 28.07 Q 315.85 29.22 315.85 29.69 Q 315.85 30.15 316 30.35 Q 316.15 30.54 316.54 30.54 Q 316.93 30.54 317.41 30.24 Q 317.88 29.94 318.43 29.44 Q 318.98 28.94 319.57 28.28 Q 320.17 27.62 320.73 26.9 L 320.73 26.9 Q 322.22 25.07 322.94 23.75 L 322.94 23.75 Q 326.54 17.11 326.75 16.81 L 326.75 16.81 Q 327.3 16.09 327.86 16.09 Q 328.42 16.09 328.84 16.22 Q 329.26 16.34 329.56 16.58 L 329.56 16.58 Q 330.22 17.06 329.96 17.66 Q 329.71 18.26 329.34 19.31 L 329.34 19.31 Q 326.17 28.5 325.23 30.77 Q 324.29 33.04 323.59 34.41 Q 322.89 35.79 321.94 37.19 Q 321 38.59 319.93 39.74 L 319.93 39.74 Q 317.5 42.35 315.36 42.53 L 315.36 42.53 Q 314.55 42.6 314.06 42.3 L 314.06 42.3 Q 313.23 41.79 313.23 41.34 L 313.23 41.34 Q 313.23 40.89 313.99 40.72 Q 314.75 40.54 315.56 40.02 Q 316.36 39.49 317.11 38.79 L 317.11 38.79 Q 319.32 36.69 320.53 34.22 L 320.53 34.22 Q 321.57 32.06 322.2 30.12 L 322.2 30.12 L 323.5 26.15 Q 323.02 26.73 322.43 27.52 L 322.43 27.52 L 321.23 29.12 Q 319.67 31.1 318.63 31.94 L 318.63 31.94 Q 316.66 33.52 315.11 33.52 L 315.11 33.52 Q 313.05 33.52 312.36 31.74 Z&quot;);height:auto;inline-size:auto;overflow-clip-margin:0px;overflow-x:visible;overflow-y:visible;perspective-origin:0px 0px;pointer-events:bounding-box;transform:matrix(1, 0, 0, 1, 0, 0);transform-origin:0px 0px;width:auto;"/></g></svg></g><g transform="rotate(0 287.5 368.75)" style="block-size:auto;height:auto;inline-size:auto;overflow-clip-margin:0px;overflow-x:visible;overflow-y:visible;perspective-origin:0px 0px;pointer-events:bounding-box;transform:matrix(1, 0, 0, 1, 0, 0);transform-origin:0px 0px;width:auto;"><svg viewBoxSize="575" data-root-id="7115742544541" xmlns="http://www.w3.org/2000/svg" y="347.23996214336125" x="118.89500427246094" viewBox="2.4000000953674316 14.579999923706055 337.2099914550781 43.019996643066406" height="43.019996643066406" width="337.2099914550781" fontUrl="https://fonts.gstatic.com/s/staatliches/v13/HI_OiY8KO6hCsQSoAPmtMbectJG9O9PS.ttf" zoom="1" editorType="buyer" data-layer-role="brandName" style="block-size:43.02px;display:block;height:43.02px;inline-size:337.21px;inset-block-start:347.24px;inset-inline-start:118.895px;left:118.895px;overflow-x:visible;overflow-y:visible;perspective-origin:0px 0px;pointer-events:bounding-box;top:347.24px;transform:matrix(1, 0, 0, 1, 0, 0);transform-origin:0px 0px;width:337.21px;x:118.895px;y:347.24px;"><g font-size="32px" font-family="Staatliches" font-weight="400" font-style="normal" data-horizontal-grow="center" zoom="1" root="[object Object]" style="block-size:auto;fill:rgb(73, 70, 66);font-family:Staatliches;font-size:32px;height:auto;inline-size:auto;overflow-clip-margin:0px;overflow-x:visible;overflow-y:visible;perspective-origin:0px 0px;pointer-events:bounding-box;transform-origin:0px 0px;width:auto;"><path d="M8.94 57L2.94 57Q2.46 57 2.46 56.58L2.46 56.58L2.40 15.72Q2.40 15.24 2.88 15.24L2.88 15.24L8.28 15.24L18.42 38.88L18.12 15.72Q18.12 15.24 18.66 15.24L18.66 15.24L24.60 15.24Q24.96 15.24 24.96 15.72L24.96 15.72L25.02 56.64Q25.02 57 24.72 57L24.72 57L19.44 57L9.06 34.92L9.48 56.52Q9.48 57 8.94 57L8.94 57ZM33.83 56.70L33.83 56.70L41.27 15.48Q41.33 15.24 41.57 15.24L41.57 15.24L50.27 15.24Q50.51 15.24 50.56 15.48L50.56 15.48L57.70 56.70Q57.77 57 57.47 57L57.47 57L50.81 57Q50.56 57 50.51 56.70L50.51 56.70L49.84 52.32L41.69 52.32L41.03 56.70Q40.97 57 40.73 57L40.73 57L34.07 57Q33.83 57 33.83 56.70ZM45.59 29.04L42.89 45.90L48.65 45.90L46.19 29.04L45.83 26.82L45.59 29.04ZM77.25 57L69.99 57Q69.75 57 69.69 56.70L69.69 56.70L61.41 15.48Q61.35 15.24 61.65 15.24L61.65 15.24L68.43 15.24Q68.67 15.24 68.73 15.48L68.73 15.48L73.65 42.96L78.45 15.48Q78.51 15.24 78.75 15.24L78.75 15.24L85.47 15.24Q85.77 15.24 85.71 15.48L85.71 15.48L77.55 56.70Q77.49 57 77.25 57L77.25 57ZM101.96 57L95.18 57Q94.88 57 94.88 56.70L94.88 56.70L94.94 15.48Q94.94 15.24 95.18 15.24L95.18 15.24L101.90 15.24Q102.14 15.24 102.14 15.48L102.14 15.48L102.20 56.70Q102.20 57 101.96 57L101.96 57ZM124.08 57.60L124.08 57.60Q120.84 57.60 118.20 55.98Q115.56 54.36 113.97 51.63Q112.38 48.90 112.38 45.54L112.38 45.54L112.38 26.52Q112.38 23.28 113.97 20.55Q115.56 17.82 118.23 16.20Q120.90 14.58 124.08 14.58L124.08 14.58Q127.38 14.58 130.05 16.17Q132.72 17.76 134.28 20.46Q135.84 23.16 135.84 26.52L135.84 26.52L135.84 29.28Q135.84 29.52 135.54 29.52L135.54 29.52L128.82 29.52Q128.58 29.52 128.58 29.28L128.58 29.28L128.58 27Q128.58 24.72 127.29 23.22Q126 21.72 124.08 21.72L124.08 21.72Q122.34 21.72 120.99 23.16Q119.64 24.60 119.64 26.52L119.64 26.52L119.64 45.54Q119.64 47.52 120.96 48.93Q122.28 50.34 124.08 50.34L124.08 50.34Q126 50.34 127.29 48.96Q128.58 47.58 128.58 45.54L128.58 45.54L128.58 42.60L124.38 42.60Q124.08 42.60 124.08 42.30L124.08 42.30L124.08 35.58Q124.08 35.28 124.38 35.28L124.38 35.28L135.60 35.28Q135.84 35.28 135.84 35.58L135.84 35.58L135.84 45.54Q135.84 48.90 134.25 51.63Q132.66 54.36 130.02 55.98Q127.38 57.60 124.08 57.60ZM142.60 56.70L142.60 56.70L150.04 15.48Q150.10 15.24 150.34 15.24L150.34 15.24L159.04 15.24Q159.28 15.24 159.34 15.48L159.34 15.48L166.48 56.70Q166.54 57 166.24 57L166.24 57L159.58 57Q159.34 57 159.28 56.70L159.28 56.70L158.62 52.32L150.46 52.32L149.80 56.70Q149.74 57 149.50 57L149.50 57L142.84 57Q142.60 57 142.60 56.70ZM154.36 29.04L151.66 45.90L157.42 45.90L154.96 29.04L154.60 26.82L154.36 29.04ZM182.91 57L176.13 57Q175.89 57 175.89 56.70L175.89 56.70L176.01 15.48Q176.01 15.24 176.25 15.24L176.25 15.24L188.37 15.24Q191.61 15.24 194.34 16.83Q197.07 18.42 198.69 21.09Q200.31 23.76 200.31 27.12L200.31 27.12Q200.31 29.34 199.65 31.11Q198.99 32.88 198.09 34.11Q197.19 35.34 196.47 35.94L196.47 35.94Q199.71 39.54 199.71 44.40L199.71 44.40L199.77 56.70Q199.77 57 199.47 57L199.47 57L192.69 57Q192.45 57 192.45 56.82L192.45 56.82L192.45 44.40Q192.45 42.24 190.92 40.65Q189.39 39.06 187.17 39.06L187.17 39.06L183.21 39.06L183.15 56.70Q183.15 57 182.91 57L182.91 57ZM183.21 22.44L183.21 31.86L188.37 31.86Q190.23 31.86 191.67 30.48Q193.11 29.10 193.11 27.12L193.11 27.12Q193.11 25.20 191.70 23.82Q190.29 22.44 188.37 22.44L188.37 22.44L183.21 22.44ZM222.01 57L215.23 57Q214.99 57 214.99 56.70L214.99 56.70L214.99 22.50L207.19 22.50Q206.89 22.50 206.89 22.20L206.89 22.20L206.95 15.48Q206.95 15.24 207.19 15.24L207.19 15.24L229.99 15.24Q230.29 15.24 230.29 15.48L230.29 15.48L230.29 22.20Q230.29 22.50 230.05 22.50L230.05 22.50L222.19 22.50L222.25 56.70Q222.25 57 222.01 57L222.01 57ZM243.48 57L236.70 57Q236.46 57 236.46 56.76L236.46 56.76L236.46 49.98Q236.46 49.74 236.70 49.74L236.70 49.74L243.48 49.74Q243.72 49.74 243.72 49.98L243.72 49.98L243.72 56.76Q243.72 57 243.48 57L243.48 57ZM260.81 57L254.80 57Q254.32 57 254.32 56.58L254.32 56.58L254.26 15.72Q254.26 15.24 254.74 15.24L254.74 15.24L260.14 15.24L270.28 38.88L269.98 15.72Q269.98 15.24 270.52 15.24L270.52 15.24L276.46 15.24Q276.82 15.24 276.82 15.72L276.82 15.72L276.88 56.64Q276.88 57 276.58 57L276.58 57L271.30 57L260.92 34.92L261.34 56.52Q261.34 57 260.81 57L260.81 57ZM307.35 57L287.97 57Q287.73 57 287.73 56.70L287.73 56.70L287.79 15.48Q287.79 15.24 288.03 15.24L288.03 15.24L307.29 15.24Q307.53 15.24 307.53 15.54L307.53 15.54L307.53 22.26Q307.53 22.50 307.29 22.50L307.29 22.50L294.99 22.50L294.99 31.86L307.29 31.86Q307.53 31.86 307.53 32.10L307.53 32.10L307.59 38.88Q307.59 39.12 307.35 39.12L307.35 39.12L294.99 39.12L294.99 49.62L307.35 49.62Q307.59 49.62 307.59 49.92L307.59 49.92L307.59 56.76Q307.59 57 307.35 57L307.35 57ZM331.33 57L324.55 57Q324.31 57 324.31 56.70L324.31 56.70L324.31 22.50L316.51 22.50Q316.21 22.50 316.21 22.20L316.21 22.20L316.27 15.48Q316.27 15.24 316.51 15.24L316.51 15.24L339.31 15.24Q339.61 15.24 339.61 15.48L339.61 15.48L339.61 22.20Q339.61 22.50 339.38 22.50L339.38 22.50L331.51 22.50L331.57 56.70Q331.57 57 331.33 57L331.33 57Z" transform="translate(0, 0)" style="block-size:auto;d:path(&quot;M 8.94 57 L 2.94 57 Q 2.46 57 2.46 56.58 L 2.46 56.58 L 2.4 15.72 Q 2.4 15.24 2.88 15.24 L 2.88 15.24 L 8.28 15.24 L 18.42 38.88 L 18.12 15.72 Q 18.12 15.24 18.66 15.24 L 18.66 15.24 L 24.6 15.24 Q 24.96 15.24 24.96 15.72 L 24.96 15.72 L 25.02 56.64 Q 25.02 57 24.72 57 L 24.72 57 L 19.44 57 L 9.06 34.92 L 9.48 56.52 Q 9.48 57 8.94 57 L 8.94 57 Z M 33.83 56.7 L 33.83 56.7 L 41.27 15.48 Q 41.33 15.24 41.57 15.24 L 41.57 15.24 L 50.27 15.24 Q 50.51 15.24 50.56 15.48 L 50.56 15.48 L 57.7 56.7 Q 57.77 57 57.47 57 L 57.47 57 L 50.81 57 Q 50.56 57 50.51 56.7 L 50.51 56.7 L 49.84 52.32 L 41.69 52.32 L 41.03 56.7 Q 40.97 57 40.73 57 L 40.73 57 L 34.07 57 Q 33.83 57 33.83 56.7 Z M 45.59 29.04 L 42.89 45.9 L 48.65 45.9 L 46.19 29.04 L 45.83 26.82 L 45.59 29.04 Z M 77.25 57 L 69.99 57 Q 69.75 57 69.69 56.7 L 69.69 56.7 L 61.41 15.48 Q 61.35 15.24 61.65 15.24 L 61.65 15.24 L 68.43 15.24 Q 68.67 15.24 68.73 15.48 L 68.73 15.48 L 73.65 42.96 L 78.45 15.48 Q 78.51 15.24 78.75 15.24 L 78.75 15.24 L 85.47 15.24 Q 85.77 15.24 85.71 15.48 L 85.71 15.48 L 77.55 56.7 Q 77.49 57 77.25 57 L 77.25 57 Z M 101.96 57 L 95.18 57 Q 94.88 57 94.88 56.7 L 94.88 56.7 L 94.94 15.48 Q 94.94 15.24 95.18 15.24 L 95.18 15.24 L 101.9 15.24 Q 102.14 15.24 102.14 15.48 L 102.14 15.48 L 102.2 56.7 Q 102.2 57 101.96 57 L 101.96 57 Z M 124.08 57.6 L 124.08 57.6 Q 120.84 57.6 118.2 55.98 Q 115.56 54.36 113.97 51.63 Q 112.38 48.9 112.38 45.54 L 112.38 45.54 L 112.38 26.52 Q 112.38 23.28 113.97 20.55 Q 115.56 17.82 118.23 16.2 Q 120.9 14.58 124.08 14.58 L 124.08 14.58 Q 127.38 14.58 130.05 16.17 Q 132.72 17.76 134.28 20.46 Q 135.84 23.16 135.84 26.52 L 135.84 26.52 L 135.84 29.28 Q 135.84 29.52 135.54 29.52 L 135.54 29.52 L 128.82 29.52 Q 128.58 29.52 128.58 29.28 L 128.58 29.28 L 128.58 27 Q 128.58 24.72 127.29 23.22 Q 126 21.72 124.08 21.72 L 124.08 21.72 Q 122.34 21.72 120.99 23.16 Q 119.64 24.6 119.64 26.52 L 119.64 26.52 L 119.64 45.54 Q 119.64 47.52 120.96 48.93 Q 122.28 50.34 124.08 50.34 L 124.08 50.34 Q 126 50.34 127.29 48.96 Q 128.58 47.58 128.58 45.54 L 128.58 45.54 L 128.58 42.6 L 124.38 42.6 Q 124.08 42.6 124.08 42.3 L 124.08 42.3 L 124.08 35.58 Q 124.08 35.28 124.38 35.28 L 124.38 35.28 L 135.6 35.28 Q 135.84 35.28 135.84 35.58 L 135.84 35.58 L 135.84 45.54 Q 135.84 48.9 134.25 51.63 Q 132.66 54.36 130.02 55.98 Q 127.38 57.6 124.08 57.6 Z M 142.6 56.7 L 142.6 56.7 L 150.04 15.48 Q 150.1 15.24 150.34 15.24 L 150.34 15.24 L 159.04 15.24 Q 159.28 15.24 159.34 15.48 L 159.34 15.48 L 166.48 56.7 Q 166.54 57 166.24 57 L 166.24 57 L 159.58 57 Q 159.34 57 159.28 56.7 L 159.28 56.7 L 158.62 52.32 L 150.46 52.32 L 149.8 56.7 Q 149.74 57 149.5 57 L 149.5 57 L 142.84 57 Q 142.6 57 142.6 56.7 Z M 154.36 29.04 L 151.66 45.9 L 157.42 45.9 L 154.96 29.04 L 154.6 26.82 L 154.36 29.04 Z M 182.91 57 L 176.13 57 Q 175.89 57 175.89 56.7 L 175.89 56.7 L 176.01 15.48 Q 176.01 15.24 176.25 15.24 L 176.25 15.24 L 188.37 15.24 Q 191.61 15.24 194.34 16.83 Q 197.07 18.42 198.69 21.09 Q 200.31 23.76 200.31 27.12 L 200.31 27.12 Q 200.31 29.34 199.65 31.11 Q 198.99 32.88 198.09 34.11 Q 197.19 35.34 196.47 35.94 L 196.47 35.94 Q 199.71 39.54 199.71 44.4 L 199.71 44.4 L 199.77 56.7 Q 199.77 57 199.47 57 L 199.47 57 L 192.69 57 Q 192.45 57 192.45 56.82 L 192.45 56.82 L 192.45 44.4 Q 192.45 42.24 190.92 40.65 Q 189.39 39.06 187.17 39.06 L 187.17 39.06 L 183.21 39.06 L 183.15 56.7 Q 183.15 57 182.91 57 L 182.91 57 Z M 183.21 22.44 L 183.21 31.86 L 188.37 31.86 Q 190.23 31.86 191.67 30.48 Q 193.11 29.1 193.11 27.12 L 193.11 27.12 Q 193.11 25.2 191.7 23.82 Q 190.29 22.44 188.37 22.44 L 188.37 22.44 L 183.21 22.44 Z M 222.01 57 L 215.23 57 Q 214.99 57 214.99 56.7 L 214.99 56.7 L 214.99 22.5 L 207.19 22.5 Q 206.89 22.5 206.89 22.2 L 206.89 22.2 L 206.95 15.48 Q 206.95 15.24 207.19 15.24 L 207.19 15.24 L 229.99 15.24 Q 230.29 15.24 230.29 15.48 L 230.29 15.48 L 230.29 22.2 Q 230.29 22.5 230.05 22.5 L 230.05 22.5 L 222.19 22.5 L 222.25 56.7 Q 222.25 57 222.01 57 L 222.01 57 Z M 243.48 57 L 236.7 57 Q 236.46 57 236.46 56.76 L 236.46 56.76 L 236.46 49.98 Q 236.46 49.74 236.7 49.74 L 236.7 49.74 L 243.48 49.74 Q 243.72 49.74 243.72 49.98 L 243.72 49.98 L 243.72 56.76 Q 243.72 57 243.48 57 L 243.48 57 Z M 260.81 57 L 254.8 57 Q 254.32 57 254.32 56.58 L 254.32 56.58 L 254.26 15.72 Q 254.26 15.24 254.74 15.24 L 254.74 15.24 L 260.14 15.24 L 270.28 38.88 L 269.98 15.72 Q 269.98 15.24 270.52 15.24 L 270.52 15.24 L 276.46 15.24 Q 276.82 15.24 276.82 15.72 L 276.82 15.72 L 276.88 56.64 Q 276.88 57 276.58 57 L 276.58 57 L 271.3 57 L 260.92 34.92 L 261.34 56.52 Q 261.34 57 260.81 57 L 260.81 57 Z M 307.35 57 L 287.97 57 Q 287.73 57 287.73 56.7 L 287.73 56.7 L 287.79 15.48 Q 287.79 15.24 288.03 15.24 L 288.03 15.24 L 307.29 15.24 Q 307.53 15.24 307.53 15.54 L 307.53 15.54 L 307.53 22.26 Q 307.53 22.5 307.29 22.5 L 307.29 22.5 L 294.99 22.5 L 294.99 31.86 L 307.29 31.86 Q 307.53 31.86 307.53 32.1 L 307.53 32.1 L 307.59 38.88 Q 307.59 39.12 307.35 39.12 L 307.35 39.12 L 294.99 39.12 L 294.99 49.62 L 307.35 49.62 Q 307.59 49.62 307.59 49.92 L 307.59 49.92 L 307.59 56.76 Q 307.59 57 307.35 57 L 307.35 57 Z M 331.33 57 L 324.55 57 Q 324.31 57 324.31 56.7 L 324.31 56.7 L 324.31 22.5 L 316.51 22.5 Q 316.21 22.5 316.21 22.2 L 316.21 22.2 L 316.27 15.48 Q 316.27 15.24 316.51 15.24 L 316.51 15.24 L 339.31 15.24 Q 339.61 15.24 339.61 15.48 L 339.61 15.48 L 339.61 22.2 Q 339.61 22.5 339.38 22.5 L 339.38 22.5 L 331.51 22.5 L 331.57 56.7 Q 331.57 57 331.33 57 L 331.33 57 Z&quot;);fill:rgb(73, 70, 66);font-family:Staatliches;font-size:32px;height:auto;inline-size:auto;overflow-clip-margin:0px;overflow-x:visible;overflow-y:visible;perspective-origin:0px 0px;pointer-events:bounding-box;transform:matrix(1, 0, 0, 1, 0, 0);transform-origin:0px 0px;width:auto;"/></g></svg></g></svg>